<svg xmlns="http://www.w3.org/2000/svg" width="226.77000pt" height="141.73125pt" viewBox="0 0 302.36000 188.97500"><g id="0"/><g id="1"/><g id="2"/><g id="3"/><g id="4"/><g id="5"/><g id="6"/><g id="7"/><g id="8"/><g id="9"/><g id="10"/><g id="50"/><g id="64"/><g id="66"/><g id="68"/><path d="M 74.10750 84.51274L 74.10750 43.64679L 97.51871 43.64679L 97.51871 84.51274z" stroke="none" fill="rgba(255, 192, 203, 0.99609375)" opacity="1" stroke-width="1" stroke-linecap="square"/><path d="M 74.10750 84.51274L 74.10750 118.97566L 97.51871 118.97566L 97.51871 84.51274z" stroke="none" fill="rgba(255, 192, 203, 0.99609375)" opacity="1" stroke-width="1" stroke-linecap="square"/><path d="M 74.10750 84.51274L 74.10750 43.64679L 97.51871 43.64679L 97.51871 84.51274" stroke="black" fill="none" opacity="1" stroke-width="1" stroke-linecap="square"/><path d="M 74.10750 84.51274L 74.10750 118.97566L 97.51871 118.97566L 97.51871 84.51274" stroke="black" fill="none" opacity="1" stroke-width="1" stroke-linecap="square"/><line x1="74.10750" y1="84.51274" x2="97.51871" y2="84.51274" stroke="black" stroke-linecap="square"/><line x1="85.81310" y1="43.64679" x2="85.81310" y2="28.01608" stroke="black" stroke-linecap="square"/><line x1="85.81310" y1="118.97566" x2="85.81310" y2="141.00940" stroke="black" stroke-linecap="square"/><line x1="79.96030" y1="141.00940" x2="91.66591" y2="141.00940" stroke="black" stroke-linecap="square"/><line x1="79.96030" y1="28.01608" x2="91.66591" y2="28.01608" stroke="black" stroke-linecap="square"/><path d="M 132.63554 88.51164L 132.63554 49.22976L 156.04675 49.22976L 156.04675 88.51164z" stroke="none" fill="rgba(255, 192, 203, 0.99609375)" opacity="1" stroke-width="1" stroke-linecap="square"/><path d="M 132.63554 88.51164L 132.63554 123.40791L 156.04675 123.40791L 156.04675 88.51164z" stroke="none" fill="rgba(255, 192, 203, 0.99609375)" opacity="1" stroke-width="1" stroke-linecap="square"/><path d="M 132.63554 88.51164L 132.63554 49.22976L 156.04675 49.22976L 156.04675 88.51164" stroke="black" fill="none" opacity="1" stroke-width="1" stroke-linecap="square"/><path d="M 132.63554 88.51164L 132.63554 123.40791L 156.04675 123.40791L 156.04675 88.51164" stroke="black" fill="none" opacity="1" stroke-width="1" stroke-linecap="square"/><line x1="132.63554" y1="88.51164" x2="156.04675" y2="88.51164" stroke="black" stroke-linecap="square"/><line x1="144.34115" y1="49.22976" x2="144.34115" y2="32.87803" stroke="black" stroke-linecap="square"/><line x1="144.34115" y1="123.40791" x2="144.34115" y2="144.14525" stroke="black" stroke-linecap="square"/><line x1="138.48834" y1="144.14525" x2="150.19395" y2="144.14525" stroke="black" stroke-linecap="square"/><line x1="138.48834" y1="32.87803" x2="150.19395" y2="32.87803" stroke="black" stroke-linecap="square"/><path d="M 191.16358 83.49291L 191.16358 44.62812L 214.57480 44.62812L 214.57480 83.49291z" stroke="none" fill="rgba(255, 192, 203, 0.99609375)" opacity="1" stroke-width="1" stroke-linecap="square"/><path d="M 191.16358 83.49291L 191.16358 113.07528L 214.57480 113.07528L 214.57480 83.49291z" stroke="none" fill="rgba(255, 192, 203, 0.99609375)" opacity="1" stroke-width="1" stroke-linecap="square"/><path d="M 191.16358 83.49291L 191.16358 44.62812L 214.57480 44.62812L 214.57480 83.49291" stroke="black" fill="none" opacity="1" stroke-width="1" stroke-linecap="square"/><path d="M 191.16358 83.49291L 191.16358 113.07528L 214.57480 113.07528L 214.57480 83.49291" stroke="black" fill="none" opacity="1" stroke-width="1" stroke-linecap="square"/><line x1="191.16358" y1="83.49291" x2="214.57480" y2="83.49291" stroke="black" stroke-linecap="square"/><line x1="202.86919" y1="44.62812" x2="202.86919" y2="32.15754" stroke="black" stroke-linecap="square"/><line x1="202.86919" y1="113.07528" x2="202.86919" y2="134.82828" stroke="black" stroke-linecap="square"/><line x1="197.01638" y1="134.82828" x2="208.72199" y2="134.82828" stroke="black" stroke-linecap="square"/><line x1="197.01638" y1="32.15754" x2="208.72199" y2="32.15754" stroke="black" stroke-linecap="square"/><path d="M 249.69162 84.45371L 249.69162 49.74182L 273.10284 49.74182L 273.10284 84.45371z" stroke="none" fill="rgba(255, 192, 203, 0.99609375)" opacity="1" stroke-width="1" stroke-linecap="square"/><path d="M 249.69162 84.45371L 249.69162 119.69519L 273.10284 119.69519L 273.10284 84.45371z" stroke="none" fill="rgba(255, 192, 203, 0.99609375)" opacity="1" stroke-width="1" stroke-linecap="square"/><path d="M 249.69162 84.45371L 249.69162 49.74182L 273.10284 49.74182L 273.10284 84.45371" stroke="black" fill="none" opacity="1" stroke-width="1" stroke-linecap="square"/><path d="M 249.69162 84.45371L 249.69162 119.69519L 273.10284 119.69519L 273.10284 84.45371" stroke="black" fill="none" opacity="1" stroke-width="1" stroke-linecap="square"/><line x1="249.69162" y1="84.45371" x2="273.10284" y2="84.45371" stroke="black" stroke-linecap="square"/><line x1="261.39723" y1="49.74182" x2="261.39723" y2="31.98868" stroke="black" stroke-linecap="square"/><line x1="261.39723" y1="119.69519" x2="261.39723" y2="136.91874" stroke="black" stroke-linecap="square"/><line x1="255.54442" y1="136.91874" x2="267.25003" y2="136.91874" stroke="black" stroke-linecap="square"/><line x1="255.54442" y1="31.98868" x2="267.25003" y2="31.98868" stroke="black" stroke-linecap="square"/><text id="47" fill="black" font-family="Ubuntu" font-weight="bold" font-size="9" text-anchor="start" alignment-baseline="baseline" x="2.25000" y="9.23400">A. Probability distribution</text><text id="48" fill="black" font-family="Ubuntu" font-weight="bold" font-size="9" text-anchor="start" alignment-baseline="baseline" x="171.47667" y="186.72500">ğœƒ</text><text id="49" fill="black" font-family="Ubuntu" font-weight="bold" font-size="9" text-anchor="start" alignment-baseline="baseline" x="0" y="0" transform="translate(9.22500, 93.55967) rotate(-90)">P(ğœƒ)</text><line x1="47.10033" y1="18.56733" x2="47.10033" y2="153.59400" stroke="black" stroke-linecap="square"/><line x1="41.76700" y1="143.32712" x2="47.10033" y2="143.32712" stroke="black" stroke-linecap="square"/><line x1="41.76700" y1="121.93805" x2="47.10033" y2="121.93805" stroke="black" stroke-linecap="square"/><line x1="41.76700" y1="100.54898" x2="47.10033" y2="100.54898" stroke="black" stroke-linecap="square"/><line x1="41.76700" y1="79.15991" x2="47.10033" y2="79.15991" stroke="black" stroke-linecap="square"/><line x1="41.76700" y1="57.77084" x2="47.10033" y2="57.77084" stroke="black" stroke-linecap="square"/><line x1="41.76700" y1="36.38178" x2="47.10033" y2="36.38178" stroke="black" stroke-linecap="square"/><text id="58" fill="black" font-family="Ubuntu" font-weight="normal" font-size="9" text-anchor="start" alignment-baseline="baseline" x="19.89167" y="146.51762">0.10</text><text id="59" fill="black" font-family="Ubuntu" font-weight="normal" font-size="9" text-anchor="start" alignment-baseline="baseline" x="20.09867" y="125.12855">0.15</text><text id="60" fill="black" font-family="Ubuntu" font-weight="normal" font-size="9" text-anchor="start" alignment-baseline="baseline" x="19.89167" y="103.73948">0.20</text><text id="61" fill="black" font-family="Ubuntu" font-weight="normal" font-size="9" text-anchor="start" alignment-baseline="baseline" x="20.09867" y="82.35041">0.25</text><text id="62" fill="black" font-family="Ubuntu" font-weight="normal" font-size="9" text-anchor="start" alignment-baseline="baseline" x="19.89167" y="60.96134">0.30</text><text id="63" fill="black" font-family="Ubuntu" font-weight="normal" font-size="9" text-anchor="start" alignment-baseline="baseline" x="20.09867" y="39.57228">0.35</text><line x1="47.10033" y1="18.56733" x2="300.11000" y2="18.56733" stroke="black" stroke-linecap="square"/><line x1="300.11000" y1="18.56733" x2="300.11000" y2="153.59400" stroke="black" stroke-linecap="square"/><line x1="47.10033" y1="153.59400" x2="300.11000" y2="153.59400" stroke="black" stroke-linecap="square"/><line x1="85.81310" y1="153.59400" x2="85.81310" y2="158.92733" stroke="black" stroke-linecap="square"/><text id="71" fill="black" font-family="Ubuntu" font-weight="normal" font-size="9" text-anchor="start" alignment-baseline="baseline" x="81.62360" y="169.30833">C1</text><line x1="144.34115" y1="153.59400" x2="144.34115" y2="158.92733" stroke="black" stroke-linecap="square"/><text id="73" fill="black" font-family="Ubuntu" font-weight="normal" font-size="9" text-anchor="start" alignment-baseline="baseline" x="139.60715" y="169.30833">C2</text><line x1="202.86919" y1="153.59400" x2="202.86919" y2="158.92733" stroke="black" stroke-linecap="square"/><text id="75" fill="black" font-family="Ubuntu" font-weight="normal" font-size="9" text-anchor="start" alignment-baseline="baseline" x="198.13969" y="169.30833">C3</text><line x1="261.39723" y1="153.59400" x2="261.39723" y2="158.92733" stroke="black" stroke-linecap="square"/><text id="77" fill="black" font-family="Ubuntu" font-weight="normal" font-size="9" text-anchor="start" alignment-baseline="baseline" x="256.51923" y="169.30833">C4</text></svg>