<svg xmlns="http://www.w3.org/2000/svg" width="226.77000pt" height="170.07750pt" viewBox="0 0 302.36000 226.77000"><g id="0"/><g id="1"/><g id="2"/><g id="3"/><g id="4"/><g id="5"/><g id="6"/><g id="7"/><g id="8"/><g id="9"/><g id="10"/><g id="214"/><g id="224"/><g id="226"/><g id="228"/><circle cx="98.66033" cy="85.92472" r="2.66667" fill="rgba(0, 128, 128, 0.5)" opacity="1"/><circle cx="136.17625" cy="147.71136" r="2.66667" fill="rgba(0, 128, 128, 0.5)" opacity="1"/><circle cx="251.50762" cy="89.87596" r="2.66667" fill="rgba(0, 128, 128, 0.5)" opacity="1"/><circle cx="173.73731" cy="43.94176" r="2.66667" fill="rgba(0, 128, 128, 0.5)" opacity="1"/><circle cx="133.66528" cy="49.62243" r="2.66667" fill="rgba(0, 128, 128, 0.5)" opacity="1"/><circle cx="233.29784" cy="87.85502" r="2.66667" fill="rgba(0, 128, 128, 0.5)" opacity="1"/><circle cx="70.76775" cy="179.97125" r="2.66667" fill="rgba(0, 128, 128, 0.5)" opacity="1"/><circle cx="279.06214" cy="48.68944" r="2.66667" fill="rgba(0, 128, 128, 0.5)" opacity="1"/><circle cx="190.78568" cy="56.97889" r="2.66667" fill="rgba(0, 128, 128, 0.5)" opacity="1"/><circle cx="209.82671" cy="62.72820" r="2.66667" fill="rgba(0, 128, 128, 0.5)" opacity="1"/><circle cx="92.46707" cy="107.38951" r="2.66667" fill="rgba(0, 128, 128, 0.5)" opacity="1"/><circle cx="213.17683" cy="82.22275" r="2.66667" fill="rgba(0, 128, 128, 0.5)" opacity="1"/><circle cx="255.77059" cy="106.51923" r="2.66667" fill="rgba(0, 128, 128, 0.5)" opacity="1"/><circle cx="248.94228" cy="156.14775" r="2.66667" fill="rgba(0, 128, 128, 0.5)" opacity="1"/><circle cx="266.34751" cy="98.83598" r="2.66667" fill="rgba(0, 128, 128, 0.5)" opacity="1"/><circle cx="73.77210" cy="173.55618" r="2.66667" fill="rgba(0, 128, 128, 0.5)" opacity="1"/><circle cx="211.65071" cy="32.36997" r="2.66667" fill="rgba(0, 128, 128, 0.5)" opacity="1"/><circle cx="238.69504" cy="103.41434" r="2.66667" fill="rgba(0, 128, 128, 0.5)" opacity="1"/><circle cx="203.75648" cy="30.84185" r="2.66667" fill="rgba(0, 128, 128, 0.5)" opacity="1"/><circle cx="215.92716" cy="101.77691" r="2.66667" fill="rgba(0, 128, 128, 0.5)" opacity="1"/><circle cx="290.41125" cy="133.59824" r="2.66667" fill="rgba(0, 128, 128, 0.5)" opacity="1"/><circle cx="241.35375" cy="175.07281" r="2.66667" fill="rgba(0, 128, 128, 0.5)" opacity="1"/><circle cx="223.02104" cy="93.67350" r="2.66667" fill="rgba(0, 128, 128, 0.5)" opacity="1"/><circle cx="283.17722" cy="56.03164" r="2.66667" fill="rgba(0, 128, 128, 0.5)" opacity="1"/><circle cx="159.33959" cy="106.09711" r="2.66667" fill="rgba(0, 128, 128, 0.5)" opacity="1"/><circle cx="283.26978" cy="133.09775" r="2.66667" fill="rgba(0, 128, 128, 0.5)" opacity="1"/><circle cx="232.15071" cy="94.63404" r="2.66667" fill="rgba(0, 128, 128, 0.5)" opacity="1"/><circle cx="226.59462" cy="139.31480" r="2.66667" fill="rgba(0, 128, 128, 0.5)" opacity="1"/><circle cx="120.45263" cy="147.08938" r="2.66667" fill="rgba(0, 128, 128, 0.5)" opacity="1"/><circle cx="131.55095" cy="105.12085" r="2.66667" fill="rgba(0, 128, 128, 0.5)" opacity="1"/><circle cx="222.18831" cy="65.49599" r="2.66667" fill="rgba(0, 128, 128, 0.5)" opacity="1"/><circle cx="188.27926" cy="100.24036" r="2.66667" fill="rgba(0, 128, 128, 0.5)" opacity="1"/><circle cx="200.62246" cy="123.69625" r="2.66667" fill="rgba(0, 128, 128, 0.5)" opacity="1"/><circle cx="96.63070" cy="102.75795" r="2.66667" fill="rgba(0, 128, 128, 0.5)" opacity="1"/><circle cx="175.61238" cy="61.91018" r="2.66667" fill="rgba(0, 128, 128, 0.5)" opacity="1"/><circle cx="99.63326" cy="95.52113" r="2.66667" fill="rgba(0, 128, 128, 0.5)" opacity="1"/><circle cx="229.38347" cy="124.51621" r="2.66667" fill="rgba(0, 128, 128, 0.5)" opacity="1"/><circle cx="186.94120" cy="168.89818" r="2.66667" fill="rgba(0, 128, 128, 0.5)" opacity="1"/><circle cx="197.15397" cy="113.59398" r="2.66667" fill="rgba(0, 128, 128, 0.5)" opacity="1"/><circle cx="220.99836" cy="108.82071" r="2.66667" fill="rgba(0, 128, 128, 0.5)" opacity="1"/><circle cx="230.22878" cy="32.95879" r="2.66667" fill="rgba(0, 128, 128, 0.5)" opacity="1"/><circle cx="248.02493" cy="47.08922" r="2.66667" fill="rgba(0, 128, 128, 0.5)" opacity="1"/><circle cx="202.24200" cy="163.47657" r="2.66667" fill="rgba(0, 128, 128, 0.5)" opacity="1"/><circle cx="249.35905" cy="77.27365" r="2.66667" fill="rgba(0, 128, 128, 0.5)" opacity="1"/><circle cx="272.41427" cy="132.09804" r="2.66667" fill="rgba(0, 128, 128, 0.5)" opacity="1"/><circle cx="190.04124" cy="100.31194" r="2.66667" fill="rgba(0, 128, 128, 0.5)" opacity="1"/><circle cx="174.65877" cy="84.20979" r="2.66667" fill="rgba(0, 128, 128, 0.5)" opacity="1"/><circle cx="227.97475" cy="152.15242" r="2.66667" fill="rgba(0, 128, 128, 0.5)" opacity="1"/><circle cx="208.55287" cy="47.08768" r="2.66667" fill="rgba(0, 128, 128, 0.5)" opacity="1"/><circle cx="258.30590" cy="55.07319" r="2.66667" fill="rgba(0, 128, 128, 0.5)" opacity="1"/><circle cx="156.72980" cy="141.22821" r="2.66667" fill="rgba(0, 128, 128, 0.5)" opacity="1"/><circle cx="187.17537" cy="103.49489" r="2.66667" fill="rgba(0, 128, 128, 0.5)" opacity="1"/><circle cx="200.57160" cy="130.47576" r="2.66667" fill="rgba(0, 128, 128, 0.5)" opacity="1"/><circle cx="269.06713" cy="118.06056" r="2.66667" fill="rgba(0, 128, 128, 0.5)" opacity="1"/><circle cx="161.33408" cy="102.95578" r="2.66667" fill="rgba(0, 128, 128, 0.5)" opacity="1"/><circle cx="277.89913" cy="117.45003" r="2.66667" fill="rgba(0, 128, 128, 0.5)" opacity="1"/><circle cx="199.80842" cy="119.71782" r="2.66667" fill="rgba(0, 128, 128, 0.5)" opacity="1"/><circle cx="233.86086" cy="42.98122" r="2.66667" fill="rgba(0, 128, 128, 0.5)" opacity="1"/><circle cx="72.01453" cy="140.77952" r="2.66667" fill="rgba(0, 128, 128, 0.5)" opacity="1"/><circle cx="107.92534" cy="36.67585" r="2.66667" fill="rgba(0, 128, 128, 0.5)" opacity="1"/><circle cx="255.98833" cy="83.56790" r="2.66667" fill="rgba(0, 128, 128, 0.5)" opacity="1"/><circle cx="69.63081" cy="131.19117" r="2.66667" fill="rgba(0, 128, 128, 0.5)" opacity="1"/><circle cx="131.63325" cy="75.41021" r="2.66667" fill="rgba(0, 128, 128, 0.5)" opacity="1"/><circle cx="161.63207" cy="69.25866" r="2.66667" fill="rgba(0, 128, 128, 0.5)" opacity="1"/><circle cx="124.04269" cy="80.26477" r="2.66667" fill="rgba(0, 128, 128, 0.5)" opacity="1"/><circle cx="61.58208" cy="32.20380" r="2.66667" fill="rgba(0, 128, 128, 0.5)" opacity="1"/><circle cx="104.52434" cy="62.96454" r="2.66667" fill="rgba(0, 128, 128, 0.5)" opacity="1"/><circle cx="130.71624" cy="101.46893" r="2.66667" fill="rgba(0, 128, 128, 0.5)" opacity="1"/><circle cx="175.47680" cy="146.88588" r="2.66667" fill="rgba(0, 128, 128, 0.5)" opacity="1"/><circle cx="191.84157" cy="37.31984" r="2.66667" fill="rgba(0, 128, 128, 0.5)" opacity="1"/><circle cx="143.38343" cy="175.88966" r="2.66667" fill="rgba(0, 128, 128, 0.5)" opacity="1"/><circle cx="288.88640" cy="37.22047" r="2.66667" fill="rgba(0, 128, 128, 0.5)" opacity="1"/><circle cx="201.27319" cy="120.02666" r="2.66667" fill="rgba(0, 128, 128, 0.5)" opacity="1"/><circle cx="218.50971" cy="141.45424" r="2.66667" fill="rgba(0, 128, 128, 0.5)" opacity="1"/><circle cx="194.74364" cy="133.56797" r="2.66667" fill="rgba(0, 128, 128, 0.5)" opacity="1"/><circle cx="89.06182" cy="160.46102" r="2.66667" fill="rgba(0, 128, 128, 0.5)" opacity="1"/><circle cx="205.83706" cy="128.22476" r="2.66667" fill="rgba(0, 128, 128, 0.5)" opacity="1"/><circle cx="242.42984" cy="148.62692" r="2.66667" fill="rgba(0, 128, 128, 0.5)" opacity="1"/><circle cx="164.37032" cy="81.72999" r="2.66667" fill="rgba(0, 128, 128, 0.5)" opacity="1"/><circle cx="108.99551" cy="149.21061" r="2.66667" fill="rgba(0, 128, 128, 0.5)" opacity="1"/><circle cx="174.21781" cy="150.71234" r="2.66667" fill="rgba(0, 128, 128, 0.5)" opacity="1"/><circle cx="146.53820" cy="97.70260" r="2.66667" fill="rgba(0, 128, 128, 0.5)" opacity="1"/><circle cx="88.71322" cy="101.18275" r="2.66667" fill="rgba(0, 128, 128, 0.5)" opacity="1"/><circle cx="287.19751" cy="57.79352" r="2.66667" fill="rgba(0, 128, 128, 0.5)" opacity="1"/><circle cx="258.61015" cy="144.91228" r="2.66667" fill="rgba(0, 128, 128, 0.5)" opacity="1"/><circle cx="274.96753" cy="102.52554" r="2.66667" fill="rgba(0, 128, 128, 0.5)" opacity="1"/><circle cx="242.60054" cy="145.36152" r="2.66667" fill="rgba(0, 128, 128, 0.5)" opacity="1"/><circle cx="198.77944" cy="31.65466" r="2.66667" fill="rgba(0, 128, 128, 0.5)" opacity="1"/><circle cx="72.77634" cy="66.39056" r="2.66667" fill="rgba(0, 128, 128, 0.5)" opacity="1"/><circle cx="278.67092" cy="99.24498" r="2.66667" fill="rgba(0, 128, 128, 0.5)" opacity="1"/><circle cx="64.25042" cy="128.41195" r="2.66667" fill="rgba(0, 128, 128, 0.5)" opacity="1"/><circle cx="276.16029" cy="166.28388" r="2.66667" fill="rgba(0, 128, 128, 0.5)" opacity="1"/><circle cx="246.07708" cy="107.26989" r="2.66667" fill="rgba(0, 128, 128, 0.5)" opacity="1"/><circle cx="162.09438" cy="69.53984" r="2.66667" fill="rgba(0, 128, 128, 0.5)" opacity="1"/><circle cx="114.88520" cy="152.74143" r="2.66667" fill="rgba(0, 128, 128, 0.5)" opacity="1"/><circle cx="114.75998" cy="99.43001" r="2.66667" fill="rgba(0, 128, 128, 0.5)" opacity="1"/><circle cx="193.28309" cy="117.50214" r="2.66667" fill="rgba(0, 128, 128, 0.5)" opacity="1"/><circle cx="216.28050" cy="32.66990" r="2.66667" fill="rgba(0, 128, 128, 0.5)" opacity="1"/><circle cx="92.40668" cy="109.64640" r="2.66667" fill="rgba(0, 128, 128, 0.5)" opacity="1"/><circle cx="210.70552" cy="112.35277" r="2.66667" fill="rgba(0, 128, 128, 0.5)" opacity="1"/><circle cx="274.18095" cy="30.44594" r="2.66667" fill="rgba(0, 128, 128, 0.5)" opacity="1"/><circle cx="71.81157" cy="170.58611" r="2.66667" fill="rgba(0, 128, 128, 0.5)" opacity="1"/><circle cx="264.86214" cy="86.09352" r="2.66667" fill="rgba(0, 128, 128, 0.5)" opacity="1"/><circle cx="204.08539" cy="164.20732" r="2.66667" fill="rgba(0, 128, 128, 0.5)" opacity="1"/><circle cx="77.18970" cy="71.07997" r="2.66667" fill="rgba(0, 128, 128, 0.5)" opacity="1"/><circle cx="270.42538" cy="45.27898" r="2.66667" fill="rgba(0, 128, 128, 0.5)" opacity="1"/><circle cx="209.92553" cy="158.28906" r="2.66667" fill="rgba(0, 128, 128, 0.5)" opacity="1"/><circle cx="62.40376" cy="37.35119" r="2.66667" fill="rgba(0, 128, 128, 0.5)" opacity="1"/><circle cx="167.95281" cy="53.24100" r="2.66667" fill="rgba(0, 128, 128, 0.5)" opacity="1"/><circle cx="246.20693" cy="113.69819" r="2.66667" fill="rgba(0, 128, 128, 0.5)" opacity="1"/><circle cx="161.81924" cy="45.66763" r="2.66667" fill="rgba(0, 128, 128, 0.5)" opacity="1"/><circle cx="253.87326" cy="50.73163" r="2.66667" fill="rgba(0, 128, 128, 0.5)" opacity="1"/><circle cx="128.77531" cy="41.78039" r="2.66667" fill="rgba(0, 128, 128, 0.5)" opacity="1"/><circle cx="116.44614" cy="149.58633" r="2.66667" fill="rgba(0, 128, 128, 0.5)" opacity="1"/><circle cx="238.95822" cy="48.68759" r="2.66667" fill="rgba(0, 128, 128, 0.5)" opacity="1"/><circle cx="86.57302" cy="90.07423" r="2.66667" fill="rgba(0, 128, 128, 0.5)" opacity="1"/><circle cx="223.87399" cy="104.01275" r="2.66667" fill="rgba(0, 128, 128, 0.5)" opacity="1"/><circle cx="272.84826" cy="154.83068" r="2.66667" fill="rgba(0, 128, 128, 0.5)" opacity="1"/><circle cx="259.42755" cy="85.75731" r="2.66667" fill="rgba(0, 128, 128, 0.5)" opacity="1"/><circle cx="275.79949" cy="138.78275" r="2.66667" fill="rgba(0, 128, 128, 0.5)" opacity="1"/><circle cx="139.69636" cy="135.87440" r="2.66667" fill="rgba(0, 128, 128, 0.5)" opacity="1"/><circle cx="230.35152" cy="174.93821" r="2.66667" fill="rgba(0, 128, 128, 0.5)" opacity="1"/><circle cx="125.26054" cy="56.73407" r="2.66667" fill="rgba(0, 128, 128, 0.5)" opacity="1"/><circle cx="180.75262" cy="36.44137" r="2.66667" fill="rgba(0, 128, 128, 0.5)" opacity="1"/><circle cx="207.85133" cy="103.73936" r="2.66667" fill="rgba(0, 128, 128, 0.5)" opacity="1"/><circle cx="158.20544" cy="121.21333" r="2.66667" fill="rgba(0, 128, 128, 0.5)" opacity="1"/><circle cx="151.42977" cy="167.11644" r="2.66667" fill="rgba(0, 128, 128, 0.5)" opacity="1"/><circle cx="279.34433" cy="89.57960" r="2.66667" fill="rgba(0, 128, 128, 0.5)" opacity="1"/><circle cx="277.43079" cy="32.49500" r="2.66667" fill="rgba(0, 128, 128, 0.5)" opacity="1"/><circle cx="279.11654" cy="53.39053" r="2.66667" fill="rgba(0, 128, 128, 0.5)" opacity="1"/><circle cx="64.11566" cy="125.86278" r="2.66667" fill="rgba(0, 128, 128, 0.5)" opacity="1"/><circle cx="61.99596" cy="109.01269" r="2.66667" fill="rgba(0, 128, 128, 0.5)" opacity="1"/><circle cx="245.78580" cy="95.67611" r="2.66667" fill="rgba(0, 128, 128, 0.5)" opacity="1"/><circle cx="234.84934" cy="135.63482" r="2.66667" fill="rgba(0, 128, 128, 0.5)" opacity="1"/><circle cx="76.99224" cy="74.98369" r="2.66667" fill="rgba(0, 128, 128, 0.5)" opacity="1"/><circle cx="148.41564" cy="119.09397" r="2.66667" fill="rgba(0, 128, 128, 0.5)" opacity="1"/><circle cx="91.73258" cy="178.07947" r="2.66667" fill="rgba(0, 128, 128, 0.5)" opacity="1"/><circle cx="89.53150" cy="74.94923" r="2.66667" fill="rgba(0, 128, 128, 0.5)" opacity="1"/><circle cx="85.52121" cy="170.08809" r="2.66667" fill="rgba(0, 128, 128, 0.5)" opacity="1"/><circle cx="164.02434" cy="106.70676" r="2.66667" fill="rgba(0, 128, 128, 0.5)" opacity="1"/><circle cx="140.91731" cy="52.10340" r="2.66667" fill="rgba(0, 128, 128, 0.5)" opacity="1"/><circle cx="282.41427" cy="40.87761" r="2.66667" fill="rgba(0, 128, 128, 0.5)" opacity="1"/><circle cx="193.03936" cy="84.98568" r="2.66667" fill="rgba(0, 128, 128, 0.5)" opacity="1"/><circle cx="82.91102" cy="86.61855" r="2.66667" fill="rgba(0, 128, 128, 0.5)" opacity="1"/><circle cx="263.44426" cy="146.60251" r="2.66667" fill="rgba(0, 128, 128, 0.5)" opacity="1"/><circle cx="77.27248" cy="146.74484" r="2.66667" fill="rgba(0, 128, 128, 0.5)" opacity="1"/><circle cx="145.86877" cy="63.28221" r="2.66667" fill="rgba(0, 128, 128, 0.5)" opacity="1"/><circle cx="69.45642" cy="56.69991" r="2.66667" fill="rgba(0, 128, 128, 0.5)" opacity="1"/><circle cx="86.06427" cy="170.57544" r="2.66667" fill="rgba(0, 128, 128, 0.5)" opacity="1"/><circle cx="222.55084" cy="72.71072" r="2.66667" fill="rgba(0, 128, 128, 0.5)" opacity="1"/><circle cx="244.70232" cy="52.47901" r="2.66667" fill="rgba(0, 128, 128, 0.5)" opacity="1"/><circle cx="123.60172" cy="84.71131" r="2.66667" fill="rgba(0, 128, 128, 0.5)" opacity="1"/><circle cx="232.71421" cy="166.82006" r="2.66667" fill="rgba(0, 128, 128, 0.5)" opacity="1"/><circle cx="245.69089" cy="129.24518" r="2.66667" fill="rgba(0, 128, 128, 0.5)" opacity="1"/><circle cx="78.57648" cy="121.82813" r="2.66667" fill="rgba(0, 128, 128, 0.5)" opacity="1"/><circle cx="260.30353" cy="125.53853" r="2.66667" fill="rgba(0, 128, 128, 0.5)" opacity="1"/><circle cx="168.36187" cy="154.55383" r="2.66667" fill="rgba(0, 128, 128, 0.5)" opacity="1"/><circle cx="258.75771" cy="154.03620" r="2.66667" fill="rgba(0, 128, 128, 0.5)" opacity="1"/><circle cx="169.50458" cy="48.64368" r="2.66667" fill="rgba(0, 128, 128, 0.5)" opacity="1"/><circle cx="159.25463" cy="178.78388" r="2.66667" fill="rgba(0, 128, 128, 0.5)" opacity="1"/><circle cx="141.99367" cy="45.24283" r="2.66667" fill="rgba(0, 128, 128, 0.5)" opacity="1"/><circle cx="129.70013" cy="36.23073" r="2.66667" fill="rgba(0, 128, 128, 0.5)" opacity="1"/><circle cx="172.93457" cy="98.75688" r="2.66667" fill="rgba(0, 128, 128, 0.5)" opacity="1"/><circle cx="280.43301" cy="64.96026" r="2.66667" fill="rgba(0, 128, 128, 0.5)" opacity="1"/><circle cx="142.96889" cy="68.25693" r="2.66667" fill="rgba(0, 128, 128, 0.5)" opacity="1"/><circle cx="90.06956" cy="136.81747" r="2.66667" fill="rgba(0, 128, 128, 0.5)" opacity="1"/><circle cx="190.10703" cy="106.08670" r="2.66667" fill="rgba(0, 128, 128, 0.5)" opacity="1"/><circle cx="215.02862" cy="104.54817" r="2.66667" fill="rgba(0, 128, 128, 0.5)" opacity="1"/><circle cx="63.82621" cy="32.65915" r="2.66667" fill="rgba(0, 128, 128, 0.5)" opacity="1"/><circle cx="282.73392" cy="77.33550" r="2.66667" fill="rgba(0, 128, 128, 0.5)" opacity="1"/><circle cx="191.26447" cy="83.92521" r="2.66667" fill="rgba(0, 128, 128, 0.5)" opacity="1"/><circle cx="199.71293" cy="86.54953" r="2.66667" fill="rgba(0, 128, 128, 0.5)" opacity="1"/><circle cx="281.39877" cy="165.14697" r="2.66667" fill="rgba(0, 128, 128, 0.5)" opacity="1"/><circle cx="119.02219" cy="113.84895" r="2.66667" fill="rgba(0, 128, 128, 0.5)" opacity="1"/><circle cx="172.10486" cy="132.91619" r="2.66667" fill="rgba(0, 128, 128, 0.5)" opacity="1"/><circle cx="152.43568" cy="164.39968" r="2.66667" fill="rgba(0, 128, 128, 0.5)" opacity="1"/><circle cx="238.30922" cy="29.04208" r="2.66667" fill="rgba(0, 128, 128, 0.5)" opacity="1"/><circle cx="215.79564" cy="69.28502" r="2.66667" fill="rgba(0, 128, 128, 0.5)" opacity="1"/><circle cx="123.59863" cy="109.92028" r="2.66667" fill="rgba(0, 128, 128, 0.5)" opacity="1"/><circle cx="95.39516" cy="78.32166" r="2.66667" fill="rgba(0, 128, 128, 0.5)" opacity="1"/><circle cx="124.27278" cy="96.73839" r="2.66667" fill="rgba(0, 128, 128, 0.5)" opacity="1"/><circle cx="196.04235" cy="171.28074" r="2.66667" fill="rgba(0, 128, 128, 0.5)" opacity="1"/><circle cx="274.84565" cy="154.27226" r="2.66667" fill="rgba(0, 128, 128, 0.5)" opacity="1"/><circle cx="244.56497" cy="170.60849" r="2.66667" fill="rgba(0, 128, 128, 0.5)" opacity="1"/><circle cx="195.10456" cy="122.22666" r="2.66667" fill="rgba(0, 128, 128, 0.5)" opacity="1"/><circle cx="117.67199" cy="161.87664" r="2.66667" fill="rgba(0, 128, 128, 0.5)" opacity="1"/><circle cx="63.80740" cy="151.95871" r="2.66667" fill="rgba(0, 128, 128, 0.5)" opacity="1"/><circle cx="95.31831" cy="145.01065" r="2.66667" fill="rgba(0, 128, 128, 0.5)" opacity="1"/><circle cx="172.89394" cy="68.22970" r="2.66667" fill="rgba(0, 128, 128, 0.5)" opacity="1"/><circle cx="63.01669" cy="176.62217" r="2.66667" fill="rgba(0, 128, 128, 0.5)" opacity="1"/><circle cx="269.35127" cy="127.91719" r="2.66667" fill="rgba(0, 128, 128, 0.5)" opacity="1"/><circle cx="263.11227" cy="84.37167" r="2.66667" fill="rgba(0, 128, 128, 0.5)" opacity="1"/><circle cx="94.49355" cy="83.65337" r="2.66667" fill="rgba(0, 128, 128, 0.5)" opacity="1"/><circle cx="126.58574" cy="104.06247" r="2.66667" fill="rgba(0, 128, 128, 0.5)" opacity="1"/><circle cx="211.34637" cy="148.94225" r="2.66667" fill="rgba(0, 128, 128, 0.5)" opacity="1"/><circle cx="245.77315" cy="33.57022" r="2.66667" fill="rgba(0, 128, 128, 0.5)" opacity="1"/><circle cx="289.31936" cy="146.52948" r="2.66667" fill="rgba(0, 128, 128, 0.5)" opacity="1"/><circle cx="259.39176" cy="165.85413" r="2.66667" fill="rgba(0, 128, 128, 0.5)" opacity="1"/><circle cx="78.52895" cy="87.10454" r="2.66667" fill="rgba(0, 128, 128, 0.5)" opacity="1"/><circle cx="191.78911" cy="78.34133" r="2.66667" fill="rgba(0, 128, 128, 0.5)" opacity="1"/><text id="211" fill="black" font-family="Ubuntu" font-weight="bold" font-size="10" text-anchor="start" alignment-baseline="baseline" x="2.50000" y="10.26000">A. Line plot</text><text id="212" fill="black" font-family="Ubuntu" font-weight="bold" font-size="10" text-anchor="start" alignment-baseline="baseline" x="2.50000" y="108.42167">f(x)</text><text id="213" fill="black" font-family="Ubuntu" font-weight="bold" font-size="10" text-anchor="start" alignment-baseline="baseline" x="148.72667" y="224.27000">Predictor: x</text><line x1="52.13333" y1="19.59333" x2="52.13333" y2="189.42000" stroke="black" stroke-linecap="square"/><line x1="46.80000" y1="149.95807" x2="52.13333" y2="149.95807" stroke="black" stroke-linecap="square"/><line x1="46.80000" y1="119.48748" x2="52.13333" y2="119.48748" stroke="black" stroke-linecap="square"/><line x1="46.80000" y1="89.01690" x2="52.13333" y2="89.01690" stroke="black" stroke-linecap="square"/><line x1="46.80000" y1="58.54631" x2="52.13333" y2="58.54631" stroke="black" stroke-linecap="square"/><text id="220" fill="black" font-family="Ubuntu" font-weight="normal" font-size="10" text-anchor="start" alignment-baseline="baseline" x="28.96667" y="153.50307">0.2</text><text id="221" fill="black" font-family="Ubuntu" font-weight="normal" font-size="10" text-anchor="start" alignment-baseline="baseline" x="28.64667" y="123.03248">0.4</text><text id="222" fill="black" font-family="Ubuntu" font-weight="normal" font-size="10" text-anchor="start" alignment-baseline="baseline" x="28.73667" y="92.56190">0.6</text><text id="223" fill="black" font-family="Ubuntu" font-weight="normal" font-size="10" text-anchor="start" alignment-baseline="baseline" x="28.77667" y="62.09131">0.8</text><line x1="52.13333" y1="19.59333" x2="299.86000" y2="19.59333" stroke="black" stroke-linecap="square"/><line x1="299.86000" y1="19.59333" x2="299.86000" y2="189.42000" stroke="black" stroke-linecap="square"/><line x1="52.13333" y1="189.42000" x2="299.86000" y2="189.42000" stroke="black" stroke-linecap="square"/><line x1="106.80916" y1="189.42000" x2="106.80916" y2="194.75333" stroke="black" stroke-linecap="square"/><text id="231" fill="black" font-family="Ubuntu" font-weight="normal" font-size="10" text-anchor="start" alignment-baseline="baseline" x="100.55916" y="205.84333">0.2</text><line x1="153.03968" y1="189.42000" x2="153.03968" y2="194.75333" stroke="black" stroke-linecap="square"/><text id="233" fill="black" font-family="Ubuntu" font-weight="normal" font-size="10" text-anchor="start" alignment-baseline="baseline" x="146.62968" y="205.84333">0.4</text><line x1="199.27020" y1="189.42000" x2="199.27020" y2="194.75333" stroke="black" stroke-linecap="square"/><text id="235" fill="black" font-family="Ubuntu" font-weight="normal" font-size="10" text-anchor="start" alignment-baseline="baseline" x="192.90520" y="205.84333">0.6</text><line x1="245.50072" y1="189.42000" x2="245.50072" y2="194.75333" stroke="black" stroke-linecap="square"/><text id="237" fill="black" font-family="Ubuntu" font-weight="normal" font-size="10" text-anchor="start" alignment-baseline="baseline" x="239.15572" y="205.84333">0.8</text></svg>