<svg xmlns="http://www.w3.org/2000/svg" width="226.77000pt" height="141.73125pt" viewBox="0 0 302.36000 188.97500"><g id="0"/><g id="1"/><g id="2"/><g id="3"/><g id="4"/><g id="5"/><g id="6"/><g id="7"/><g id="8"/><g id="9"/><g id="10"/><g id="50"/><g id="64"/><g id="66"/><g id="68"/><path d="M 81.49177 85.24950L 81.49177 45.05497L 104.10469 45.05497L 104.10469 85.24950z" stroke="none" fill="rgba(255, 192, 203, 0.99609375)" opacity="1" stroke-width="1" stroke-linecap="square"/><path d="M 81.49177 85.24950L 81.49177 119.14620L 104.10469 119.14620L 104.10469 85.24950z" stroke="none" fill="rgba(255, 192, 203, 0.99609375)" opacity="1" stroke-width="1" stroke-linecap="square"/><path d="M 81.49177 85.24950L 81.49177 45.05497L 104.10469 45.05497L 104.10469 85.24950" stroke="black" fill="none" opacity="1" stroke-width="1" stroke-linecap="square"/><path d="M 81.49177 85.24950L 81.49177 119.14620L 104.10469 119.14620L 104.10469 85.24950" stroke="black" fill="none" opacity="1" stroke-width="1" stroke-linecap="square"/><line x1="81.49177" y1="85.24950" x2="104.10469" y2="85.24950" stroke="black" stroke-linecap="square"/><line x1="92.79823" y1="45.05497" x2="92.79823" y2="29.68108" stroke="black" stroke-linecap="square"/><line x1="92.79823" y1="119.14620" x2="92.79823" y2="140.81792" stroke="black" stroke-linecap="square"/><line x1="87.14500" y1="140.81792" x2="98.45146" y2="140.81792" stroke="black" stroke-linecap="square"/><line x1="87.14500" y1="29.68108" x2="98.45146" y2="29.68108" stroke="black" stroke-linecap="square"/><path d="M 138.02406 89.18270L 138.02406 50.54622L 160.63698 50.54622L 160.63698 89.18270z" stroke="none" fill="rgba(255, 192, 203, 0.99609375)" opacity="1" stroke-width="1" stroke-linecap="square"/><path d="M 138.02406 89.18270L 138.02406 123.50562L 160.63698 123.50562L 160.63698 89.18270z" stroke="none" fill="rgba(255, 192, 203, 0.99609375)" opacity="1" stroke-width="1" stroke-linecap="square"/><path d="M 138.02406 89.18270L 138.02406 50.54622L 160.63698 50.54622L 160.63698 89.18270" stroke="black" fill="none" opacity="1" stroke-width="1" stroke-linecap="square"/><path d="M 138.02406 89.18270L 138.02406 123.50562L 160.63698 123.50562L 160.63698 89.18270" stroke="black" fill="none" opacity="1" stroke-width="1" stroke-linecap="square"/><line x1="138.02406" y1="89.18270" x2="160.63698" y2="89.18270" stroke="black" stroke-linecap="square"/><line x1="149.33052" y1="50.54622" x2="149.33052" y2="34.46315" stroke="black" stroke-linecap="square"/><line x1="149.33052" y1="123.50562" x2="149.33052" y2="143.90225" stroke="black" stroke-linecap="square"/><line x1="143.67729" y1="143.90225" x2="154.98375" y2="143.90225" stroke="black" stroke-linecap="square"/><line x1="143.67729" y1="34.46315" x2="154.98375" y2="34.46315" stroke="black" stroke-linecap="square"/><path d="M 194.55635 84.24643L 194.55635 46.02018L 217.16927 46.02018L 217.16927 84.24643z" stroke="none" fill="rgba(255, 192, 203, 0.99609375)" opacity="1" stroke-width="1" stroke-linecap="square"/><path d="M 194.55635 84.24643L 194.55635 113.34275L 217.16927 113.34275L 217.16927 84.24643z" stroke="none" fill="rgba(255, 192, 203, 0.99609375)" opacity="1" stroke-width="1" stroke-linecap="square"/><path d="M 194.55635 84.24643L 194.55635 46.02018L 217.16927 46.02018L 217.16927 84.24643" stroke="black" fill="none" opacity="1" stroke-width="1" stroke-linecap="square"/><path d="M 194.55635 84.24643L 194.55635 113.34275L 217.16927 113.34275L 217.16927 84.24643" stroke="black" fill="none" opacity="1" stroke-width="1" stroke-linecap="square"/><line x1="194.55635" y1="84.24643" x2="217.16927" y2="84.24643" stroke="black" stroke-linecap="square"/><line x1="205.86281" y1="46.02018" x2="205.86281" y2="33.75450" stroke="black" stroke-linecap="square"/><line x1="205.86281" y1="113.34275" x2="205.86281" y2="134.73836" stroke="black" stroke-linecap="square"/><line x1="200.20958" y1="134.73836" x2="211.51604" y2="134.73836" stroke="black" stroke-linecap="square"/><line x1="200.20958" y1="33.75450" x2="211.51604" y2="33.75450" stroke="black" stroke-linecap="square"/><path d="M 251.08865 85.19144L 251.08865 51.04986L 273.70156 51.04986L 273.70156 85.19144z" stroke="none" fill="rgba(255, 192, 203, 0.99609375)" opacity="1" stroke-width="1" stroke-linecap="square"/><path d="M 251.08865 85.19144L 251.08865 119.85391L 273.70156 119.85391L 273.70156 85.19144z" stroke="none" fill="rgba(255, 192, 203, 0.99609375)" opacity="1" stroke-width="1" stroke-linecap="square"/><path d="M 251.08865 85.19144L 251.08865 51.04986L 273.70156 51.04986L 273.70156 85.19144" stroke="black" fill="none" opacity="1" stroke-width="1" stroke-linecap="square"/><path d="M 251.08865 85.19144L 251.08865 119.85391L 273.70156 119.85391L 273.70156 85.19144" stroke="black" fill="none" opacity="1" stroke-width="1" stroke-linecap="square"/><line x1="251.08865" y1="85.19144" x2="273.70156" y2="85.19144" stroke="black" stroke-linecap="square"/><line x1="262.39510" y1="51.04986" x2="262.39510" y2="33.58841" stroke="black" stroke-linecap="square"/><line x1="262.39510" y1="119.85391" x2="262.39510" y2="136.79447" stroke="black" stroke-linecap="square"/><line x1="256.74187" y1="136.79447" x2="268.04833" y2="136.79447" stroke="black" stroke-linecap="square"/><line x1="256.74187" y1="33.58841" x2="268.04833" y2="33.58841" stroke="black" stroke-linecap="square"/><text id="47" x="2.25000" y="9.23400" fill="black" font-family="Ubuntu" font-weight="bold" font-size="9" text-anchor="start" alignment-baseline="baseline">A. Probability distribution</text><text id="48" x="175.46817" y="186.61700" fill="black" font-family="Ubuntu" font-weight="bold" font-size="9" text-anchor="start" alignment-baseline="baseline">ğœƒ</text><text id="49" x="2.25000" y="89.31167" fill="black" font-family="Ubuntu" font-weight="bold" font-size="9" text-anchor="start" alignment-baseline="baseline">P(ğœƒ)</text><line x1="55.08333" y1="20.23233" x2="55.08333" y2="153.35100" stroke="black" stroke-linecap="square"/><line x1="49.75000" y1="143.09756" x2="55.08333" y2="143.09756" stroke="black" stroke-linecap="square"/><line x1="49.75000" y1="122.05991" x2="55.08333" y2="122.05991" stroke="black" stroke-linecap="square"/><line x1="49.75000" y1="101.02227" x2="55.08333" y2="101.02227" stroke="black" stroke-linecap="square"/><line x1="49.75000" y1="79.98462" x2="55.08333" y2="79.98462" stroke="black" stroke-linecap="square"/><line x1="49.75000" y1="58.94697" x2="55.08333" y2="58.94697" stroke="black" stroke-linecap="square"/><line x1="49.75000" y1="37.90933" x2="55.08333" y2="37.90933" stroke="black" stroke-linecap="square"/><text id="58" x="27.87467" y="146.22056" fill="black" font-family="Ubuntu" font-weight="regular" font-size="9" text-anchor="start" alignment-baseline="baseline">0.10</text><text id="59" x="28.08167" y="125.18291" fill="black" font-family="Ubuntu" font-weight="regular" font-size="9" text-anchor="start" alignment-baseline="baseline">0.15</text><text id="60" x="27.87467" y="104.14527" fill="black" font-family="Ubuntu" font-weight="regular" font-size="9" text-anchor="start" alignment-baseline="baseline">0.20</text><text id="61" x="28.08167" y="83.10762" fill="black" font-family="Ubuntu" font-weight="regular" font-size="9" text-anchor="start" alignment-baseline="baseline">0.25</text><text id="62" x="27.87467" y="62.06997" fill="black" font-family="Ubuntu" font-weight="regular" font-size="9" text-anchor="start" alignment-baseline="baseline">0.30</text><text id="63" x="28.08167" y="41.03233" fill="black" font-family="Ubuntu" font-weight="regular" font-size="9" text-anchor="start" alignment-baseline="baseline">0.35</text><line x1="55.08333" y1="20.23233" x2="300.11000" y2="20.23233" stroke="black" stroke-linecap="square"/><line x1="300.11000" y1="20.23233" x2="300.11000" y2="153.35100" stroke="black" stroke-linecap="square"/><line x1="55.08333" y1="153.35100" x2="300.11000" y2="153.35100" stroke="black" stroke-linecap="square"/><line x1="92.79823" y1="153.35100" x2="92.79823" y2="158.68433" stroke="black" stroke-linecap="square"/><text id="71" x="88.60873" y="169.06533" fill="black" font-family="Ubuntu" font-weight="regular" font-size="9" text-anchor="start" alignment-baseline="baseline">C1</text><line x1="149.33052" y1="153.35100" x2="149.33052" y2="158.68433" stroke="black" stroke-linecap="square"/><text id="73" x="144.59652" y="169.06533" fill="black" font-family="Ubuntu" font-weight="regular" font-size="9" text-anchor="start" alignment-baseline="baseline">C2</text><line x1="205.86281" y1="153.35100" x2="205.86281" y2="158.68433" stroke="black" stroke-linecap="square"/><text id="75" x="201.13331" y="169.06533" fill="black" font-family="Ubuntu" font-weight="regular" font-size="9" text-anchor="start" alignment-baseline="baseline">C3</text><line x1="262.39510" y1="153.35100" x2="262.39510" y2="158.68433" stroke="black" stroke-linecap="square"/><text id="77" x="257.51710" y="169.06533" fill="black" font-family="Ubuntu" font-weight="regular" font-size="9" text-anchor="start" alignment-baseline="baseline">C4</text></svg>