<svg xmlns="http://www.w3.org/2000/svg" width="226.7716535433071pt" height="141.7322834645669pt" viewBox="0 0 226.7716535433071 141.7322834645669"><g id="0"/><g id="1"/><g id="2"/><g id="3"/><g id="4"/><g id="5"/><g id="6"/><g id="7"/><g id="8"/><g id="9"/><g id="10"/><g id="50"/><g id="64"/><g id="66"/><g id="68"/><path d="M 68.881496 65.780780L 68.881496 39.407902L 84.941339 39.407902L 84.941339 65.780780z" stroke="none" fill="rgba(255, 192, 203, 0.99609375)" stroke-linecap="square"/><path d="M 68.881496 65.780780L 68.881496 88.021456L 84.941339 88.021456L 84.941339 65.780780z" stroke="none" fill="rgba(255, 192, 203, 0.99609375)" stroke-linecap="square"/><path d="M 68.881496 65.780780L 68.881496 39.407902L 84.941339 39.407902L 84.941339 65.780780" stroke="black" fill="none" stroke-linecap="square"/><path d="M 68.881496 65.780780L 68.881496 88.021456L 84.941339 88.021456L 84.941339 65.780780" stroke="black" fill="none" stroke-linecap="square"/><line x1="68.88149606299208px" y1="65.78077967518263px" x2="84.94133858267712px" y2="65.78077967518263px" stroke="black" stroke-linecap="square"/><line x1="76.91141732283461px" y1="39.4079019315553px" x2="76.91141732283461px" y2="29.320614379222px" stroke="black" stroke-linecap="square"/><line x1="76.91141732283461px" y1="88.02145565950279px" x2="76.91141732283461px" y2="102.24094497114325px" stroke="black" stroke-linecap="square"/><line x1="72.89645669291335px" y1="102.24094497114325px" x2="80.92637795275586px" y2="102.24094497114325px" stroke="black" stroke-linecap="square"/><line x1="72.89645669291335px" y1="29.320614379222px" x2="80.92637795275586px" y2="29.320614379222px" stroke="black" stroke-linecap="square"/><path d="M 109.031102 68.361473L 109.031102 43.010879L 125.090945 43.010879L 125.090945 68.361473z" stroke="none" fill="rgba(255, 192, 203, 0.99609375)" stroke-linecap="square"/><path d="M 109.031102 68.361473L 109.031102 90.881807L 125.090945 90.881807L 125.090945 68.361473z" stroke="none" fill="rgba(255, 192, 203, 0.99609375)" stroke-linecap="square"/><path d="M 109.031102 68.361473L 109.031102 43.010879L 125.090945 43.010879L 125.090945 68.361473" stroke="black" fill="none" stroke-linecap="square"/><path d="M 109.031102 68.361473L 109.031102 90.881807L 125.090945 90.881807L 125.090945 68.361473" stroke="black" fill="none" stroke-linecap="square"/><line x1="109.03110236220468px" y1="68.36147329129723px" x2="125.09094488188971px" y2="68.36147329129723px" stroke="black" stroke-linecap="square"/><line x1="117.0610236220472px" y1="43.01087929397633px" x2="117.0610236220472px" y2="32.45827733321757px" stroke="black" stroke-linecap="square"/><line x1="117.0610236220472px" y1="90.88180723808254px" x2="117.0610236220472px" y2="104.2646692493769px" stroke="black" stroke-linecap="square"/><line x1="113.04606299212594px" y1="104.2646692493769px" x2="121.07598425196846px" y2="104.2646692493769px" stroke="black" stroke-linecap="square"/><line x1="113.04606299212594px" y1="32.45827733321757px" x2="121.07598425196846px" y2="32.45827733321757px" stroke="black" stroke-linecap="square"/><path d="M 149.180709 65.122631L 149.180709 40.041204L 165.240551 40.041204L 165.240551 65.122631z" stroke="none" fill="rgba(255, 192, 203, 0.99609375)" stroke-linecap="square"/><path d="M 149.180709 65.122631L 149.180709 84.213635L 165.240551 84.213635L 165.240551 65.122631z" stroke="none" fill="rgba(255, 192, 203, 0.99609375)" stroke-linecap="square"/><path d="M 149.180709 65.122631L 149.180709 40.041204L 165.240551 40.041204L 165.240551 65.122631" stroke="black" fill="none" stroke-linecap="square"/><path d="M 149.180709 65.122631L 149.180709 84.213635L 165.240551 84.213635L 165.240551 65.122631" stroke="black" fill="none" stroke-linecap="square"/><line x1="149.18070866141727px" y1="65.1226310251166px" x2="165.24055118110232px" y2="65.1226310251166px" stroke="black" stroke-linecap="square"/><line x1="157.2106299212598px" y1="40.04120436580507px" x2="157.2106299212598px" y2="31.99330801112288px" stroke="black" stroke-linecap="square"/><line x1="157.2106299212598px" y1="84.21363505113001px" x2="157.2106299212598px" y2="98.2519540391103px" stroke="black" stroke-linecap="square"/><line x1="153.19566929133853px" y1="98.2519540391103px" x2="161.22559055118106px" y2="98.2519540391103px" stroke="black" stroke-linecap="square"/><line x1="153.19566929133853px" y1="31.99330801112288px" x2="161.22559055118106px" y2="31.99330801112288px" stroke="black" stroke-linecap="square"/><path d="M 189.330315 65.742682L 189.330315 43.341334L 205.390157 43.341334L 205.390157 65.742682z" stroke="none" fill="rgba(255, 192, 203, 0.99609375)" stroke-linecap="square"/><path d="M 189.330315 65.742682L 189.330315 88.485804L 205.390157 88.485804L 205.390157 65.742682z" stroke="none" fill="rgba(255, 192, 203, 0.99609375)" stroke-linecap="square"/><path d="M 189.330315 65.742682L 189.330315 43.341334L 205.390157 43.341334L 205.390157 65.742682" stroke="black" fill="none" stroke-linecap="square"/><path d="M 189.330315 65.742682L 189.330315 88.485804L 205.390157 88.485804L 205.390157 65.742682" stroke="black" fill="none" stroke-linecap="square"/><line x1="189.33031496062986px" y1="65.74268214426438px" x2="205.3901574803149px" y2="65.74268214426438px" stroke="black" stroke-linecap="square"/><line x1="197.3602362204724px" y1="43.34133396433245px" x2="197.3602362204724px" y2="31.88432974786216px" stroke="black" stroke-linecap="square"/><line x1="197.3602362204724px" y1="88.48580382620207px" x2="197.3602362204724px" y2="99.60103454066659px" stroke="black" stroke-linecap="square"/><line x1="193.34527559055113px" y1="99.60103454066659px" x2="201.37519685039365px" y2="99.60103454066659px" stroke="black" stroke-linecap="square"/><line x1="193.34527559055113px" y1="31.88432974786216px" x2="201.37519685039365px" y2="31.88432974786216px" stroke="black" stroke-linecap="square"/><text id="47" x="2.25px" y="9.2340002059937px" fill="black" font-family="Ubuntu" font-weight="bold" font-size="9" text-anchor="start" alignment-baseline="baseline">A. Probability distribution</text><text id="48" x="135.0073267869123px" y="139.4822834645669px" fill="black" font-family="Ubuntu" font-weight="bold" font-size="9" text-anchor="start" alignment-baseline="baseline">ğœƒ</text><text id="49" x="2.25px" y="70.2801417666157px" fill="black" font-family="Ubuntu" font-weight="bold" font-size="9" text-anchor="start" alignment-baseline="baseline">P(ğœƒ)</text><line x1="49.75px" y1="22.2340002059937px" x2="49.75px" y2="111.35128342260529px" stroke="black" stroke-linecap="square"/><line x1="45.75px" y1="103.73668716328157px" x2="49.75px" y2="103.73668716328157px" stroke="black" stroke-linecap="square"/><line x1="45.75px" y1="89.933233932031px" x2="49.75px" y2="89.933233932031px" stroke="black" stroke-linecap="square"/><line x1="45.75px" y1="76.12978070078043px" x2="49.75px" y2="76.12978070078043px" stroke="black" stroke-linecap="square"/><line x1="45.75px" y1="62.32632746952986px" x2="49.75px" y2="62.32632746952986px" stroke="black" stroke-linecap="square"/><line x1="45.75px" y1="48.522874238279286px" x2="49.75px" y2="48.522874238279286px" stroke="black" stroke-linecap="square"/><line x1="45.75px" y1="34.71942100702873px" x2="49.75px" y2="34.71942100702873px" stroke="black" stroke-linecap="square"/><text id="58" x="25.2080001831055px" y="106.9271871842624px" fill="black" font-family="Ubuntu" font-weight="regular" font-size="9" text-anchor="start" alignment-baseline="baseline">0.10</text><text id="59" x="25.4150009155273px" y="93.1237339530119px" fill="black" font-family="Ubuntu" font-weight="regular" font-size="9" text-anchor="start" alignment-baseline="baseline">0.15</text><text id="60" x="25.2080001831055px" y="79.3202807217613px" fill="black" font-family="Ubuntu" font-weight="regular" font-size="9" text-anchor="start" alignment-baseline="baseline">0.20</text><text id="61" x="25.4150009155273px" y="65.5168274905107px" fill="black" font-family="Ubuntu" font-weight="regular" font-size="9" text-anchor="start" alignment-baseline="baseline">0.25</text><text id="62" x="25.2080001831055px" y="51.7133742592601px" fill="black" font-family="Ubuntu" font-weight="regular" font-size="9" text-anchor="start" alignment-baseline="baseline">0.30</text><text id="63" x="25.4150009155273px" y="37.9099210280096px" fill="black" font-family="Ubuntu" font-weight="regular" font-size="9" text-anchor="start" alignment-baseline="baseline">0.35</text><line x1="49.75px" y1="22.234000205993702px" x2="224.5216535433071px" y2="22.234000205993702px" stroke="black" stroke-linecap="square"/><line x1="224.5216535433071px" y1="22.2340002059937px" x2="224.5216535433071px" y2="111.35128342260529px" stroke="black" stroke-linecap="square"/><line x1="49.75px" y1="111.3512834226053px" x2="224.5216535433071px" y2="111.3512834226053px" stroke="black" stroke-linecap="square"/><line x1="76.91141732283461px" y1="111.3512834226053px" x2="76.91141732283461px" y2="115.3512834226053px" stroke="black" stroke-linecap="square"/><text id="71" x="72.7219174677931px" y="124.7322834645669px" fill="black" font-family="Ubuntu" font-weight="regular" font-size="9" text-anchor="start" alignment-baseline="baseline">C1</text><line x1="117.0610236220472px" y1="111.3512834226053px" x2="117.0610236220472px" y2="115.3512834226053px" stroke="black" stroke-linecap="square"/><text id="73" x="112.3270234160536px" y="124.7322834645669px" fill="black" font-family="Ubuntu" font-weight="regular" font-size="9" text-anchor="start" alignment-baseline="baseline">C2</text><line x1="157.2106299212598px" y1="111.3512834226053px" x2="157.2106299212598px" y2="115.3512834226053px" stroke="black" stroke-linecap="square"/><text id="75" x="152.4811301043653px" y="124.7322834645669px" fill="black" font-family="Ubuntu" font-weight="regular" font-size="9" text-anchor="start" alignment-baseline="baseline">C3</text><line x1="197.3602362204724px" y1="111.3512834226053px" x2="197.3602362204724px" y2="115.3512834226053px" stroke="black" stroke-linecap="square"/><text id="77" x="192.4822364379102px" y="124.7322834645669px" fill="black" font-family="Ubuntu" font-weight="regular" font-size="9" text-anchor="start" alignment-baseline="baseline">C4</text></svg>