<svg xmlns="http://www.w3.org/2000/svg" width="226.7716535433071pt" height="113.3858267716535pt" viewBox="0 0 226.7716535433071 113.3858267716535"><rect id="0" x="2.25px" y="2.25px" width="222.2716535433071px" height="108.8858267716535px" stroke="rgba(128, 128, 128, 0.99609375)" fill="rgba(255, 255, 255, 0.0)" stroke-width="0.5" stroke-dasharray="2 4"><title>Canvas [0] plot_area &#13;&#160;↳&#160;x = 2.25pt&#13;&#160;↳&#160;y = 2.25pt&#13;&#160;↳&#160;width = 222.27pt&#13;&#160;↳&#160;height = 108.89pt</title></rect><rect id="1" x="2.25px" y="2.25px" width="0.0px" height="12.9840002059937px" stroke="rgba(128, 128, 128, 0.99609375)" fill="rgba(255, 255, 255, 0.0)" stroke-width="0.5" stroke-dasharray="2 4"><title>Canvas [1] title_area &#13;&#160;↳&#160;x = 2.25pt&#13;&#160;↳&#160;y = 2.25pt&#13;&#160;↳&#160;width = 0.00pt&#13;&#160;↳&#160;height = 12.98pt</title></rect><rect id="2" x="29.2080001831055px" y="22.2340002059937px" width="195.3136533602016px" height="60.7708265236982px" stroke="rgba(128, 128, 128, 0.99609375)" fill="rgba(255, 255, 255, 0.0)" stroke-width="0.5" stroke-dasharray="2 4"><title>Canvas [2] data_area &#13;&#160;↳&#160;x = 29.21pt&#13;&#160;↳&#160;y = 22.23pt&#13;&#160;↳&#160;width = 195.31pt&#13;&#160;↳&#160;height = 60.77pt</title></rect><rect id="3" x="29.2080001831055px" y="15.2340002059937px" width="195.3136533602016px" height="7px" stroke="rgba(128, 128, 128, 0.99609375)" fill="rgba(255, 255, 255, 0.0)" stroke-width="0.5" stroke-dasharray="2 4"><title>Canvas [3] top_decorations_area &#13;&#160;↳&#160;x = 29.21pt&#13;&#160;↳&#160;y = 15.23pt&#13;&#160;↳&#160;width = 195.31pt&#13;&#160;↳&#160;height = 7.00pt</title></rect><rect id="4" x="224.5216535433071px" y="15.2340002059937px" width="0.0px" height="7px" stroke="rgba(128, 128, 128, 0.99609375)" fill="rgba(255, 255, 255, 0.0)" stroke-width="0.5" stroke-dasharray="2 4"><title>Canvas [4] top_right_decorations_area &#13;&#160;↳&#160;x = 224.52pt&#13;&#160;↳&#160;y = 15.23pt&#13;&#160;↳&#160;width = 0.00pt&#13;&#160;↳&#160;height = 7.00pt</title></rect><rect id="5" x="224.5216535433071px" y="22.2340002059937px" width="0.0px" height="60.7708265236982px" stroke="rgba(128, 128, 128, 0.99609375)" fill="rgba(255, 255, 255, 0.0)" stroke-width="0.5" stroke-dasharray="2 4"><title>Canvas [5] right_decorations_area &#13;&#160;↳&#160;x = 224.52pt&#13;&#160;↳&#160;y = 22.23pt&#13;&#160;↳&#160;width = 0.00pt&#13;&#160;↳&#160;height = 60.77pt</title></rect><rect id="6" x="224.5216535433071px" y="83.0048267296919px" width="0.0px" height="28.1310000419617px" stroke="rgba(128, 128, 128, 0.99609375)" fill="rgba(255, 255, 255, 0.0)" stroke-width="0.5" stroke-dasharray="2 4"><title>Canvas [6] bottom_right_decorations_area &#13;&#160;↳&#160;x = 224.52pt&#13;&#160;↳&#160;y = 83.00pt&#13;&#160;↳&#160;width = 0.00pt&#13;&#160;↳&#160;height = 28.13pt</title></rect><rect id="7" x="29.2080001831055px" y="83.0048267296919px" width="195.3136533602016px" height="28.1310000419617px" stroke="rgba(128, 128, 128, 0.99609375)" fill="rgba(255, 255, 255, 0.0)" stroke-width="0.5" stroke-dasharray="2 4"><title>Canvas [7] bottom_decorations_area &#13;&#160;↳&#160;x = 29.21pt&#13;&#160;↳&#160;y = 83.00pt&#13;&#160;↳&#160;width = 195.31pt&#13;&#160;↳&#160;height = 28.13pt</title></rect><rect id="8" x="2.25px" y="83.0048267296919px" width="26.9580001831055px" height="28.1310000419617px" stroke="rgba(128, 128, 128, 0.99609375)" fill="rgba(255, 255, 255, 0.0)" stroke-width="0.5" stroke-dasharray="2 4"><title>Canvas [8] bottom_left_decorations_area &#13;&#160;↳&#160;x = 2.25pt&#13;&#160;↳&#160;y = 83.00pt&#13;&#160;↳&#160;width = 26.96pt&#13;&#160;↳&#160;height = 28.13pt</title></rect><rect id="9" x="2.25px" y="22.2340002059937px" width="26.9580001831055px" height="60.7708265236982px" stroke="rgba(128, 128, 128, 0.99609375)" fill="rgba(255, 255, 255, 0.0)" stroke-width="0.5" stroke-dasharray="2 4"><title>Canvas [9] left_decorations_area &#13;&#160;↳&#160;x = 2.25pt&#13;&#160;↳&#160;y = 22.23pt&#13;&#160;↳&#160;width = 26.96pt&#13;&#160;↳&#160;height = 60.77pt</title></rect><rect id="10" x="2.25px" y="15.2340002059937px" width="26.9580001831055px" height="7px" stroke="rgba(128, 128, 128, 0.99609375)" fill="rgba(255, 255, 255, 0.0)" stroke-width="0.5" stroke-dasharray="2 4"><title>Canvas [10] top_left_decorations_area &#13;&#160;↳&#160;x = 2.25pt&#13;&#160;↳&#160;y = 15.23pt&#13;&#160;↳&#160;width = 26.96pt&#13;&#160;↳&#160;height = 7.00pt</title></rect><rect id="18" x="2.25px" y="22.2340002059937px" width="26.9580001831055px" height="60.7708265236982px" stroke="rgba(128, 128, 128, 0.99609375)" fill="rgba(255, 255, 255, 0.0)" stroke-width="0.5" stroke-dasharray="2 4"><title>Canvas [18] left_axis_canvas &#13;&#160;↳&#160;x = 2.25pt&#13;&#160;↳&#160;y = 22.23pt&#13;&#160;↳&#160;width = 26.96pt&#13;&#160;↳&#160;height = 60.77pt</title></rect><rect id="20" x="29.2080001831055px" y="15.2340002059937px" width="195.3136533602016px" height="7px" stroke="rgba(128, 128, 128, 0.99609375)" fill="rgba(255, 255, 255, 0.0)" stroke-width="0.5" stroke-dasharray="2 4"><title>Canvas [20] top_axis_canvas &#13;&#160;↳&#160;x = 29.21pt&#13;&#160;↳&#160;y = 15.23pt&#13;&#160;↳&#160;width = 195.31pt&#13;&#160;↳&#160;height = 7.00pt</title></rect><rect id="22" x="224.5216535433071px" y="22.2340002059937px" width="0.0px" height="60.7708265236982px" stroke="rgba(128, 128, 128, 0.99609375)" fill="rgba(255, 255, 255, 0.0)" stroke-width="0.5" stroke-dasharray="2 4"><title>Canvas [22] right_axis_canvas &#13;&#160;↳&#160;x = 224.52pt&#13;&#160;↳&#160;y = 22.23pt&#13;&#160;↳&#160;width = 0.00pt&#13;&#160;↳&#160;height = 60.77pt</title></rect><rect id="24" x="29.2080001831055px" y="83.0048267296919px" width="195.3136533602016px" height="28.1310000419617px" stroke="rgba(128, 128, 128, 0.99609375)" fill="rgba(255, 255, 255, 0.0)" stroke-width="0.5" stroke-dasharray="2 4"><title>Canvas [24] bottom_axis_canvas &#13;&#160;↳&#160;x = 29.21pt&#13;&#160;↳&#160;y = 83.00pt&#13;&#160;↳&#160;width = 195.31pt&#13;&#160;↳&#160;height = 28.13pt</title></rect><path d="M 42.66459034223358 68.55394700030791L 44.34622181002218 66.85059633076156L 45.187037543916496 65.96638162792014L 46.027853277810806 65.06837087106274L 46.868669011705094 64.16185861659959L 47.70948474559941 63.25133118289948L 48.55030047949373 62.34026182901198L 49.39111621338801 61.43096452482068L 50.23193194728232 60.52451648467731L 51.07274768117664 59.62075568667922L 51.913563415070925 58.71835528513819L 52.75437914896524 57.81497245059826L 53.595194882859516 56.907465037159994L 54.43601061675383 55.99216583338777L 55.27682635064815 55.065201177740676L 56.11764208454244 54.122838495781124L 56.958457818436756 53.16184583563141L 57.79927355233106 52.17984566191441L 58.64008928622535 51.17564490946745L 59.480905020119664 50.14952350964094L 60.32172075401398 49.10346426270158L 61.16253648790827 48.041308110806554L 62.00335222180259 46.968820728497974L 62.84416795569689 45.89365910795375L 63.68498368959118 44.82523068145375L 64.5257994234855 43.7744426113223L 65.36661515737978 42.75334513809362L 66.20743089127409 41.774680038014935L 67.0482466251684 40.8513527901369L 67.88906235906269 39.99585427602129L 68.72987809295701 39.21966389589767L 69.57069382685133 38.53267004881212L 70.41150956074561 37.942645294268544L 71.25232529463992 37.454811759838314L 72.09314102853423 37.071527415749784L 72.93395676242852 36.792116037300374L 73.77477249632284 36.61285372803848L 74.61558823021716 36.52711377570371L 75.45640396411144 36.52566050021555L 76.29721969800575 36.59707275187189L 77.13803543190006 36.728269772533366L 77.97885116579435 36.905106879195614L 78.81966689968867 37.113006122657325L 79.66048263358294 37.33758758039238L 80.50129836747726 37.56526979963479L 81.34211410137156 37.78381243361206L 82.18292983526588 37.98277955126977L 83.02374556916018 38.153907748179996L 83.86456130305449 38.291368511917966L 84.7053770369488 38.39191899816864L 85.54619277084309 38.454939389986194L 86.3870085047374 38.48235846869703L 87.22782423863171 38.478472156971264L 88.068639972526 38.44966285316569L 88.9094557064203 38.40403054133705L 89.7502714403146 38.35094998676833L 90.59108717420892 38.3005717205352L 91.43190290810323 38.26328775951513L 92.27271864199753 38.24918579887115L 93.11353437589185 38.26751762484332L 93.95435010978613 38.326208425244616L 94.79516584368044 38.43143328573567L 95.63598157757474 38.587285296870576L 96.47679731146906 38.79555629175293L 97.31761304536334 39.055646302148574L 98.15842877925765 39.364611460083175L 98.99924451315196 39.717352471160915L 99.84006024704627 40.106937241848755L 100.68087598094056 40.52504218057514L 101.52169171483486 40.96248767677093L 102.36250744872918 41.40983499025903L 103.20332318262348 41.85800504750888L 104.04413891651778 42.29887525699978L 104.88495465041208 42.72580916454869L 105.7257703843064 43.13407612438802L 106.56658611820069 43.52112441878067L 107.40740185209499 43.886681289935126L 108.24821758598931 44.23266659626962L 109.0890333198836 44.56292229434851L 109.9298490537779 44.882776348573735L 110.77066478767222 45.19847541997247L 111.61148052156652 45.51653414728453L 112.45229625546082 45.84305848240189L 113.29311198935513 46.183105146829334L 114.13392772324944 46.54013806156334L 114.97474345714373 46.915635370880025L 115.81555919103803 47.308887867474866L 116.65637492493235 47.71701229262467L 117.49719065882665 48.13518272982493L 118.33800639272094 48.557062118904255L 119.17882212661524 48.975395954938094L 120.01963786050956 49.38271361002555L 120.86045359440386 49.77207123599784L 121.70126932829817 50.137765170117106L 122.54208506219248 50.47594679897708L 123.38290079608677 50.78507880598703L 124.22371652998108 51.06618774909461L 125.06453226387539 51.32288744166783L 125.9053479977697 51.56116960749853L 126.74616373166398 51.78898046238254L 127.5869794655583 52.01562195791858L 128.42779519945262 52.251032391274435L 129.2686109333469 52.505011408188935L 130.10942666724122 52.78645822171373L 130.95024240113554 53.10268897434959L 131.79105813502983 53.458890133168154L 132.63187386892412 53.85775078503036L 133.47268960281843 54.299299299780714L 134.31350533671275 54.78095090611835L 135.15432107060704 55.29775416069005L 135.99513680450133 55.84280780094315L 136.83595253839565 56.407806445154606L 137.67676827228993 56.98366499566133L 138.51758400618425 57.56116789010369L 139.35839974007857 58.1315905300805L 140.19921547397286 58.68724586508695L 141.04003120786717 59.22191843276943L 141.88084694176146 59.73116009977542L 142.72166267565578 60.21243509193471L 143.5624784095501 60.66511537069698L 144.40329414344438 61.090339775803685L 145.24410987733867 61.490760537534214L 146.084925611233 61.870207943685045L 146.9257413451273 62.23330763933069L 147.76655707902162 62.58508514138413L 148.60737281291588 62.93058896411057L 149.4481885468102 63.27455793573914L 150.28900428070452 63.62115077047147L 151.1298200145988 63.97374781240498L 151.97063574849312 64.33482713636221L 152.8114514823874 64.70591074848515L 153.65226721628173 65.08757205002969L 154.49308295017605 65.4794932151375L 155.33389868407036 65.88056052265227L 156.17471441796465 66.28898651017418L 157.01553015185897 66.70244944998989L 157.85634588575329 67.11824242716334L 158.69716161964757 67.53342570514634L 159.5379773535419 67.94497680754344L 160.37879308743618 68.34993282520445L 161.2196088213305 68.74551913483421L 162.06042455522478 69.12925841878364L 162.90124028911907 69.49905407541742L 163.7420560230134 69.853243174964L 164.5828717569077 70.19061620152682L 165.423687490802 70.51040380613036L 166.2645032246963 70.81223428764179L 167.1053189585906 71.096068933795L 167.94613469248492 71.36212504073093L 168.78695042637924 71.61079781230171L 169.62776616027355 71.84259205820327L 170.46858189416784 72.05807260417706L 171.30939762806213 72.25783886884273L 172.15021336195645 72.44252470667736L 172.99102909585076 72.6128201033713L 173.83184482974508 72.76950741643601L 174.67266056363934 72.91350224993968L 175.51347629753366 73.04588817318974L 176.35429203142795 73.16793546418356L 177.19510776532226 73.28109667963159L 178.03592349921658 73.38697564634924L 178.8767392331109 73.48727077469378L 179.71755496700516 73.58369769775832L 180.55837070089947 73.6778994946834L 181.39918643479376 73.77135469244652L 182.24000216868808 73.86529362872604L 183.0808179025824 73.9606326291936L 183.92163363647668 74.05793306778165L 184.762449370371 74.15738916780599L 185.60326510426532 74.25884487835522L 186.4440808381596 74.36183683259135L 187.28489657205392 74.4656576904966L 188.1257123059482 74.56943238245827L 188.96652803984253 74.67219903749154L 189.80734377373685 74.77298668018811L 190.6481595076311 74.87088296156517L 191.48897524152542 74.96508700674926L 192.32979097541974 75.05494462594591L 193.17060670931406 75.13996535013224L 194.01142244320835 75.21982275770598L 194.85223817710266 75.29434114934807L 195.69305391099695 75.36347267427351L 196.53386964489127 75.4272694566662L 197.37468537878559 75.48585513300148L 198.21550111267987 75.53939956714791L 199.05631684657416 75.58809948571815L 199.89713258046848 75.63216652672013L 200.73794831436277 75.67182288854282L 201.57876404825709 75.7073035670587L 202.4195797821514 75.73886321759991L 203.2603955160457 75.76678508063635L 204.10121124994 75.79138922236473L 204.9420269838343 75.81303756765013L 205.7828427177286 75.83213379293161L 206.62365845162293 75.8491170043653L 207.4644741855172 75.86444912188898L 208.3052899194115 75.87859687805081L 209.14610565330582 75.8920101815352L 209.9869213872001 75.9050991745138L 210.82773712109443 75.9182125564635" stroke="rgba(255, 105, 180, 0.99609375)" fill="rgba(255, 255, 255, 0.0)" stroke-linecap="round"><title>LinearPath [11]  &#13;&#160;&#160;stroke: rgba(255, 105, 180, 0.99609375)&#13;&#160;&#160;fill: rgba(255, 255, 255, 0.0)&#13;</title></path><path d="M 40.11477316360501 71.8145425072029L 41.78118160214574 70.11283469493397L 42.61438582141609 69.11703039242752L 43.44759004068648 68.02656449431643L 44.28079425995683 66.84606293116634L 45.11399847922718 65.58273860994127L 45.94720269849756 64.24628561999674L 46.780406917767905 62.848626470025806L 47.61361113703826 61.40352066656635L 48.44681535630865 59.92605587760802L 49.28001957557899 58.43205447941365L 50.11322379484935 56.937436992600865L 50.94642801411973 55.457588603967636L 51.779632233390075 54.0067749557722L 52.61283645266043 52.597648575821225L 53.44604067193082 51.24087825598163L 54.27924489120116 49.94492145350628L 55.112449110471516 48.71594587763782L 55.94565332974189 47.557892508877686L 56.778857549012244 46.47266000850935L 57.6120617682826 45.460381174216536L 58.445265987552986 44.51975670972518L 59.27847020682333 43.64841048862458L 60.111674426093685 42.8432335269561L 60.94487864536407 42.10069034356087L 61.77808286463441 41.417070187264784L 62.61128708390477 40.788675405991654L 63.444491303175155 40.21194862026988L 64.2776955224455 39.683548057601286L 65.11089974171585 39.200385409223344L 65.94410396098623 38.75964231623158L 66.77730818025658 38.35878001723624L 67.61051239952694 37.99555226382229L 68.44371661879731 37.66802527631759L 69.27692083806767 37.37460155568036L 70.11012505733802 37.114038215807696L 70.94332927660841 36.885446485439346L 71.77653349587875 36.688258140077664L 72.60973771514911 36.5221473070757L 73.44294193441948 36.386902122157636L 74.27614615368984 36.28224921742262L 75.1093503729602 36.207643563065574L 75.94255459223055 36.16204504066198L 76.77575881150092 36.14370958016417L 77.60896303077128 36.15002536920529L 78.44216725004165 36.17742277615697L 79.275371469312 36.22138022363715L 80.10857568858236 36.27653809824214L 80.94177990785272 36.336920324171786L 81.77498412712309 36.39625028905933L 82.60818834639345 36.44833627448028L 83.44139256566382 36.48749302795706L 84.27459678493418 36.5089617062723L 85.10780100420453 36.509290536274676L 85.94100522347489 36.48664290868332L 86.77420944274526 36.4410073984763L 87.6074136620156 36.3742941720583L 88.44061788128599 36.290313033269L 89.27382210055633 36.19463868850237L 90.1070263198267 36.094377623800504L 90.94023053909706 35.99785755793142L 91.77343475836742 35.91426438359381L 92.60663897763779 35.85325276292833L 93.43984319690814 35.824555283982434L 94.2730474161785 35.83761168421739L 95.10625163544887 35.90123462399172L 95.93945585471924 36.02332248004292L 96.77266007398958 36.2106233458353L 97.60586429325996 36.46854863910205L 98.43906851253031 36.80103017682442L 99.27227273180067 37.210411924826886L 100.10547695107103 37.69736728456995L 100.9386811703414 38.26083484109962L 101.77188538961175 38.897969666955746L 102.60508960888211 39.60411285836375L 103.43829382815248 40.37278794156894L 104.27149804742284 41.195737913855524L 105.10470226669321 42.06301978105017L 105.93790648596357 42.963173571036066L 106.77111070523392 43.88347943379108L 107.60431492450428 44.8103096475581L 108.43751914377465 45.729572804167034L 109.270723363045 46.627236330407754L 110.10392758231538 47.48990234359604L 110.93713180158574 48.30540226162425L 111.77033602085609 49.063369048600364L 112.60354024012645 49.755743536808865L 113.4367444593968 50.3771734269815L 114.26994867866718 50.925270214574454L 115.10315289793753 51.40069972190106L 115.93635711720789 51.80709498162284L 116.76956133647825 52.15079449109717L 117.60276555574863 52.440422845103214L 118.43596977501898 52.68634308125888L 119.26917399428935 52.900019628871306L 120.1023782135597 53.09333678686063L 120.93558243283006 53.27791981188629L 121.76878665210042 53.46450399666152L 122.60199087137079 53.66239191714678L 123.43519509064114 53.87903094889572L 124.26839930991152 54.119733010512945L 125.10160352918187 54.38754721044822L 125.93480774845223 54.68328460954392L 126.7680119677226 55.005683579923016L 127.60121618699296 55.35169504036378L 128.4344204062633 55.71685980232013L 129.26762462553367 56.09574577049551L 130.10082884480406 56.482410964419884L 130.9340330640744 56.87085918045284L 131.76723728334477 57.255458306653566L 132.60044150261513 57.63129638967419L 133.43364572188548 57.99445699300786L 134.26684994115587 58.342202605461196L 135.10005416042623 58.673062297379346L 135.93325837969655 58.98682696372815L 136.76646259896694 59.284461879360265L 137.59966681823732 59.56795152678551L 138.43287103750765 59.840095411714145L 139.266075256778 60.104275608026214L 140.0992794760484 60.36421692877191L 140.93248369531875 60.62375889999936L 141.7656879145891 60.88665528828463L 142.59889213385947 61.15641215860238L 143.43209635312982 61.436169852519086L 144.2653005724002 61.72862854494727L 145.09850479167056 62.03601187874028L 145.9317090109409 62.36005925478541L 146.76491323021128 62.702035174404486L 147.59811744948163 63.06274384371869L 148.431321668752 63.442539007966786L 149.26452588802235 63.841322339117696L 150.09773010729273 64.25852805836138L 150.9309343265631 64.69309609517354L 151.76413854583345 65.14344020292279L 152.5973427651038 65.60742040678004L 153.43054698437416 66.08233049918731L 154.26375120364452 66.56491083798528L 155.0969554229149 67.05139454379339L 155.93015964218526 67.53759168812074L 156.7633638614556 68.0190117415563L 157.596568080726 68.49102002518562L 158.42977229999633 68.94901977660871L 159.2629765192667 69.38864820464681L 160.09618073853707 69.80597290762141L 160.92938495780743 70.19767442982908L 161.76258917707779 70.56120151213352L 162.59579339634814 70.89488758879828L 163.42899761561853 71.19802002171568L 164.26220183488886 71.47085711602888L 165.09540605415924 71.71459178600371L 165.9286102734296 71.93126451639962L 166.76181449269995 72.12363171497513L 167.5950187119703 72.29499845181111L 168.4282229312407 72.44902676190732L 169.26142715051105 72.58953203381195L 170.0946313697814 72.7202804557046L 170.92783558905177 72.84480003061412L 171.76103980832212 72.96621634861968L 172.59424402759248 73.08712221838618L 173.42744824686287 73.20948757416376L 174.26065246613322 73.3346130013621L 175.0938566854036 73.46312701722809L 175.92706090467394 73.59502417342703L 176.7602651239443 73.72973837356123L 177.59346934321465 73.86624373799856L 178.42667356248504 74.00317404870819L 179.25987778175536 74.13895132829508L 180.09308200102575 74.27191441716226L 180.92628622029613 74.40043939388568L 181.75949043956646 74.52304515817659L 182.59269465883682 74.6384792548147L 183.42589887810718 74.74578085610202L 184.25910309737756 74.84431956885052L 185.09230731664795 74.93381027246893L 185.92551153591828 75.0143054705149L 186.75871575518863 75.08616764583707L 187.591919974459 75.15002488191186L 188.42512419372937 75.20671359596837L 189.2583284129997 75.25721265940379L 190.0915326322701 75.30257346879227L 190.92473685154044 75.3438506561441L 191.7579410708108 75.38203804389005L 192.59114529008116 75.41801410181715L 193.42434950935154 75.4525005039659L 194.25755372862187 75.48603639943708L 195.09075794789226 75.51896973650075L 195.9239621671626 75.55146550357505L 196.75716638643297 75.58352921241264L 197.59037060570333 75.61504251989196L 198.4235748249737 75.64580674407541L 199.25677904424407 75.67558933412158L 200.0899832635144 75.70416820812034L 200.92318748278478 75.73136931234369L 201.75639170205514 75.75709373304169L 202.5895959213255 75.78133208387561L 203.42280014059588 75.80416551446754L 204.2560043598662 75.82575432193653L 205.0892085791366 75.84631658187391L 205.92241279840695 75.86610026572704L 206.7556170176773 75.88535285637303" stroke="rgba(148, 0, 211, 0.99609375)" fill="rgba(255, 255, 255, 0.0)" stroke-linecap="round"><title>LinearPath [12]  &#13;&#160;&#160;stroke: rgba(148, 0, 211, 0.99609375)&#13;&#160;&#160;fill: rgba(255, 255, 255, 0.0)&#13;</title></path><path d="M 37.06464025366958 73.82787763598758L 38.68740437685989 73.11262770596122L 39.498786438455014 72.7092469533334L 40.31016850005017 72.27583837710094L 41.12155056164533 71.8131418319251L 41.932932623240454 71.32213734476822L 42.74431468483561 70.80396253114672L 43.55569674643076 70.25980943823672L 44.36707880802592 69.6908064764667L 45.17846086962108 69.0978938245089L 45.9898429312162 68.4817030828165L 46.801224992811356 67.8424536506441L 47.61260705440651 67.17987896663801L 48.423989116001636 66.493195096842L 49.23537117759679 65.78112199234538L 50.04675323919194 65.04196403262141L 50.858135300787104 64.27375135919314L 51.66951736238226 63.47443732495444L 52.48089942397739 62.64214067155065L 53.292281485572545 61.7754145046931L 54.1036635471677 60.87351858162326L 54.915045608762824 59.93666769810585L 55.72642767035798 58.96622782045587L 56.53780973195313 57.96483359794067L 57.349191793548286 56.936406231627814L 58.16057385514344 55.88605916784326L 58.971955916738565 54.81989006724966L 59.78333797833372 53.74466987638817L 60.59472003992887 52.66745216117023L 61.406102101524 51.5951365460175L 62.21748416311917 50.53402758572268L 63.02886622471432 49.48943342315583L 63.840248286309475 48.46534641867103L 64.65163034790463 47.46424052503224L 65.46301240949975 46.48700822556137L 66.27439447109491 45.53304475482459L 67.08577653269006 44.60047101128405L 67.89715859428519 43.68647123620285L 68.70854065588034 42.78770928010613L 69.5199227174755 41.90077979569844L 70.33130477907065 41.02264896823809L 71.1426868406658 40.15104352370117L 71.95406890226094 39.28475593255578L 72.7654509638561 38.42384635924904L 73.57683302545125 37.56973588522665L 74.38821508704639 36.725198595791284L 75.19959714864153 35.8942702528742L 76.01097921023668 35.08209706204202L 76.82236127183184 34.29474891597083L 77.63374333342698 33.539017829975414L 78.44512539502212 32.82221530269223L 79.25650745661727 32.15197386593843L 80.06788951821244 31.53605020013359L 80.87927157980758 30.982121777626503L 81.69065364140272 30.497567387949637L 82.50203570299787 30.089224590067378L 83.31341776459303 29.7631236655329L 84.12479982618817 29.524206668010933L 84.9361818877833 29.376049700796095L 85.74756394937846 29.320614379222L 86.55894601097361 29.358058525160146L 87.37032807256877 29.486635099849902L 88.1817101341639 29.702701759354813L 88.99309219575906 30.000851855333494L 89.80447425735422 30.374162869319683L 90.61585631894935 30.814542582344597L 91.4272383805445 31.31313948663055L 92.23862044213965 31.860774593517903L 93.0500025037348 32.44834874334142L 93.86138456532994 33.067183568011615L 94.67276662692508 33.70926492483231L 95.48414868852025 34.36737322954191L 96.2955307501154 35.03510306031433L 97.10691281171054 35.706791615769475L 97.91829487330568 36.37738912420717L 98.72967693490082 37.04231180178483L 99.54105899649599 37.697318200452074L 100.35244105809113 38.33844282134872L 101.16382311968627 38.96200801389293L 101.97520518128142 39.56471876138946L 102.78658724287658 40.143827866233025L 103.59796930447172 40.697344227195345L 104.40935136606686 41.224246808581185L 105.22073342766201 41.72466311752717L 106.03211548925717 42.19997400769366L 106.8434975508523 42.65281576874919L 107.65487961244746 43.086964150109296L 108.46626167404261 43.50710099188014L 109.27764373563777 43.91848006086502L 110.0890257972329 44.32652225335014L 110.90040785882805 44.73637976757253L 111.7117899204232 45.152513116082375L 112.52317198201835 45.57832367706844L 113.3345540436135 46.01587834548391L 114.14593610520863 46.465752796842395L 114.95731816680379 46.927007352129706L 115.76870022839894 47.39729601176002L 116.5800822899941 47.87309642563332L 117.39146435158922 48.35003766767555L 118.20284641318437 48.82329462460417L 119.01422847477954 49.28801313169919L 119.82561053637468 49.7397288411113L 120.63699259796982 50.17474499019271L 121.44837465956498 50.590439272468345L 122.25975672116013 50.98547723695624L 123.07113878275527 51.359918284817425L 123.88252084435041 51.71520960253687L 124.69390290594556 52.0540725109246L 125.50528496754073 52.38029404248044L 126.31666702913586 52.69844351825702L 127.128049090731 53.013539037194704L 127.93943115232616 53.3306918098249L 128.7508132139213 53.65475700179415L 129.56219527551647 53.990018189584916L 130.3735773371116 54.339928817545925L 131.18495939870675 54.706928488415286L 131.99634146030192 55.09234497873199L 132.80772352189706 55.496385138262795L 133.6191055834922 55.91820999552287L 134.43048764508737 56.356082174835166L 135.2418697066825 56.80756782751787L 136.05325176827765 57.26977127489319L 136.8646338298728 57.739578854336685L 137.67601589146796 58.21388920823327L 138.4873979530631 58.68981033793523L 139.29878001465823 59.16480876059575L 140.11016207625337 59.63680241603056L 140.92154413784854 60.10419576918743L 141.73292619944368 60.56586197816185L 142.54430826103885 61.021082247121726L 143.35569032263396 61.469455938325325L 144.16707238422913 61.91079633548496L 144.97845444582427 62.345026122845496L 145.78983650741944 62.772083996041374L 146.60121856901458 63.19184995644993L 147.41260063060972 63.60409253679484L 148.22398269220488 64.00843727016009L 149.0353647538 64.4043528378631L 149.84674681539516 64.79114995786256L 150.65812887699033 65.16798831928912L 151.46951093858547 65.5338884970632L 152.2808930001806 65.88774826324983L 153.09227506177575 66.22836533372464L 153.90365712337092 66.55447060116106L 154.71503918496606 66.86477668585965L 155.5264212465612 67.15804582410108L 156.33780330815634 67.43317869413464L 157.14918536975148 67.68932209507423L 157.96056743134667 67.92598908359464L 158.77194949294181 68.14318105284435L 159.58333155453695 68.34149814079603L 160.39471361613212 68.52222297084852L 161.20609567772726 68.68736346802199L 162.0174777393224 68.83964341506186L 162.82885980091754 68.98243420214652L 163.64024186251268 69.11962725931592L 164.45162392410788 69.25545312111534L 165.26300598570302 69.3942590805174L 166.07438804729813 69.54026215353322L 166.8857701088933 69.69729701322944L 167.69715217048844 69.86857935949861L 168.50853423208358 70.05650386826491L 169.31991629367874 70.26249268141729L 170.13129835527388 70.486905828078L 170.94268041686902 70.72901958944449L 171.7540624784642 70.98707322996913L 172.56544454005933 71.2583792518389L 173.37682660165447 71.53948780899678L 174.18820866324964 71.82639242735617L 174.99959072484478 72.11476187387122L 175.81097278643992 72.40018194260946L 176.6223548480351 72.67839104183457L 177.43373690963023 72.94549467525364L 178.2451189712254 73.19814607438195L 179.0565010328205 73.43368318388886L 179.86788309441567 73.65021571908204L 180.6792651560108 73.84665985883572L 181.49064721760595 74.02272202915512L 182.3020292792011 74.17883687206302L 183.11341134079626 74.31606758380904L 183.9247934023914 74.43597908189636L 184.73617546398657 74.5404957273865L 185.5475575255817 74.63175549207459L 186.35893958717685 74.71197154252388L 187.170321648772 74.78331035847738L 187.98170371036713 74.84779296027648L 188.7930857719623 74.90722290885823L 189.60446783355744 74.96314181064392L 190.4158498951526 75.0168104360638L 191.22723195674774 75.06921150899919L 192.03861401834288 75.12106891409915L 192.84999607993805 75.17287755763435L 193.6613781415332 75.22493835395291L 194.4727602031283 75.27739365109638L 195.28414226472347 75.33025965156855L 196.0955243263186 75.38345379767308L 196.90690638791378 75.4368164550357L 197.71828844950895 75.49012736236236L 198.52967051110406 75.54311809971068L 199.34105257269923 75.59548221021258" stroke="rgba(0, 0, 205, 0.99609375)" fill="rgba(255, 255, 255, 0.0)" stroke-linecap="round"><title>LinearPath [13]  &#13;&#160;&#160;stroke: rgba(0, 0, 205, 0.99609375)&#13;&#160;&#160;fill: rgba(255, 255, 255, 0.0)&#13;</title></path><path d="M 36.2946143563338 73.10143941499175L 38.10601860647125 71.99227473285906L 39.01172073153997 71.36070329897926L 39.91742285660871 70.68036925216555L 40.823124981677424 69.95393070180221L 41.72882710674616 69.18437535778929L 42.634529231814874 68.37478040613964L 43.54023135688359 67.52807871871366L 44.44593348195232 66.64685601288255L 45.35163560702104 65.73320120272929L 46.25733773208978 64.78862733381379L 47.163039857158495 63.81407372951166L 48.06874198222724 62.80999205969401L 48.97444410729595 61.77651081968355L 49.880146232364666 60.71366500594324L 50.7858483574334 59.621671316890215L 51.69155048250211 58.5012245547303L 52.59725260757085 57.353788430723085L 53.502954732639566 56.18185385581984L 54.40865685770828 54.98914000506207L 55.31435898277702 53.78071775704956L 56.22006110784574 52.563041128723924L 57.12576323291448 51.34387949934265L 58.03146535798318 50.13215109301305L 58.93716748305192 48.937665682361825L 59.84286960812064 47.77079115427726L 60.74857173318935 46.64206394117879L 61.654273858258094 45.56176705619916L 62.55997598332681 44.539501474144586L 63.46567810839555 43.58377694862182L 64.37138023346427 42.70164723864791L 65.27708235853298 41.898412349866945L 66.18278448360172 41.17740693622217L 67.08848660867042 40.5398895203906L 67.99418873373916 39.98504165496975L 68.89989085880788 39.51007953085481L 69.80559298387662 39.11047292001868L 70.71129510894534 38.780258022195724L 71.61699723401405 38.51242239073042L 72.5226993590828 38.29933258934476L 73.42840148415151 38.133169755398136L 74.33410360922025 38.00633602158621L 75.23980573428896 37.91179673685894L 76.14550785935766 37.84333005461922L 77.05120998442641 37.795666386031144L 77.95691210949512 37.76451425569416L 78.86261423456386 37.746484285015526L 79.76831635963258 37.73893691872506L 80.67401848470129 37.73978960831151L 81.57972060977004 37.74732344284069L 82.48542273483874 37.76002657825299L 83.39112485990749 37.77650241901932L 84.2968269849762 37.79545583536122L 85.20252911004494 37.815753358551895L 86.10823123511365 37.83653654726974L 87.01393336018236 37.85735485161466L 87.9196354852511 37.8782779796075L 88.82533761031982 37.89994947143621L 89.73103973538855 37.92355287977825L 90.63674186045726 37.95067807952687L 91.542443985526 37.983094975305235L 92.44814611059473 38.02246169896345L 93.35384823566345 38.07001067394863L 94.25955036073216 38.1262656263304L 95.16525248580089 38.190843802417874L 96.07095461086962 38.2623897831549L 96.97665673593835 38.338671308961366L 97.88235886100708 38.41684567065913L 98.7880609860758 38.493880609787425L 99.6937631111445 38.56708984018735L 100.59946523621323 38.6347236737285L 101.50516736128196 38.69654264153577L 102.41086948635069 38.75429833168357L 103.31657161141942 38.81205162519787L 104.22227373648813 38.87627357532118L 105.12797586155686 38.955696657977995L 106.03367798662559 39.06091140678272L 106.9393801116943 39.20373230300355L 107.84508223676303 39.39638376467542L 108.75078436183176 39.650578905212285L 109.65648648690048 39.976577733104875L 110.5621886119692 40.382315883620606L 111.46789073703793 40.87268920375429L 112.37359286210666 41.44906418895329L 113.27929498717539 42.10906121131026L 114.18499711224412 42.84662946340316L 115.09069923731283 43.652402956978435L 115.99640136238155 44.514299307224064L 116.90210348745028 45.41830062392759L 117.807805612519 46.349341075824384L 118.71350773758773 47.29221995068063L 119.61920986265646 48.23246239820703L 120.52491198772518 49.15706139508279L 121.43061411279389 50.05505171252376L 122.33631623786263 50.91788711380934L 123.24201836293136 51.7396128643405L 124.14772048800008 52.51684444030671L 125.0534226130688 53.24857829650472L 125.95912473813752 53.93587077727524L 126.86482686320625 54.581426639881144L 127.77052898827498 55.18913976696051L 128.6762311133437 55.76362639184032L 129.58193323841243 56.30978652031739L 130.48763536348116 56.832423000468665L 131.3933374885499 57.33594038139053L 132.29903961361862 57.82413758037471L 133.20474173868732 58.30009961531819L 134.11044386375605 58.7661845171495L 135.01614598882477 59.224092526436664L 135.92184811389347 59.67499661296344L 136.8275502389622 60.11970727351999L 137.73325236403096 60.55884151716808L 138.6389544890997 60.99296673990453L 139.54465661416842 61.42269510417671L 140.45035873923715 61.84871266359069L 141.35606086430585 62.27173868685949L 142.26176298937457 62.692422752150904L 143.1674651144433 63.11119825021865L 144.073167239512 63.52811910441034L 144.97886936458073 63.94271041004903L 145.8845714896495 64.35386267595807L 146.7902736147182 64.7597936303251L 147.69597573978692 65.15809213323337L 148.60167786485565 65.54584719046677L 149.50737998992437 65.91985321375829L 150.4130821149931 66.27687226608832L 151.31878424006183 66.61392644589205L 152.22448636513053 66.92858963474193L 153.13018849019926 67.21924779326604L 154.035890615268 67.48530053346659L 154.94159274033672 67.72728311254951L 155.84729486540544 67.94689633877668L 156.75299699047414 68.14694112996966L 157.6586991155429 68.33116363651834L 158.56440124061163 68.5040250633733L 159.47010336568036 68.67041688254393L 160.3758054907491 68.83534647722814L 161.2815076158178 69.00362005712368L 162.18720974088654 69.17954881661525L 163.09291186595524 69.36670091876186L 163.99861399102397 69.5677164003623L 164.9043161160927 69.78419518618273L 165.81001824116143 70.01666094162508L 166.71572036623016 70.26459642152683L 167.6214224912989 70.5265401487697L 168.52712461636762 70.80023031206387L 169.43282674143632 71.08277999835698L 170.33852886650504 71.37086817573278L 171.24423099157377 71.66093277283576L 172.1499331166425 71.94935508343902L 173.05563524171123 72.23262781574569L 173.96133736677996 72.50750176971009L 174.86703949184866 72.7711079743007L 175.77274161691741 73.02105307945386L 176.67844374198611 73.25548610361012L 177.58414586705484 73.47313472015603L 178.48984799212357 73.6733096149426L 179.39555011719227 73.85587645309141L 180.30125224226103 74.02119682367885L 181.20695436732976 74.17004206907306L 182.1126564923985 74.30348676953359L 183.0183586174672 74.42279128467638L 183.92406074253594 74.52928455245078L 184.82976286760464 74.6242588205864L 185.73546499267337 74.7088868706239L 186.6411671177421 74.78416962363698L 187.5468692428108 74.85091812228875L 188.45257136787956 74.90976933635491L 189.35827349294826 74.96123073687266L 190.263975618017 75.00574482301721L 191.1696777430857 75.04376233277218L 192.07537986815444 75.07581206759954L 192.98108199322317 75.10255618514853L 193.8867841182919 75.12482226571454L 194.79248624336063 75.14360701943704L 195.69818836842933 75.16005061329366L 196.60389049349806 75.1753846568483L 197.50959261856678 75.19086034070023L 198.41529474363549 75.2076656463494L 199.32099686870424 75.2268416925684L 200.22669899377297 75.24920809796284L 201.13240111884167 75.27530585032756L 202.03810324391043 75.30536385205812L 202.94380536897913 75.33929241796226L 203.84950749404786 75.37670392821532L 204.75520961911658 75.4169579516586L 205.6609117441853 75.45922575389041L 206.566613869254 75.50256740020656L 207.47231599432274 75.54601376563704L 208.3780181193915 75.58864568993626L 209.2837202444602 75.62966320286506L 210.18942236952896 75.66843907310465L 211.09512449459766 75.7045527393927L 212.00082661966638 75.7378027747806L 212.9065287447351 75.76819820958569L 213.8122308698038 75.79593108822068L 214.71793299487254 75.82133436295132L 215.62363511994127 75.84483046440532L 216.52933724501003 75.86687651123515L 217.43503937007873 75.88791207122463" stroke="rgba(139, 0, 0, 0.99609375)" fill="rgba(255, 255, 255, 0.0)" stroke-linecap="round"><title>LinearPath [14]  &#13;&#160;&#160;stroke: rgba(139, 0, 0, 0.99609375)&#13;&#160;&#160;fill: rgba(255, 255, 255, 0.0)&#13;</title></path><text id="15" x="2.25px" y="9.2340002059937px" fill="black" font-family="Ubuntu" font-weight="bold" font-size="9" text-anchor="start" alignment-baseline="baseline"><title>Text [15] plot_title &#13;&#160;↳&#160;x = 2.25pt&#13;&#160;↳&#160;y = 9.23pt&#13;&#160;↳&#160;width = 111.38pt&#13;&#160;↳&#160;height = 6.98pt&#13;&#160;↳&#160;depth = 0.00pt&#13;&#13;&#160;&#160;font: Ubuntu&#13;&#160;&#160;font-weight: bold&#13;&#160;&#160;font-size: 9&#13;</title>A. Probability distribution</text><text id="16" x="124.7363268784651px" y="111.1358267716535px" fill="black" font-family="Ubuntu" font-weight="bold" font-size="9" text-anchor="start" alignment-baseline="baseline"><title>Text [16]  &#13;&#160;↳&#160;x = 124.74pt&#13;&#160;↳&#160;y = 111.14pt&#13;&#160;↳&#160;width = 4.26pt&#13;&#160;↳&#160;height = 6.75pt&#13;&#160;↳&#160;depth = 0.00pt&#13;&#13;&#160;&#160;font: Ubuntu&#13;&#160;&#160;font-weight: bold&#13;&#160;&#160;font-size: 9&#13;</title>𝜃</text><text id="17" x="2.25px" y="56.106913420159px" fill="black" font-family="Ubuntu" font-weight="bold" font-size="9" text-anchor="start" alignment-baseline="baseline"><title>Text [17]  &#13;&#160;↳&#160;x = 2.25pt&#13;&#160;↳&#160;y = 56.11pt&#13;&#160;↳&#160;width = 14.96pt&#13;&#160;↳&#160;height = 6.97pt&#13;&#160;↳&#160;depth = 0.00pt&#13;&#13;&#160;&#160;font: Ubuntu&#13;&#160;&#160;font-weight: bold&#13;&#160;&#160;font-size: 9&#13;</title>P(𝜃)</text><line x1="29.2080001831055px" y1="22.2340002059937px" x2="29.2080001831055px" y2="83.0048267296919px" stroke="black" stroke-linecap="square"><title>Line [19] left_axis &#13;&#160;↳&#160;x1 = 29.21pt&#13;&#160;↳&#160;y1 = 22.23pt&#13;&#160;↳&#160;x2 = 29.21pt&#13;&#160;↳&#160;y2 = 83.00pt&#13;&#13;</title></line><line x1="29.2080001831055px" y1="22.234000205993702px" x2="224.5216535433071px" y2="22.234000205993702px" stroke="black" stroke-linecap="square"><title>Line [21] top_axis &#13;&#160;↳&#160;x1 = 29.21pt&#13;&#160;↳&#160;y1 = 22.23pt&#13;&#160;↳&#160;x2 = 224.52pt&#13;&#160;↳&#160;y2 = 22.23pt&#13;&#13;</title></line><line x1="224.5216535433071px" y1="22.2340002059937px" x2="224.5216535433071px" y2="83.0048267296919px" stroke="black" stroke-linecap="square"><title>Line [23] right_axis &#13;&#160;↳&#160;x1 = 224.52pt&#13;&#160;↳&#160;y1 = 22.23pt&#13;&#160;↳&#160;x2 = 224.52pt&#13;&#160;↳&#160;y2 = 83.00pt&#13;&#13;</title></line><line x1="29.2080001831055px" y1="83.0048267296919px" x2="224.5216535433071px" y2="83.0048267296919px" stroke="black" stroke-linecap="square"><title>Line [25] bottom_axis &#13;&#160;↳&#160;x1 = 29.21pt&#13;&#160;↳&#160;y1 = 83.00pt&#13;&#160;↳&#160;x2 = 224.52pt&#13;&#160;↳&#160;y2 = 83.00pt&#13;&#13;</title></line><line x1="59.05595711421505px" y1="83.0048267296919px" x2="59.05595711421505px" y2="87.0048267296919px" stroke="black" stroke-linecap="square"><title>Line [26] bottom_axis_tick &#13;&#160;↳&#160;x1 = 59.06pt&#13;&#160;↳&#160;y1 = 83.00pt&#13;&#160;↳&#160;x2 = 59.06pt&#13;&#160;↳&#160;y2 = 87.00pt&#13;&#13;</title></line><text id="27" x="53.97545698833px" y="96.3858267716535px" fill="black" font-family="Ubuntu" font-weight="regular" font-size="9" text-anchor="start" alignment-baseline="baseline"><title>Text [27]  &#13;&#160;↳&#160;x = 53.98pt&#13;&#160;↳&#160;y = 96.39pt&#13;&#160;↳&#160;width = 10.16pt&#13;&#160;↳&#160;height = 6.38pt&#13;&#160;↳&#160;depth = 0.00pt&#13;&#13;&#160;&#160;font: Ubuntu&#13;&#160;&#160;font-weight: regular&#13;&#160;&#160;font-size: 9&#13;</title>0.1</text><line x1="85.00459729402219px" y1="83.0048267296919px" x2="85.00459729402219px" y2="87.0048267296919px" stroke="black" stroke-linecap="square"><title>Line [28] bottom_axis_tick &#13;&#160;↳&#160;x1 = 85.00pt&#13;&#160;↳&#160;y1 = 83.00pt&#13;&#160;↳&#160;x2 = 85.00pt&#13;&#160;↳&#160;y2 = 87.00pt&#13;&#13;</title></line><text id="29" x="79.3795972940222px" y="96.3858267716535px" fill="black" font-family="Ubuntu" font-weight="regular" font-size="9" text-anchor="start" alignment-baseline="baseline"><title>Text [29]  &#13;&#160;↳&#160;x = 79.38pt&#13;&#160;↳&#160;y = 96.39pt&#13;&#160;↳&#160;width = 11.25pt&#13;&#160;↳&#160;height = 6.38pt&#13;&#160;↳&#160;depth = 0.00pt&#13;&#13;&#160;&#160;font: Ubuntu&#13;&#160;&#160;font-weight: regular&#13;&#160;&#160;font-size: 9&#13;</title>0.2</text><line x1="110.95323747382933px" y1="83.0048267296919px" x2="110.95323747382933px" y2="87.0048267296919px" stroke="black" stroke-linecap="square"><title>Line [30] bottom_axis_tick &#13;&#160;↳&#160;x1 = 110.95pt&#13;&#160;↳&#160;y1 = 83.00pt&#13;&#160;↳&#160;x2 = 110.95pt&#13;&#160;↳&#160;y2 = 87.00pt&#13;&#13;</title></line><text id="31" x="105.3327373860913px" y="96.3858267716535px" fill="black" font-family="Ubuntu" font-weight="regular" font-size="9" text-anchor="start" alignment-baseline="baseline"><title>Text [31]  &#13;&#160;↳&#160;x = 105.33pt&#13;&#160;↳&#160;y = 96.39pt&#13;&#160;↳&#160;width = 11.24pt&#13;&#160;↳&#160;height = 6.38pt&#13;&#160;↳&#160;depth = 0.00pt&#13;&#13;&#160;&#160;font: Ubuntu&#13;&#160;&#160;font-weight: regular&#13;&#160;&#160;font-size: 9&#13;</title>0.3</text><line x1="136.90187765363646px" y1="83.0048267296919px" x2="136.90187765363646px" y2="87.0048267296919px" stroke="black" stroke-linecap="square"><title>Line [32] bottom_axis_tick &#13;&#160;↳&#160;x1 = 136.90pt&#13;&#160;↳&#160;y1 = 83.00pt&#13;&#160;↳&#160;x2 = 136.90pt&#13;&#160;↳&#160;y2 = 87.00pt&#13;&#13;</title></line><text id="33" x="131.1328776002307px" y="96.3858267716535px" fill="black" font-family="Ubuntu" font-weight="regular" font-size="9" text-anchor="start" alignment-baseline="baseline"><title>Text [33]  &#13;&#160;↳&#160;x = 131.13pt&#13;&#160;↳&#160;y = 96.39pt&#13;&#160;↳&#160;width = 11.54pt&#13;&#160;↳&#160;height = 6.38pt&#13;&#160;↳&#160;depth = 0.00pt&#13;&#13;&#160;&#160;font: Ubuntu&#13;&#160;&#160;font-weight: regular&#13;&#160;&#160;font-size: 9&#13;</title>0.4</text><line x1="162.85051783344363px" y1="83.0048267296919px" x2="162.85051783344363px" y2="87.0048267296919px" stroke="black" stroke-linecap="square"><title>Line [34] bottom_axis_tick &#13;&#160;↳&#160;x1 = 162.85pt&#13;&#160;↳&#160;y1 = 83.00pt&#13;&#160;↳&#160;x2 = 162.85pt&#13;&#160;↳&#160;y2 = 87.00pt&#13;&#13;</title></line><text id="35" x="157.2210179211816px" y="96.3858267716535px" fill="black" font-family="Ubuntu" font-weight="regular" font-size="9" text-anchor="start" alignment-baseline="baseline"><title>Text [35]  &#13;&#160;↳&#160;x = 157.22pt&#13;&#160;↳&#160;y = 96.39pt&#13;&#160;↳&#160;width = 11.26pt&#13;&#160;↳&#160;height = 6.38pt&#13;&#160;↳&#160;depth = 0.00pt&#13;&#13;&#160;&#160;font: Ubuntu&#13;&#160;&#160;font-weight: regular&#13;&#160;&#160;font-size: 9&#13;</title>0.5</text><line x1="188.79915801325077px" y1="83.0048267296919px" x2="188.79915801325077px" y2="87.0048267296919px" stroke="black" stroke-linecap="square"><title>Line [36] bottom_axis_tick &#13;&#160;↳&#160;x1 = 188.80pt&#13;&#160;↳&#160;y1 = 83.00pt&#13;&#160;↳&#160;x2 = 188.80pt&#13;&#160;↳&#160;y2 = 87.00pt&#13;&#13;</title></line><text id="37" x="183.070658123877px" y="96.3858267716535px" fill="black" font-family="Ubuntu" font-weight="regular" font-size="9" text-anchor="start" alignment-baseline="baseline"><title>Text [37]  &#13;&#160;↳&#160;x = 183.07pt&#13;&#160;↳&#160;y = 96.39pt&#13;&#160;↳&#160;width = 11.46pt&#13;&#160;↳&#160;height = 6.38pt&#13;&#160;↳&#160;depth = 0.00pt&#13;&#13;&#160;&#160;font: Ubuntu&#13;&#160;&#160;font-weight: regular&#13;&#160;&#160;font-size: 9&#13;</title>0.6</text><line x1="214.74779819305792px" y1="83.0048267296919px" x2="214.74779819305792px" y2="87.0048267296919px" stroke="black" stroke-linecap="square"><title>Line [38] bottom_axis_tick &#13;&#160;↳&#160;x1 = 214.75pt&#13;&#160;↳&#160;y1 = 83.00pt&#13;&#160;↳&#160;x2 = 214.75pt&#13;&#160;↳&#160;y2 = 87.00pt&#13;&#13;</title></line><text id="39" x="209.073298204502px" y="96.3858267716535px" fill="black" font-family="Ubuntu" font-weight="regular" font-size="9" text-anchor="start" alignment-baseline="baseline"><title>Text [39]  &#13;&#160;↳&#160;x = 209.07pt&#13;&#160;↳&#160;y = 96.39pt&#13;&#160;↳&#160;width = 11.35pt&#13;&#160;↳&#160;height = 6.38pt&#13;&#160;↳&#160;depth = 0.00pt&#13;&#13;&#160;&#160;font: Ubuntu&#13;&#160;&#160;font-weight: regular&#13;&#160;&#160;font-size: 9&#13;</title>0.7</text></svg>