<svg xmlns="http://www.w3.org/2000/svg" width="226.7716535433071pt" height="113.3858267716535pt" viewBox="0 0 226.7716535433071 113.3858267716535"><g id="0"/><g id="1"/><g id="2"/><g id="3"/><g id="4"/><g id="5"/><g id="6"/><g id="7"/><g id="8"/><g id="9"/><g id="10"/><g id="18"/><g id="20"/><g id="22"/><g id="24"/><path d="M 42.664590 68.553947L 44.346222 66.850596L 45.187038 65.966382L 46.027853 65.068371L 46.868669 64.161859L 47.709485 63.251331L 48.550300 62.340262L 49.391116 61.430965L 50.231932 60.524516L 51.072748 59.620756L 51.913563 58.718355L 52.754379 57.814972L 53.595195 56.907465L 54.436011 55.992166L 55.276826 55.065201L 56.117642 54.122838L 56.958458 53.161846L 57.799274 52.179846L 58.640089 51.175645L 59.480905 50.149524L 60.321721 49.103464L 61.162536 48.041308L 62.003352 46.968821L 62.844168 45.893659L 63.684984 44.825231L 64.525799 43.774443L 65.366615 42.753345L 66.207431 41.774680L 67.048247 40.851353L 67.889062 39.995854L 68.729878 39.219664L 69.570694 38.532670L 70.411510 37.942645L 71.252325 37.454812L 72.093141 37.071527L 72.933957 36.792116L 73.774772 36.612854L 74.615588 36.527114L 75.456404 36.525661L 76.297220 36.597073L 77.138035 36.728270L 77.978851 36.905107L 78.819667 37.113006L 79.660483 37.337588L 80.501298 37.565270L 81.342114 37.783812L 82.182930 37.982780L 83.023746 38.153908L 83.864561 38.291369L 84.705377 38.391919L 85.546193 38.454939L 86.387009 38.482358L 87.227824 38.478472L 88.068640 38.449663L 88.909456 38.404031L 89.750271 38.350950L 90.591087 38.300572L 91.431903 38.263288L 92.272719 38.249186L 93.113534 38.267518L 93.954350 38.326208L 94.795166 38.431433L 95.635982 38.587285L 96.476797 38.795556L 97.317613 39.055646L 98.158429 39.364611L 98.999245 39.717352L 99.840060 40.106937L 100.680876 40.525042L 101.521692 40.962488L 102.362507 41.409835L 103.203323 41.858005L 104.044139 42.298875L 104.884955 42.725809L 105.725770 43.134076L 106.566586 43.521124L 107.407402 43.886681L 108.248218 44.232667L 109.089033 44.562922L 109.929849 44.882776L 110.770665 45.198475L 111.611481 45.516534L 112.452296 45.843058L 113.293112 46.183105L 114.133928 46.540138L 114.974743 46.915635L 115.815559 47.308888L 116.656375 47.717012L 117.497191 48.135183L 118.338006 48.557062L 119.178822 48.975396L 120.019638 49.382714L 120.860454 49.772071L 121.701269 50.137765L 122.542085 50.475947L 123.382901 50.785079L 124.223717 51.066188L 125.064532 51.322887L 125.905348 51.561170L 126.746164 51.788980L 127.586979 52.015622L 128.427795 52.251032L 129.268611 52.505011L 130.109427 52.786458L 130.950242 53.102689L 131.791058 53.458890L 132.631874 53.857751L 133.472690 54.299299L 134.313505 54.780951L 135.154321 55.297754L 135.995137 55.842808L 136.835953 56.407806L 137.676768 56.983665L 138.517584 57.561168L 139.358400 58.131591L 140.199215 58.687246L 141.040031 59.221918L 141.880847 59.731160L 142.721663 60.212435L 143.562478 60.665115L 144.403294 61.090340L 145.244110 61.490761L 146.084926 61.870208L 146.925741 62.233308L 147.766557 62.585085L 148.607373 62.930589L 149.448189 63.274558L 150.289004 63.621151L 151.129820 63.973748L 151.970636 64.334827L 152.811451 64.705911L 153.652267 65.087572L 154.493083 65.479493L 155.333899 65.880561L 156.174714 66.288987L 157.015530 66.702449L 157.856346 67.118242L 158.697162 67.533426L 159.537977 67.944977L 160.378793 68.349933L 161.219609 68.745519L 162.060425 69.129258L 162.901240 69.499054L 163.742056 69.853243L 164.582872 70.190616L 165.423687 70.510404L 166.264503 70.812234L 167.105319 71.096069L 167.946135 71.362125L 168.786950 71.610798L 169.627766 71.842592L 170.468582 72.058073L 171.309398 72.257839L 172.150213 72.442525L 172.991029 72.612820L 173.831845 72.769507L 174.672661 72.913502L 175.513476 73.045888L 176.354292 73.167935L 177.195108 73.281097L 178.035923 73.386976L 178.876739 73.487271L 179.717555 73.583698L 180.558371 73.677899L 181.399186 73.771355L 182.240002 73.865294L 183.080818 73.960633L 183.921634 74.057933L 184.762449 74.157389L 185.603265 74.258845L 186.444081 74.361837L 187.284897 74.465658L 188.125712 74.569432L 188.966528 74.672199L 189.807344 74.772987L 190.648160 74.870883L 191.488975 74.965087L 192.329791 75.054945L 193.170607 75.139965L 194.011422 75.219823L 194.852238 75.294341L 195.693054 75.363473L 196.533870 75.427269L 197.374685 75.485855L 198.215501 75.539400L 199.056317 75.588099L 199.897133 75.632167L 200.737948 75.671823L 201.578764 75.707304L 202.419580 75.738863L 203.260396 75.766785L 204.101211 75.791389L 204.942027 75.813038L 205.782843 75.832134L 206.623658 75.849117L 207.464474 75.864449L 208.305290 75.878597L 209.146106 75.892010L 209.986921 75.905099L 210.827737 75.918213" stroke="rgba(31, 119, 180, 1.0)" fill="rgba(255, 255, 255, 0.0)" stroke-linecap="round"/><path d="M 40.114773 71.814543L 41.781182 70.112835L 42.614386 69.117030L 43.447590 68.026564L 44.280794 66.846063L 45.113998 65.582739L 45.947203 64.246286L 46.780407 62.848626L 47.613611 61.403521L 48.446815 59.926056L 49.280020 58.432054L 50.113224 56.937437L 50.946428 55.457589L 51.779632 54.006775L 52.612836 52.597649L 53.446041 51.240878L 54.279245 49.944921L 55.112449 48.715946L 55.945653 47.557893L 56.778858 46.472660L 57.612062 45.460381L 58.445266 44.519757L 59.278470 43.648410L 60.111674 42.843234L 60.944879 42.100690L 61.778083 41.417070L 62.611287 40.788675L 63.444491 40.211949L 64.277696 39.683548L 65.110900 39.200385L 65.944104 38.759642L 66.777308 38.358780L 67.610512 37.995552L 68.443717 37.668025L 69.276921 37.374602L 70.110125 37.114038L 70.943329 36.885446L 71.776533 36.688258L 72.609738 36.522147L 73.442942 36.386902L 74.276146 36.282249L 75.109350 36.207644L 75.942555 36.162045L 76.775759 36.143710L 77.608963 36.150025L 78.442167 36.177423L 79.275371 36.221380L 80.108576 36.276538L 80.941780 36.336920L 81.774984 36.396250L 82.608188 36.448336L 83.441393 36.487493L 84.274597 36.508962L 85.107801 36.509291L 85.941005 36.486643L 86.774209 36.441007L 87.607414 36.374294L 88.440618 36.290313L 89.273822 36.194639L 90.107026 36.094378L 90.940231 35.997858L 91.773435 35.914264L 92.606639 35.853253L 93.439843 35.824555L 94.273047 35.837612L 95.106252 35.901235L 95.939456 36.023322L 96.772660 36.210623L 97.605864 36.468549L 98.439069 36.801030L 99.272273 37.210412L 100.105477 37.697367L 100.938681 38.260835L 101.771885 38.897970L 102.605090 39.604113L 103.438294 40.372788L 104.271498 41.195738L 105.104702 42.063020L 105.937906 42.963174L 106.771111 43.883479L 107.604315 44.810310L 108.437519 45.729573L 109.270723 46.627236L 110.103928 47.489902L 110.937132 48.305402L 111.770336 49.063369L 112.603540 49.755744L 113.436744 50.377173L 114.269949 50.925270L 115.103153 51.400700L 115.936357 51.807095L 116.769561 52.150794L 117.602766 52.440423L 118.435970 52.686343L 119.269174 52.900020L 120.102378 53.093337L 120.935582 53.277920L 121.768787 53.464504L 122.601991 53.662392L 123.435195 53.879031L 124.268399 54.119733L 125.101604 54.387547L 125.934808 54.683285L 126.768012 55.005684L 127.601216 55.351695L 128.434420 55.716860L 129.267625 56.095746L 130.100829 56.482411L 130.934033 56.870859L 131.767237 57.255458L 132.600442 57.631296L 133.433646 57.994457L 134.266850 58.342203L 135.100054 58.673062L 135.933258 58.986827L 136.766463 59.284462L 137.599667 59.567952L 138.432871 59.840095L 139.266075 60.104276L 140.099279 60.364217L 140.932484 60.623759L 141.765688 60.886655L 142.598892 61.156412L 143.432096 61.436170L 144.265301 61.728629L 145.098505 62.036012L 145.931709 62.360059L 146.764913 62.702035L 147.598117 63.062744L 148.431322 63.442539L 149.264526 63.841322L 150.097730 64.258528L 150.930934 64.693096L 151.764139 65.143440L 152.597343 65.607420L 153.430547 66.082330L 154.263751 66.564911L 155.096955 67.051395L 155.930160 67.537592L 156.763364 68.019012L 157.596568 68.491020L 158.429772 68.949020L 159.262977 69.388648L 160.096181 69.805973L 160.929385 70.197674L 161.762589 70.561202L 162.595793 70.894888L 163.428998 71.198020L 164.262202 71.470857L 165.095406 71.714592L 165.928610 71.931265L 166.761814 72.123632L 167.595019 72.294998L 168.428223 72.449027L 169.261427 72.589532L 170.094631 72.720280L 170.927836 72.844800L 171.761040 72.966216L 172.594244 73.087122L 173.427448 73.209488L 174.260652 73.334613L 175.093857 73.463127L 175.927061 73.595024L 176.760265 73.729738L 177.593469 73.866244L 178.426674 74.003174L 179.259878 74.138951L 180.093082 74.271914L 180.926286 74.400439L 181.759490 74.523045L 182.592695 74.638479L 183.425899 74.745781L 184.259103 74.844320L 185.092307 74.933810L 185.925512 75.014305L 186.758716 75.086168L 187.591920 75.150025L 188.425124 75.206714L 189.258328 75.257213L 190.091533 75.302573L 190.924737 75.343851L 191.757941 75.382038L 192.591145 75.418014L 193.424350 75.452501L 194.257554 75.486036L 195.090758 75.518970L 195.923962 75.551466L 196.757166 75.583529L 197.590371 75.615043L 198.423575 75.645807L 199.256779 75.675589L 200.089983 75.704168L 200.923187 75.731369L 201.756392 75.757094L 202.589596 75.781332L 203.422800 75.804166L 204.256004 75.825754L 205.089209 75.846317L 205.922413 75.866100L 206.755617 75.885353" stroke="rgba(255, 127, 14, 1.0)" fill="rgba(255, 255, 255, 0.0)" stroke-linecap="round"/><path d="M 37.064640 73.827878L 38.687404 73.112628L 39.498786 72.709247L 40.310169 72.275838L 41.121551 71.813142L 41.932933 71.322137L 42.744315 70.803963L 43.555697 70.259809L 44.367079 69.690806L 45.178461 69.097894L 45.989843 68.481703L 46.801225 67.842454L 47.612607 67.179879L 48.423989 66.493195L 49.235371 65.781122L 50.046753 65.041964L 50.858135 64.273751L 51.669517 63.474437L 52.480899 62.642141L 53.292281 61.775415L 54.103664 60.873519L 54.915046 59.936668L 55.726428 58.966228L 56.537810 57.964834L 57.349192 56.936406L 58.160574 55.886059L 58.971956 54.819890L 59.783338 53.744670L 60.594720 52.667452L 61.406102 51.595137L 62.217484 50.534028L 63.028866 49.489433L 63.840248 48.465346L 64.651630 47.464241L 65.463012 46.487008L 66.274394 45.533045L 67.085777 44.600471L 67.897159 43.686471L 68.708541 42.787709L 69.519923 41.900780L 70.331305 41.022649L 71.142687 40.151044L 71.954069 39.284756L 72.765451 38.423846L 73.576833 37.569736L 74.388215 36.725199L 75.199597 35.894270L 76.010979 35.082097L 76.822361 34.294749L 77.633743 33.539018L 78.445125 32.822215L 79.256507 32.151974L 80.067890 31.536050L 80.879272 30.982122L 81.690654 30.497567L 82.502036 30.089225L 83.313418 29.763124L 84.124800 29.524207L 84.936182 29.376050L 85.747564 29.320614L 86.558946 29.358059L 87.370328 29.486635L 88.181710 29.702702L 88.993092 30.000852L 89.804474 30.374163L 90.615856 30.814543L 91.427238 31.313139L 92.238620 31.860775L 93.050003 32.448349L 93.861385 33.067184L 94.672767 33.709265L 95.484149 34.367373L 96.295531 35.035103L 97.106913 35.706792L 97.918295 36.377389L 98.729677 37.042312L 99.541059 37.697318L 100.352441 38.338443L 101.163823 38.962008L 101.975205 39.564719L 102.786587 40.143828L 103.597969 40.697344L 104.409351 41.224247L 105.220733 41.724663L 106.032115 42.199974L 106.843498 42.652816L 107.654880 43.086964L 108.466262 43.507101L 109.277644 43.918480L 110.089026 44.326522L 110.900408 44.736380L 111.711790 45.152513L 112.523172 45.578324L 113.334554 46.015878L 114.145936 46.465753L 114.957318 46.927007L 115.768700 47.397296L 116.580082 47.873096L 117.391464 48.350038L 118.202846 48.823295L 119.014228 49.288013L 119.825611 49.739729L 120.636993 50.174745L 121.448375 50.590439L 122.259757 50.985477L 123.071139 51.359918L 123.882521 51.715210L 124.693903 52.054073L 125.505285 52.380294L 126.316667 52.698444L 127.128049 53.013539L 127.939431 53.330692L 128.750813 53.654757L 129.562195 53.990018L 130.373577 54.339929L 131.184959 54.706928L 131.996341 55.092345L 132.807724 55.496385L 133.619106 55.918210L 134.430488 56.356082L 135.241870 56.807568L 136.053252 57.269771L 136.864634 57.739579L 137.676016 58.213889L 138.487398 58.689810L 139.298780 59.164809L 140.110162 59.636802L 140.921544 60.104196L 141.732926 60.565862L 142.544308 61.021082L 143.355690 61.469456L 144.167072 61.910796L 144.978454 62.345026L 145.789837 62.772084L 146.601219 63.191850L 147.412601 63.604093L 148.223983 64.008437L 149.035365 64.404353L 149.846747 64.791150L 150.658129 65.167988L 151.469511 65.533888L 152.280893 65.887748L 153.092275 66.228365L 153.903657 66.554471L 154.715039 66.864777L 155.526421 67.158046L 156.337803 67.433179L 157.149185 67.689322L 157.960567 67.925989L 158.771949 68.143181L 159.583332 68.341498L 160.394714 68.522223L 161.206096 68.687363L 162.017478 68.839643L 162.828860 68.982434L 163.640242 69.119627L 164.451624 69.255453L 165.263006 69.394259L 166.074388 69.540262L 166.885770 69.697297L 167.697152 69.868579L 168.508534 70.056504L 169.319916 70.262493L 170.131298 70.486906L 170.942680 70.729020L 171.754062 70.987073L 172.565445 71.258379L 173.376827 71.539488L 174.188209 71.826392L 174.999591 72.114762L 175.810973 72.400182L 176.622355 72.678391L 177.433737 72.945495L 178.245119 73.198146L 179.056501 73.433683L 179.867883 73.650216L 180.679265 73.846660L 181.490647 74.022722L 182.302029 74.178837L 183.113411 74.316068L 183.924793 74.435979L 184.736175 74.540496L 185.547558 74.631755L 186.358940 74.711972L 187.170322 74.783310L 187.981704 74.847793L 188.793086 74.907223L 189.604468 74.963142L 190.415850 75.016810L 191.227232 75.069212L 192.038614 75.121069L 192.849996 75.172878L 193.661378 75.224938L 194.472760 75.277394L 195.284142 75.330260L 196.095524 75.383454L 196.906906 75.436816L 197.718288 75.490127L 198.529671 75.543118L 199.341053 75.595482" stroke="rgba(44, 160, 44, 1.0)" fill="rgba(255, 255, 255, 0.0)" stroke-linecap="round"/><path d="M 36.294614 73.101439L 38.106019 71.992275L 39.011721 71.360703L 39.917423 70.680369L 40.823125 69.953931L 41.728827 69.184375L 42.634529 68.374780L 43.540231 67.528079L 44.445933 66.646856L 45.351636 65.733201L 46.257338 64.788627L 47.163040 63.814074L 48.068742 62.809992L 48.974444 61.776511L 49.880146 60.713665L 50.785848 59.621671L 51.691550 58.501225L 52.597253 57.353788L 53.502955 56.181854L 54.408657 54.989140L 55.314359 53.780718L 56.220061 52.563041L 57.125763 51.343879L 58.031465 50.132151L 58.937167 48.937666L 59.842870 47.770791L 60.748572 46.642064L 61.654274 45.561767L 62.559976 44.539501L 63.465678 43.583777L 64.371380 42.701647L 65.277082 41.898412L 66.182784 41.177407L 67.088487 40.539890L 67.994189 39.985042L 68.899891 39.510080L 69.805593 39.110473L 70.711295 38.780258L 71.616997 38.512422L 72.522699 38.299333L 73.428401 38.133170L 74.334104 38.006336L 75.239806 37.911797L 76.145508 37.843330L 77.051210 37.795666L 77.956912 37.764514L 78.862614 37.746484L 79.768316 37.738937L 80.674018 37.739790L 81.579721 37.747323L 82.485423 37.760027L 83.391125 37.776502L 84.296827 37.795456L 85.202529 37.815753L 86.108231 37.836537L 87.013933 37.857355L 87.919635 37.878278L 88.825338 37.899949L 89.731040 37.923553L 90.636742 37.950678L 91.542444 37.983095L 92.448146 38.022462L 93.353848 38.070011L 94.259550 38.126266L 95.165252 38.190844L 96.070955 38.262390L 96.976657 38.338671L 97.882359 38.416846L 98.788061 38.493881L 99.693763 38.567090L 100.599465 38.634724L 101.505167 38.696543L 102.410869 38.754298L 103.316572 38.812052L 104.222274 38.876274L 105.127976 38.955697L 106.033678 39.060911L 106.939380 39.203732L 107.845082 39.396384L 108.750784 39.650579L 109.656486 39.976578L 110.562189 40.382316L 111.467891 40.872689L 112.373593 41.449064L 113.279295 42.109061L 114.184997 42.846629L 115.090699 43.652403L 115.996401 44.514299L 116.902103 45.418301L 117.807806 46.349341L 118.713508 47.292220L 119.619210 48.232462L 120.524912 49.157061L 121.430614 50.055052L 122.336316 50.917887L 123.242018 51.739613L 124.147720 52.516844L 125.053423 53.248578L 125.959125 53.935871L 126.864827 54.581427L 127.770529 55.189140L 128.676231 55.763626L 129.581933 56.309787L 130.487635 56.832423L 131.393337 57.335940L 132.299040 57.824138L 133.204742 58.300100L 134.110444 58.766185L 135.016146 59.224093L 135.921848 59.674997L 136.827550 60.119707L 137.733252 60.558842L 138.638954 60.992967L 139.544657 61.422695L 140.450359 61.848713L 141.356061 62.271739L 142.261763 62.692423L 143.167465 63.111198L 144.073167 63.528119L 144.978869 63.942710L 145.884571 64.353863L 146.790274 64.759794L 147.695976 65.158092L 148.601678 65.545847L 149.507380 65.919853L 150.413082 66.276872L 151.318784 66.613926L 152.224486 66.928590L 153.130188 67.219248L 154.035891 67.485301L 154.941593 67.727283L 155.847295 67.946896L 156.752997 68.146941L 157.658699 68.331164L 158.564401 68.504025L 159.470103 68.670417L 160.375805 68.835346L 161.281508 69.003620L 162.187210 69.179549L 163.092912 69.366701L 163.998614 69.567716L 164.904316 69.784195L 165.810018 70.016661L 166.715720 70.264596L 167.621422 70.526540L 168.527125 70.800230L 169.432827 71.082780L 170.338529 71.370868L 171.244231 71.660933L 172.149933 71.949355L 173.055635 72.232628L 173.961337 72.507502L 174.867039 72.771108L 175.772742 73.021053L 176.678444 73.255486L 177.584146 73.473135L 178.489848 73.673310L 179.395550 73.855876L 180.301252 74.021197L 181.206954 74.170042L 182.112656 74.303487L 183.018359 74.422791L 183.924061 74.529285L 184.829763 74.624259L 185.735465 74.708887L 186.641167 74.784170L 187.546869 74.850918L 188.452571 74.909769L 189.358273 74.961231L 190.263976 75.005745L 191.169678 75.043762L 192.075380 75.075812L 192.981082 75.102556L 193.886784 75.124822L 194.792486 75.143607L 195.698188 75.160051L 196.603890 75.175385L 197.509593 75.190860L 198.415295 75.207666L 199.320997 75.226842L 200.226699 75.249208L 201.132401 75.275306L 202.038103 75.305364L 202.943805 75.339292L 203.849507 75.376704L 204.755210 75.416958L 205.660912 75.459226L 206.566614 75.502567L 207.472316 75.546014L 208.378018 75.588646L 209.283720 75.629663L 210.189422 75.668439L 211.095124 75.704553L 212.000827 75.737803L 212.906529 75.768198L 213.812231 75.795931L 214.717933 75.821334L 215.623635 75.844830L 216.529337 75.866877L 217.435039 75.887912" stroke="rgba(214, 39, 40, 1.0)" fill="rgba(255, 255, 255, 0.0)" stroke-linecap="round"/><text id="15" x="2.25px" y="9.2340002059937px" fill="black" font-family="Ubuntu" font-weight="bold" font-size="9" text-anchor="start" alignment-baseline="baseline">A. Probability distributions</text><text id="16" x="124.7363268784651px" y="111.1358267716535px" fill="black" font-family="Ubuntu" font-weight="bold" font-size="9" text-anchor="start" alignment-baseline="baseline">ğœƒ</text><text id="17" x="2.25px" y="56.106913420159px" fill="black" font-family="Ubuntu" font-weight="bold" font-size="9" text-anchor="start" alignment-baseline="baseline">P(ğœƒ)</text><line x1="29.2080001831055px" y1="22.2340002059937px" x2="29.2080001831055px" y2="83.0048267296919px" stroke="black" stroke-linecap="square"/><line x1="29.2080001831055px" y1="22.234000205993702px" x2="224.5216535433071px" y2="22.234000205993702px" stroke="black" stroke-linecap="square"/><line x1="224.5216535433071px" y1="22.2340002059937px" x2="224.5216535433071px" y2="83.0048267296919px" stroke="black" stroke-linecap="square"/><line x1="29.2080001831055px" y1="83.0048267296919px" x2="224.5216535433071px" y2="83.0048267296919px" stroke="black" stroke-linecap="square"/><line x1="59.05595711421505px" y1="83.0048267296919px" x2="59.05595711421505px" y2="87.0048267296919px" stroke="black" stroke-linecap="square"/><text id="27" x="53.97545698833px" y="96.3858267716535px" fill="black" font-family="Ubuntu" font-weight="regular" font-size="9" text-anchor="start" alignment-baseline="baseline">0.1</text><line x1="85.00459729402219px" y1="83.0048267296919px" x2="85.00459729402219px" y2="87.0048267296919px" stroke="black" stroke-linecap="square"/><text id="29" x="79.3795972940222px" y="96.3858267716535px" fill="black" font-family="Ubuntu" font-weight="regular" font-size="9" text-anchor="start" alignment-baseline="baseline">0.2</text><line x1="110.95323747382933px" y1="83.0048267296919px" x2="110.95323747382933px" y2="87.0048267296919px" stroke="black" stroke-linecap="square"/><text id="31" x="105.3327373860913px" y="96.3858267716535px" fill="black" font-family="Ubuntu" font-weight="regular" font-size="9" text-anchor="start" alignment-baseline="baseline">0.3</text><line x1="136.90187765363646px" y1="83.0048267296919px" x2="136.90187765363646px" y2="87.0048267296919px" stroke="black" stroke-linecap="square"/><text id="33" x="131.1328776002307px" y="96.3858267716535px" fill="black" font-family="Ubuntu" font-weight="regular" font-size="9" text-anchor="start" alignment-baseline="baseline">0.4</text><line x1="162.85051783344363px" y1="83.0048267296919px" x2="162.85051783344363px" y2="87.0048267296919px" stroke="black" stroke-linecap="square"/><text id="35" x="157.2210179211816px" y="96.3858267716535px" fill="black" font-family="Ubuntu" font-weight="regular" font-size="9" text-anchor="start" alignment-baseline="baseline">0.5</text><line x1="188.79915801325077px" y1="83.0048267296919px" x2="188.79915801325077px" y2="87.0048267296919px" stroke="black" stroke-linecap="square"/><text id="37" x="183.070658123877px" y="96.3858267716535px" fill="black" font-family="Ubuntu" font-weight="regular" font-size="9" text-anchor="start" alignment-baseline="baseline">0.6</text><line x1="214.74779819305792px" y1="83.0048267296919px" x2="214.74779819305792px" y2="87.0048267296919px" stroke="black" stroke-linecap="square"/><text id="39" x="209.073298204502px" y="96.3858267716535px" fill="black" font-family="Ubuntu" font-weight="regular" font-size="9" text-anchor="start" alignment-baseline="baseline">0.7</text></svg>