<svg xmlns="http://www.w3.org/2000/svg" width="226.7716535433071pt" height="113.3858267716535pt" viewBox="0 0 226.7716535433071 113.3858267716535"><g id="0"/><g id="1"/><g id="2"/><g id="3"/><g id="4"/><g id="5"/><g id="6"/><g id="7"/><g id="8"/><g id="9"/><g id="10"/><g id="15"/><g id="27"/><g id="29"/><g id="31"/><path d="M 54.235614 75.918213L 54.235614 61.858592L 62.395586 61.858592L 62.395586 54.226227L 70.555557 54.226227L 70.555557 45.388752L 78.715528 45.388752L 78.715528 29.320614L 86.875499 29.320614L 86.875499 35.346166L 95.035471 35.346166L 95.035471 38.961497L 103.195442 38.961497L 103.195442 33.739352L 111.355413 33.739352L 111.355413 45.790455L 119.515384 45.790455L 119.515384 42.175124L 127.675356 42.175124L 127.675356 54.627931L 135.835327 54.627931L 135.835327 46.995565L 143.995298 46.995565L 143.995298 59.448372L 152.155269 59.448372L 152.155269 61.055186L 160.315241 61.055186L 160.315241 64.268813L 168.475212 64.268813L 168.475212 71.901178L 176.635183 71.901178L 176.635183 73.507992L 184.795154 73.507992L 184.795154 72.302882L 192.955126 72.302882L 192.955126 75.114806L 201.115097 75.114806L 201.115097 75.114806L 209.275068 75.114806L 209.275068 75.516509L 217.435039 75.516509L 217.435039 75.918213z" stroke="none" fill="cyan" stroke-linecap="square"/><text id="12" x="2.25px" y="9.2340002059937px" fill="black" font-family="Ubuntu" font-weight="bold" font-size="9" text-anchor="start" alignment-baseline="baseline">A. Probability distributions</text><text id="13" x="133.7068268708357px" y="111.1358267716535px" fill="black" font-family="Ubuntu" font-weight="bold" font-size="9" text-anchor="start" alignment-baseline="baseline">ğœƒ</text><text id="14" x="2.25px" y="56.106913420159px" fill="black" font-family="Ubuntu" font-weight="bold" font-size="9" text-anchor="start" alignment-baseline="baseline">P(ğœƒ)</text><line x1="47.1490001678467px" y1="22.2340002059937px" x2="47.1490001678467px" y2="83.0048267296919px" stroke="black" stroke-linecap="square"/><line x1="43.1490001678467px" y1="75.9182125564635px" x2="47.1490001678467px" y2="75.9182125564635px" stroke="black" stroke-linecap="square"/><line x1="43.1490001678467px" y1="65.87562674240283px" x2="47.1490001678467px" y2="65.87562674240283px" stroke="black" stroke-linecap="square"/><line x1="43.1490001678467px" y1="55.83304092834216px" x2="47.1490001678467px" y2="55.83304092834216px" stroke="black" stroke-linecap="square"/><line x1="43.1490001678467px" y1="45.7904551142815px" x2="47.1490001678467px" y2="45.7904551142815px" stroke="black" stroke-linecap="square"/><line x1="43.1490001678467px" y1="35.74786930022083px" x2="47.1490001678467px" y2="35.74786930022083px" stroke="black" stroke-linecap="square"/><text id="22" x="34.9730000495911px" y="79.1087125774444px" fill="black" font-family="Ubuntu" font-weight="regular" font-size="9" text-anchor="start" alignment-baseline="baseline">0</text><text id="23" x="30.1579999923706px" y="69.0661267633837px" fill="black" font-family="Ubuntu" font-weight="regular" font-size="9" text-anchor="start" alignment-baseline="baseline">25</text><text id="24" x="30.032000541687px" y="59.023540949323px" fill="black" font-family="Ubuntu" font-weight="regular" font-size="9" text-anchor="start" alignment-baseline="baseline">50</text><text id="25" x="30.1940002441406px" y="48.9089551085595px" fill="black" font-family="Ubuntu" font-weight="regular" font-size="9" text-anchor="start" alignment-baseline="baseline">75</text><text id="26" x="25.2080001831055px" y="38.9383693212017px" fill="black" font-family="Ubuntu" font-weight="regular" font-size="9" text-anchor="start" alignment-baseline="baseline">100</text><line x1="47.1490001678467px" y1="22.234000205993702px" x2="224.5216535433071px" y2="22.234000205993702px" stroke="black" stroke-linecap="square"/><line x1="224.5216535433071px" y1="22.2340002059937px" x2="224.5216535433071px" y2="83.0048267296919px" stroke="black" stroke-linecap="square"/><line x1="47.1490001678467px" y1="83.0048267296919px" x2="224.5216535433071px" y2="83.0048267296919px" stroke="black" stroke-linecap="square"/><line x1="70.14315225212916px" y1="83.0048267296919px" x2="70.14315225212916px" y2="87.0048267296919px" stroke="black" stroke-linecap="square"/><text id="34" x="65.0626521262442px" y="96.3858267716535px" fill="black" font-family="Ubuntu" font-weight="regular" font-size="9" text-anchor="start" alignment-baseline="baseline">0.1</text><line x1="95.32585868184357px" y1="83.0048267296919px" x2="95.32585868184357px" y2="87.0048267296919px" stroke="black" stroke-linecap="square"/><text id="36" x="89.7008586818436px" y="96.3858267716535px" fill="black" font-family="Ubuntu" font-weight="regular" font-size="9" text-anchor="start" alignment-baseline="baseline">0.2</text><line x1="120.508565111558px" y1="83.0048267296919px" x2="120.508565111558px" y2="87.0048267296919px" stroke="black" stroke-linecap="square"/><text id="38" x="114.88806502382px" y="96.3858267716535px" fill="black" font-family="Ubuntu" font-weight="regular" font-size="9" text-anchor="start" alignment-baseline="baseline">0.3</text><line x1="145.6912715412724px" y1="83.0048267296919px" x2="145.6912715412724px" y2="87.0048267296919px" stroke="black" stroke-linecap="square"/><text id="40" x="139.9222714878667px" y="96.3858267716535px" fill="black" font-family="Ubuntu" font-weight="regular" font-size="9" text-anchor="start" alignment-baseline="baseline">0.4</text><line x1="170.87397797098683px" y1="83.0048267296919px" x2="170.87397797098683px" y2="87.0048267296919px" stroke="black" stroke-linecap="square"/><text id="42" x="165.2444780587249px" y="96.3858267716535px" fill="black" font-family="Ubuntu" font-weight="regular" font-size="9" text-anchor="start" alignment-baseline="baseline">0.5</text><line x1="196.05668440070124px" y1="83.0048267296919px" x2="196.05668440070124px" y2="87.0048267296919px" stroke="black" stroke-linecap="square"/><text id="44" x="190.3281845113275px" y="96.3858267716535px" fill="black" font-family="Ubuntu" font-weight="regular" font-size="9" text-anchor="start" alignment-baseline="baseline">0.6</text></svg>