<svg xmlns="http://www.w3.org/2000/svg" width="255.11625pt" height="170.07750pt" viewBox="0 0 340.15500 226.77000"><g id="1"/><g id="2"/><g id="3"/><g id="4"/><g id="5"/><g id="6"/><g id="7"/><g id="8"/><g id="9"/><g id="10"/><g id="11"/><g id="137"/><g id="149"/><g id="161"/><g id="171"/><circle cx="135.89684" cy="107.62514" r="2.66667" fill="rgba(31, 119, 180, 1.0)" opacity="1"/><circle cx="171.49056" cy="148.57261" r="2.66667" fill="rgba(31, 119, 180, 1.0)" opacity="1"/><circle cx="140.31223" cy="127.88183" r="2.66667" fill="rgba(31, 119, 180, 1.0)" opacity="1"/><circle cx="80.72097" cy="72.94665" r="2.66667" fill="rgba(31, 119, 180, 1.0)" opacity="1"/><circle cx="144.50377" cy="136.89957" r="2.66667" fill="rgba(31, 119, 180, 1.0)" opacity="1"/><circle cx="145.06919" cy="127.71698" r="2.66667" fill="rgba(31, 119, 180, 1.0)" opacity="1"/><circle cx="108.16124" cy="91.96185" r="2.66667" fill="rgba(31, 119, 180, 1.0)" opacity="1"/><circle cx="143.04146" cy="125.22770" r="2.66667" fill="rgba(31, 119, 180, 1.0)" opacity="1"/><circle cx="133.02886" cy="102.70318" r="2.66667" fill="rgba(31, 119, 180, 1.0)" opacity="1"/><circle cx="131.71557" cy="107.32704" r="2.66667" fill="rgba(31, 119, 180, 1.0)" opacity="1"/><circle cx="98.08509" cy="78.51793" r="2.66667" fill="rgba(31, 119, 180, 1.0)" opacity="1"/><circle cx="165.66152" cy="123.59756" r="2.66667" fill="rgba(31, 119, 180, 1.0)" opacity="1"/><circle cx="190.96291" cy="181.96100" r="2.66667" fill="rgba(31, 119, 180, 1.0)" opacity="1"/><circle cx="155.42308" cy="147.15448" r="2.66667" fill="rgba(31, 119, 180, 1.0)" opacity="1"/><circle cx="175.36264" cy="169.17390" r="2.66667" fill="rgba(31, 119, 180, 1.0)" opacity="1"/><circle cx="194.30299" cy="163.86948" r="2.66667" fill="rgba(31, 119, 180, 1.0)" opacity="1"/><circle cx="159.30166" cy="131.75857" r="2.66667" fill="rgba(31, 119, 180, 1.0)" opacity="1"/><circle cx="133.74218" cy="108.64950" r="2.66667" fill="rgba(31, 119, 180, 1.0)" opacity="1"/><circle cx="72.78118" cy="52.63900" r="2.66667" fill="rgba(31, 119, 180, 1.0)" opacity="1"/><circle cx="144.24430" cy="123.32706" r="2.66667" fill="rgba(31, 119, 180, 1.0)" opacity="1"/><circle cx="161.04242" cy="139.21427" r="2.66667" fill="rgba(31, 119, 180, 1.0)" opacity="1"/><circle cx="141.47477" cy="135.15969" r="2.66667" fill="rgba(31, 119, 180, 1.0)" opacity="1"/><circle cx="176.02249" cy="166.07716" r="2.66667" fill="rgba(31, 119, 180, 1.0)" opacity="1"/><circle cx="128.03507" cy="100.67923" r="2.66667" fill="rgba(31, 119, 180, 1.0)" opacity="1"/><circle cx="151.42797" cy="124.71861" r="2.66667" fill="rgba(31, 119, 180, 1.0)" opacity="1"/><circle cx="133.80758" cy="116.50170" r="2.66667" fill="rgba(31, 119, 180, 1.0)" opacity="1"/><circle cx="152.11218" cy="147.62516" r="2.66667" fill="rgba(31, 119, 180, 1.0)" opacity="1"/><circle cx="151.62029" cy="131.80335" r="2.66667" fill="rgba(31, 119, 180, 1.0)" opacity="1"/><circle cx="166.78565" cy="127.34226" r="2.66667" fill="rgba(31, 119, 180, 1.0)" opacity="1"/><circle cx="167.28239" cy="176.92337" r="2.66667" fill="rgba(31, 119, 180, 1.0)" opacity="1"/><circle cx="185.44077" cy="146.48058" r="2.66667" fill="rgba(31, 119, 180, 1.0)" opacity="1"/><circle cx="93.62618" cy="59.10256" r="2.66667" fill="rgba(31, 119, 180, 1.0)" opacity="1"/><circle cx="80.43761" cy="63.57682" r="2.66667" fill="rgba(31, 119, 180, 1.0)" opacity="1"/><circle cx="122.60714" cy="121.56078" r="2.66667" fill="rgba(31, 119, 180, 1.0)" opacity="1"/><circle cx="143.93542" cy="124.16363" r="2.66667" fill="rgba(31, 119, 180, 1.0)" opacity="1"/><circle cx="117.79086" cy="129.81348" r="2.66667" fill="rgba(31, 119, 180, 1.0)" opacity="1"/><circle cx="185.99145" cy="154.97805" r="2.66667" fill="rgba(31, 119, 180, 1.0)" opacity="1"/><circle cx="171.97506" cy="161.99864" r="2.66667" fill="rgba(31, 119, 180, 1.0)" opacity="1"/><circle cx="111.86594" cy="98.68516" r="2.66667" fill="rgba(31, 119, 180, 1.0)" opacity="1"/><circle cx="76.41417" cy="72.08567" r="2.66667" fill="rgba(31, 119, 180, 1.0)" opacity="1"/><circle cx="195.79329" cy="152.37826" r="2.66667" fill="rgba(31, 119, 180, 1.0)" opacity="1"/><circle cx="192.27636" cy="178.51067" r="2.66667" fill="rgba(31, 119, 180, 1.0)" opacity="1"/><circle cx="115.15769" cy="103.24652" r="2.66667" fill="rgba(31, 119, 180, 1.0)" opacity="1"/><circle cx="145.80772" cy="120.79534" r="2.66667" fill="rgba(31, 119, 180, 1.0)" opacity="1"/><circle cx="124.59534" cy="96.11100" r="2.66667" fill="rgba(31, 119, 180, 1.0)" opacity="1"/><circle cx="147.27568" cy="112.97779" r="2.66667" fill="rgba(31, 119, 180, 1.0)" opacity="1"/><circle cx="116.30414" cy="105.34468" r="2.66667" fill="rgba(31, 119, 180, 1.0)" opacity="1"/><circle cx="92.34843" cy="80.33078" r="2.66667" fill="rgba(31, 119, 180, 1.0)" opacity="1"/><circle cx="127.44431" cy="121.88907" r="2.66667" fill="rgba(31, 119, 180, 1.0)" opacity="1"/><circle cx="162.65380" cy="116.21578" r="2.66667" fill="rgba(31, 119, 180, 1.0)" opacity="1"/><circle cx="129.19225" cy="112.63445" r="2.66667" fill="rgba(31, 119, 180, 1.0)" opacity="1"/><circle cx="71.45233" cy="66.19230" r="2.66667" fill="rgba(31, 119, 180, 1.0)" opacity="1"/><circle cx="154.83010" cy="136.31134" r="2.66667" fill="rgba(31, 119, 180, 1.0)" opacity="1"/><circle cx="109.64725" cy="95.92834" r="2.66667" fill="rgba(31, 119, 180, 1.0)" opacity="1"/><circle cx="200.77433" cy="167.49813" r="2.66667" fill="rgba(31, 119, 180, 1.0)" opacity="1"/><circle cx="150.78044" cy="142.61900" r="2.66667" fill="rgba(31, 119, 180, 1.0)" opacity="1"/><circle cx="105.04343" cy="80.38582" r="2.66667" fill="rgba(31, 119, 180, 1.0)" opacity="1"/><circle cx="113.30563" cy="69.74829" r="2.66667" fill="rgba(31, 119, 180, 1.0)" opacity="1"/><circle cx="151.33273" cy="148.35418" r="2.66667" fill="rgba(31, 119, 180, 1.0)" opacity="1"/><circle cx="186.30179" cy="154.07495" r="2.66667" fill="rgba(31, 119, 180, 1.0)" opacity="1"/><circle cx="149.32072" cy="106.00372" r="2.66667" fill="rgba(255, 127, 14, 1.0)" opacity="1"/><circle cx="173.52676" cy="78.57941" r="2.66667" fill="rgba(255, 127, 14, 1.0)" opacity="1"/><circle cx="125.31050" cy="129.50982" r="2.66667" fill="rgba(255, 127, 14, 1.0)" opacity="1"/><circle cx="177.81235" cy="77.80171" r="2.66667" fill="rgba(255, 127, 14, 1.0)" opacity="1"/><circle cx="140.19207" cy="113.57819" r="2.66667" fill="rgba(255, 127, 14, 1.0)" opacity="1"/><circle cx="113.39076" cy="141.96660" r="2.66667" fill="rgba(255, 127, 14, 1.0)" opacity="1"/><circle cx="71.45233" cy="181.96100" r="2.66667" fill="rgba(255, 127, 14, 1.0)" opacity="1"/><circle cx="128.10075" cy="127.30028" r="2.66667" fill="rgba(255, 127, 14, 1.0)" opacity="1"/><circle cx="106.81352" cy="149.34162" r="2.66667" fill="rgba(255, 127, 14, 1.0)" opacity="1"/><circle cx="200.77433" cy="52.63900" r="2.66667" fill="rgba(255, 127, 14, 1.0)" opacity="1"/><circle cx="113.45595" cy="142.34777" r="2.66667" fill="rgba(255, 127, 14, 1.0)" opacity="1"/><circle cx="138.27625" cy="117.82514" r="2.66667" fill="rgba(255, 127, 14, 1.0)" opacity="1"/><circle cx="161.89970" cy="94.67991" r="2.66667" fill="rgba(255, 127, 14, 1.0)" opacity="1"/><circle cx="104.58458" cy="146.81287" r="2.66667" fill="rgba(255, 127, 14, 1.0)" opacity="1"/><circle cx="155.25534" cy="99.57999" r="2.66667" fill="rgba(255, 127, 14, 1.0)" opacity="1"/><circle cx="140.38786" cy="114.34520" r="2.66667" fill="rgba(255, 127, 14, 1.0)" opacity="1"/><circle cx="128.35937" cy="123.50244" r="2.66667" fill="rgba(255, 127, 14, 1.0)" opacity="1"/><circle cx="99.57966" cy="159.87937" r="2.66667" fill="rgba(255, 127, 14, 1.0)" opacity="1"/><circle cx="128.32094" cy="127.69004" r="2.66667" fill="rgba(255, 127, 14, 1.0)" opacity="1"/><circle cx="160.31848" cy="97.95081" r="2.66667" fill="rgba(255, 127, 14, 1.0)" opacity="1"/><circle cx="161.90916" cy="93.45160" r="2.66667" fill="rgba(255, 127, 14, 1.0)" opacity="1"/><circle cx="162.15096" cy="92.94639" r="2.66667" fill="rgba(255, 127, 14, 1.0)" opacity="1"/><circle cx="134.02926" cy="133.87119" r="2.66667" fill="rgba(255, 127, 14, 1.0)" opacity="1"/><circle cx="82.26830" cy="178.39127" r="2.66667" fill="rgba(255, 127, 14, 1.0)" opacity="1"/><circle cx="105.11957" cy="141.86719" r="2.66667" fill="rgba(255, 127, 14, 1.0)" opacity="1"/><circle cx="111.70086" cy="141.97516" r="2.66667" fill="rgba(255, 127, 14, 1.0)" opacity="1"/><circle cx="102.32090" cy="144.92552" r="2.66667" fill="rgba(255, 127, 14, 1.0)" opacity="1"/><circle cx="166.06037" cy="87.19565" r="2.66667" fill="rgba(255, 127, 14, 1.0)" opacity="1"/><circle cx="118.67843" cy="135.48792" r="2.66667" fill="rgba(255, 127, 14, 1.0)" opacity="1"/><circle cx="119.32605" cy="143.18583" r="2.66667" fill="rgba(255, 127, 14, 1.0)" opacity="1"/><circle cx="137.18842" cy="121.20998" r="2.66667" fill="rgba(255, 127, 14, 1.0)" opacity="1"/><circle cx="155.44949" cy="99.47541" r="2.66667" fill="rgba(255, 127, 14, 1.0)" opacity="1"/><circle cx="95.21344" cy="163.16761" r="2.66667" fill="rgba(255, 127, 14, 1.0)" opacity="1"/><circle cx="108.91935" cy="148.30240" r="2.66667" fill="rgba(255, 127, 14, 1.0)" opacity="1"/><circle cx="139.39675" cy="113.20535" r="2.66667" fill="rgba(255, 127, 14, 1.0)" opacity="1"/><circle cx="139.42059" cy="115.13269" r="2.66667" fill="rgba(255, 127, 14, 1.0)" opacity="1"/><circle cx="122.46999" cy="129.59751" r="2.66667" fill="rgba(255, 127, 14, 1.0)" opacity="1"/><circle cx="120.74327" cy="137.66942" r="2.66667" fill="rgba(255, 127, 14, 1.0)" opacity="1"/><circle cx="163.77703" cy="94.42014" r="2.66667" fill="rgba(255, 127, 14, 1.0)" opacity="1"/><circle cx="115.98403" cy="134.93986" r="2.66667" fill="rgba(255, 127, 14, 1.0)" opacity="1"/><circle cx="138.83758" cy="111.70838" r="2.66667" fill="rgba(255, 127, 14, 1.0)" opacity="1"/><circle cx="120.86781" cy="132.96267" r="2.66667" fill="rgba(255, 127, 14, 1.0)" opacity="1"/><circle cx="98.96439" cy="155.39374" r="2.66667" fill="rgba(255, 127, 14, 1.0)" opacity="1"/><circle cx="129.67489" cy="123.64092" r="2.66667" fill="rgba(255, 127, 14, 1.0)" opacity="1"/><circle cx="121.31492" cy="135.37087" r="2.66667" fill="rgba(255, 127, 14, 1.0)" opacity="1"/><circle cx="140.89464" cy="110.76610" r="2.66667" fill="rgba(255, 127, 14, 1.0)" opacity="1"/><circle cx="95.92982" cy="156.64043" r="2.66667" fill="rgba(255, 127, 14, 1.0)" opacity="1"/><circle cx="143.51869" cy="114.77214" r="2.66667" fill="rgba(255, 127, 14, 1.0)" opacity="1"/><circle cx="82.93914" cy="173.67005" r="2.66667" fill="rgba(255, 127, 14, 1.0)" opacity="1"/><circle cx="130.59510" cy="127.37572" r="2.66667" fill="rgba(255, 127, 14, 1.0)" opacity="1"/><circle cx="132.67318" cy="121.94700" r="2.66667" fill="rgba(255, 127, 14, 1.0)" opacity="1"/><circle cx="121.63410" cy="132.71110" r="2.66667" fill="rgba(255, 127, 14, 1.0)" opacity="1"/><circle cx="114.54015" cy="142.30615" r="2.66667" fill="rgba(255, 127, 14, 1.0)" opacity="1"/><circle cx="123.56078" cy="127.56777" r="2.66667" fill="rgba(255, 127, 14, 1.0)" opacity="1"/><circle cx="153.02703" cy="107.24057" r="2.66667" fill="rgba(255, 127, 14, 1.0)" opacity="1"/><circle cx="121.77853" cy="132.22725" r="2.66667" fill="rgba(255, 127, 14, 1.0)" opacity="1"/><circle cx="152.07481" cy="106.00433" r="2.66667" fill="rgba(255, 127, 14, 1.0)" opacity="1"/><circle cx="120.18849" cy="133.11678" r="2.66667" fill="rgba(255, 127, 14, 1.0)" opacity="1"/><circle cx="105.78897" cy="144.90027" r="2.66667" fill="rgba(255, 127, 14, 1.0)" opacity="1"/><circle cx="102.09347" cy="149.38032" r="2.66667" fill="rgba(255, 127, 14, 1.0)" opacity="1"/><text id="132" fill="black" font-family="Ubuntu" font-weight="bold" font-size="10" text-anchor="start" alignment-baseline="baseline" x="2.50000" y="10.33000">A. Scatter plot (1 color per dataset) - linear scale</text><text id="133" fill="black" font-family="Ubuntu" font-weight="bold" font-size="10" text-anchor="start" alignment-baseline="baseline" x="122.51833" y="224.27000">x-axis</text><text id="134" fill="black" font-family="Ubuntu" font-weight="bold" font-size="10" text-anchor="start" alignment-baseline="baseline" x="2.50000" y="121.13000">y-axis</text><text id="135" fill="black" font-family="Ubuntu" font-weight="bold" font-size="10" text-anchor="start" alignment-baseline="baseline" x="119.57833" y="17.99000">x2-axis</text><text id="136" fill="black" font-family="Ubuntu" font-weight="bold" font-size="10" text-anchor="start" alignment-baseline="baseline" x="237.29667" y="121.13000">y2-axis</text><line x1="63.89333" y1="45.08000" x2="63.89333" y2="189.52000" stroke="black" stroke-linecap="square"/><line x1="58.56000" y1="177.55464" x2="63.89333" y2="177.55464" stroke="black" stroke-linecap="square"/><line x1="58.56000" y1="146.62841" x2="63.89333" y2="146.62841" stroke="black" stroke-linecap="square"/><line x1="58.56000" y1="115.70219" x2="63.89333" y2="115.70219" stroke="black" stroke-linecap="square"/><line x1="58.56000" y1="84.77596" x2="63.89333" y2="84.77596" stroke="black" stroke-linecap="square"/><line x1="58.56000" y1="53.84973" x2="63.89333" y2="53.84973" stroke="black" stroke-linecap="square"/><text id="144" fill="rgba(31, 119, 180, 1.0)" font-family="Ubuntu" font-weight="normal" font-size="10" text-anchor="start" alignment-baseline="baseline" x="40.91667" y="181.09964">1.0</text><text id="145" fill="rgba(31, 119, 180, 1.0)" font-family="Ubuntu" font-weight="normal" font-size="10" text-anchor="start" alignment-baseline="baseline" x="41.14667" y="150.09341">1.5</text><text id="146" fill="rgba(31, 119, 180, 1.0)" font-family="Ubuntu" font-weight="normal" font-size="10" text-anchor="start" alignment-baseline="baseline" x="40.54667" y="119.24719">2.0</text><text id="147" fill="rgba(31, 119, 180, 1.0)" font-family="Ubuntu" font-weight="normal" font-size="10" text-anchor="start" alignment-baseline="baseline" x="40.77667" y="88.32096">2.5</text><text id="148" fill="rgba(31, 119, 180, 1.0)" font-family="Ubuntu" font-weight="normal" font-size="10" text-anchor="start" alignment-baseline="baseline" x="40.53667" y="57.39473">3.0</text><line x1="63.89333" y1="45.08000" x2="208.33333" y2="45.08000" stroke="black" stroke-linecap="square"/><line x1="93.69596" y1="39.74667" x2="93.69596" y2="45.08000" stroke="black" stroke-linecap="square"/><text id="152" fill="rgba(255, 127, 14, 1.0)" font-family="Ubuntu" font-weight="normal" font-size="10" text-anchor="start" alignment-baseline="baseline" x="89.88096" y="35.74667">-2</text><line x1="119.48778" y1="39.74667" x2="119.48778" y2="45.08000" stroke="black" stroke-linecap="square"/><text id="154" fill="rgba(255, 127, 14, 1.0)" font-family="Ubuntu" font-weight="normal" font-size="10" text-anchor="start" alignment-baseline="baseline" x="117.16778" y="35.74667">0</text><line x1="145.27960" y1="39.74667" x2="145.27960" y2="45.08000" stroke="black" stroke-linecap="square"/><text id="156" fill="rgba(255, 127, 14, 1.0)" font-family="Ubuntu" font-weight="normal" font-size="10" text-anchor="start" alignment-baseline="baseline" x="143.10960" y="35.74667">2</text><line x1="171.07143" y1="39.74667" x2="171.07143" y2="45.08000" stroke="black" stroke-linecap="square"/><text id="158" fill="rgba(255, 127, 14, 1.0)" font-family="Ubuntu" font-weight="normal" font-size="10" text-anchor="start" alignment-baseline="baseline" x="168.66143" y="35.74667">4</text><line x1="196.86325" y1="39.74667" x2="196.86325" y2="45.08000" stroke="black" stroke-linecap="square"/><text id="160" fill="rgba(255, 127, 14, 1.0)" font-family="Ubuntu" font-weight="normal" font-size="10" text-anchor="start" alignment-baseline="baseline" x="194.61325" y="35.74667">6</text><line x1="208.33333" y1="45.08000" x2="208.33333" y2="189.52000" stroke="black" stroke-linecap="square"/><line x1="208.33333" y1="168.61481" x2="213.66667" y2="168.61481" stroke="black" stroke-linecap="square"/><line x1="208.33333" y1="138.64079" x2="213.66667" y2="138.64079" stroke="black" stroke-linecap="square"/><line x1="208.33333" y1="108.66678" x2="213.66667" y2="108.66678" stroke="black" stroke-linecap="square"/><line x1="208.33333" y1="78.69277" x2="213.66667" y2="78.69277" stroke="black" stroke-linecap="square"/><text id="167" fill="rgba(255, 127, 14, 1.0)" font-family="Ubuntu" font-weight="normal" font-size="10" text-anchor="start" alignment-baseline="baseline" x="219.00000" y="172.15981">-2</text><text id="168" fill="rgba(255, 127, 14, 1.0)" font-family="Ubuntu" font-weight="normal" font-size="10" text-anchor="start" alignment-baseline="baseline" x="219.00000" y="142.18579">0</text><text id="169" fill="rgba(255, 127, 14, 1.0)" font-family="Ubuntu" font-weight="normal" font-size="10" text-anchor="start" alignment-baseline="baseline" x="219.00000" y="112.21178">2</text><text id="170" fill="rgba(255, 127, 14, 1.0)" font-family="Ubuntu" font-weight="normal" font-size="10" text-anchor="start" alignment-baseline="baseline" x="219.00000" y="82.15777">4</text><line x1="63.89333" y1="189.52000" x2="208.33333" y2="189.52000" stroke="black" stroke-linecap="square"/><line x1="79.28980" y1="189.52000" x2="79.28980" y2="194.85333" stroke="black" stroke-linecap="square"/><text id="174" fill="rgba(31, 119, 180, 1.0)" font-family="Ubuntu" font-weight="normal" font-size="10" text-anchor="start" alignment-baseline="baseline" x="71.41980" y="205.94333">-1.5</text><line x1="97.58621" y1="189.52000" x2="97.58621" y2="194.85333" stroke="black" stroke-linecap="square"/><text id="176" fill="rgba(31, 119, 180, 1.0)" font-family="Ubuntu" font-weight="normal" font-size="10" text-anchor="start" alignment-baseline="baseline" x="89.60121" y="205.94333">-1.0</text><line x1="115.88263" y1="189.52000" x2="115.88263" y2="194.85333" stroke="black" stroke-linecap="square"/><text id="178" fill="rgba(31, 119, 180, 1.0)" font-family="Ubuntu" font-weight="normal" font-size="10" text-anchor="start" alignment-baseline="baseline" x="108.01263" y="205.94333">-0.5</text><line x1="134.17904" y1="189.52000" x2="134.17904" y2="194.85333" stroke="black" stroke-linecap="square"/><text id="180" fill="rgba(31, 119, 180, 1.0)" font-family="Ubuntu" font-weight="normal" font-size="10" text-anchor="start" alignment-baseline="baseline" x="127.80904" y="205.94333">0.0</text><line x1="152.47546" y1="189.52000" x2="152.47546" y2="194.85333" stroke="black" stroke-linecap="square"/><text id="182" fill="rgba(31, 119, 180, 1.0)" font-family="Ubuntu" font-weight="normal" font-size="10" text-anchor="start" alignment-baseline="baseline" x="146.22046" y="205.94333">0.5</text><line x1="170.77187" y1="189.52000" x2="170.77187" y2="194.85333" stroke="black" stroke-linecap="square"/><text id="184" fill="rgba(31, 119, 180, 1.0)" font-family="Ubuntu" font-weight="normal" font-size="10" text-anchor="start" alignment-baseline="baseline" x="164.61687" y="205.94333">1.0</text><line x1="189.06828" y1="189.52000" x2="189.06828" y2="194.85333" stroke="black" stroke-linecap="square"/><text id="186" fill="rgba(31, 119, 180, 1.0)" font-family="Ubuntu" font-weight="normal" font-size="10" text-anchor="start" alignment-baseline="baseline" x="183.02828" y="205.94333">1.5</text></svg>