<svg xmlns="http://www.w3.org/2000/svg" width="255.11625pt" height="170.07750pt" viewBox="0 0 340.15500 226.77000"><g id="1"/><g id="2"/><g id="3"/><g id="4"/><g id="5"/><g id="6"/><g id="7"/><g id="8"/><g id="9"/><g id="10"/><g id="11"/><g id="137"/><g id="149"/><g id="161"/><g id="171"/><circle cx="132.66042" cy="107.91307" r="2.66667" fill="rgba(31, 119, 180, 1.0)"/><circle cx="168.81726" cy="149.50837" r="2.66667" fill="rgba(31, 119, 180, 1.0)"/><circle cx="137.14566" cy="128.49025" r="2.66667" fill="rgba(31, 119, 180, 1.0)"/><circle cx="76.61160" cy="72.68594" r="2.66667" fill="rgba(31, 119, 180, 1.0)"/><circle cx="141.40351" cy="137.65065" r="2.66667" fill="rgba(31, 119, 180, 1.0)"/><circle cx="141.97788" cy="128.32279" r="2.66667" fill="rgba(31, 119, 180, 1.0)"/><circle cx="104.48601" cy="92.00197" r="2.66667" fill="rgba(31, 119, 180, 1.0)"/><circle cx="139.91807" cy="125.79412" r="2.66667" fill="rgba(31, 119, 180, 1.0)"/><circle cx="129.74706" cy="102.91324" r="2.66667" fill="rgba(31, 119, 180, 1.0)"/><circle cx="128.41299" cy="107.61026" r="2.66667" fill="rgba(31, 119, 180, 1.0)"/><circle cx="94.25044" cy="78.34536" r="2.66667" fill="rgba(31, 119, 180, 1.0)"/><circle cx="162.89600" cy="124.13819" r="2.66667" fill="rgba(31, 119, 180, 1.0)"/><circle cx="188.59768" cy="183.42500" r="2.66667" fill="rgba(31, 119, 180, 1.0)"/><circle cx="152.49557" cy="148.06781" r="2.66667" fill="rgba(31, 119, 180, 1.0)"/><circle cx="172.75060" cy="170.43559" r="2.66667" fill="rgba(31, 119, 180, 1.0)"/><circle cx="191.99060" cy="165.04725" r="2.66667" fill="rgba(31, 119, 180, 1.0)"/><circle cx="156.43552" cy="132.42832" r="2.66667" fill="rgba(31, 119, 180, 1.0)"/><circle cx="130.47166" cy="108.95364" r="2.66667" fill="rgba(31, 119, 180, 1.0)"/><circle cx="68.54620" cy="52.05700" r="2.66667" fill="rgba(31, 119, 180, 1.0)"/><circle cx="141.13994" cy="123.86341" r="2.66667" fill="rgba(31, 119, 180, 1.0)"/><circle cx="158.20382" cy="140.00197" r="2.66667" fill="rgba(31, 119, 180, 1.0)"/><circle cx="138.32659" cy="135.88325" r="2.66667" fill="rgba(31, 119, 180, 1.0)"/><circle cx="173.42089" cy="167.28986" r="2.66667" fill="rgba(31, 119, 180, 1.0)"/><circle cx="124.67426" cy="100.85727" r="2.66667" fill="rgba(31, 119, 180, 1.0)"/><circle cx="148.43726" cy="125.27698" r="2.66667" fill="rgba(31, 119, 180, 1.0)"/><circle cx="130.53810" cy="116.93007" r="2.66667" fill="rgba(31, 119, 180, 1.0)"/><circle cx="149.13229" cy="148.54594" r="2.66667" fill="rgba(31, 119, 180, 1.0)"/><circle cx="148.63262" cy="132.47381" r="2.66667" fill="rgba(31, 119, 180, 1.0)"/><circle cx="164.03792" cy="127.94214" r="2.66667" fill="rgba(31, 119, 180, 1.0)"/><circle cx="164.54252" cy="178.30767" r="2.66667" fill="rgba(31, 119, 180, 1.0)"/><circle cx="182.98818" cy="147.38325" r="2.66667" fill="rgba(31, 119, 180, 1.0)"/><circle cx="89.72099" cy="58.62282" r="2.66667" fill="rgba(31, 119, 180, 1.0)"/><circle cx="76.32376" cy="63.16787" r="2.66667" fill="rgba(31, 119, 180, 1.0)"/><circle cx="119.16046" cy="122.06919" r="2.66667" fill="rgba(31, 119, 180, 1.0)"/><circle cx="140.82617" cy="124.71322" r="2.66667" fill="rgba(31, 119, 180, 1.0)"/><circle cx="114.26798" cy="130.45246" r="2.66667" fill="rgba(31, 119, 180, 1.0)"/><circle cx="183.54757" cy="156.01515" r="2.66667" fill="rgba(31, 119, 180, 1.0)"/><circle cx="169.30943" cy="163.14682" r="2.66667" fill="rgba(31, 119, 180, 1.0)"/><circle cx="108.24932" cy="98.83166" r="2.66667" fill="rgba(31, 119, 180, 1.0)"/><circle cx="72.23667" cy="71.81134" r="2.66667" fill="rgba(31, 119, 180, 1.0)"/><circle cx="193.50449" cy="153.37423" r="2.66667" fill="rgba(31, 119, 180, 1.0)"/><circle cx="189.93191" cy="179.92008" r="2.66667" fill="rgba(31, 119, 180, 1.0)"/><circle cx="111.59315" cy="103.46519" r="2.66667" fill="rgba(31, 119, 180, 1.0)"/><circle cx="142.72809" cy="121.29164" r="2.66667" fill="rgba(31, 119, 180, 1.0)"/><circle cx="121.18012" cy="96.21677" r="2.66667" fill="rgba(31, 119, 180, 1.0)"/><circle cx="144.21927" cy="113.35040" r="2.66667" fill="rgba(31, 119, 180, 1.0)"/><circle cx="112.75774" cy="105.59654" r="2.66667" fill="rgba(31, 119, 180, 1.0)"/><circle cx="88.42302" cy="80.18690" r="2.66667" fill="rgba(31, 119, 180, 1.0)"/><circle cx="124.07416" cy="122.40267" r="2.66667" fill="rgba(31, 119, 180, 1.0)"/><circle cx="159.84070" cy="116.63962" r="2.66667" fill="rgba(31, 119, 180, 1.0)"/><circle cx="125.84975" cy="113.00164" r="2.66667" fill="rgba(31, 119, 180, 1.0)"/><circle cx="67.19633" cy="65.82473" r="2.66667" fill="rgba(31, 119, 180, 1.0)"/><circle cx="151.89321" cy="137.05312" r="2.66667" fill="rgba(31, 119, 180, 1.0)"/><circle cx="105.99553" cy="96.03122" r="2.66667" fill="rgba(31, 119, 180, 1.0)"/><circle cx="198.56433" cy="168.73331" r="2.66667" fill="rgba(31, 119, 180, 1.0)"/><circle cx="147.77948" cy="143.46057" r="2.66667" fill="rgba(31, 119, 180, 1.0)"/><circle cx="101.31887" cy="80.24280" r="2.66667" fill="rgba(31, 119, 180, 1.0)"/><circle cx="109.71179" cy="69.43698" r="2.66667" fill="rgba(31, 119, 180, 1.0)"/><circle cx="148.34051" cy="149.28649" r="2.66667" fill="rgba(31, 119, 180, 1.0)"/><circle cx="183.86282" cy="155.09777" r="2.66667" fill="rgba(31, 119, 180, 1.0)"/><circle cx="146.29667" cy="106.26600" r="2.66667" fill="rgba(255, 127, 14, 1.0)"/><circle cx="170.88567" cy="78.40781" r="2.66667" fill="rgba(255, 127, 14, 1.0)"/><circle cx="121.90659" cy="130.14399" r="2.66667" fill="rgba(255, 127, 14, 1.0)"/><circle cx="175.23907" cy="77.61781" r="2.66667" fill="rgba(255, 127, 14, 1.0)"/><circle cx="137.02359" cy="113.96031" r="2.66667" fill="rgba(255, 127, 14, 1.0)"/><circle cx="109.79827" cy="142.79785" r="2.66667" fill="rgba(255, 127, 14, 1.0)"/><circle cx="67.19633" cy="183.42500" r="2.66667" fill="rgba(255, 127, 14, 1.0)"/><circle cx="124.74098" cy="127.89950" r="2.66667" fill="rgba(255, 127, 14, 1.0)"/><circle cx="103.11697" cy="150.28955" r="2.66667" fill="rgba(255, 127, 14, 1.0)"/><circle cx="198.56433" cy="52.05700" r="2.66667" fill="rgba(255, 127, 14, 1.0)"/><circle cx="109.86449" cy="143.18505" r="2.66667" fill="rgba(255, 127, 14, 1.0)"/><circle cx="135.07747" cy="118.27444" r="2.66667" fill="rgba(255, 127, 14, 1.0)"/><circle cx="159.07466" cy="94.76304" r="2.66667" fill="rgba(255, 127, 14, 1.0)"/><circle cx="100.85276" cy="147.72079" r="2.66667" fill="rgba(255, 127, 14, 1.0)"/><circle cx="152.32518" cy="99.74064" r="2.66667" fill="rgba(255, 127, 14, 1.0)"/><circle cx="137.22249" cy="114.73945" r="2.66667" fill="rgba(255, 127, 14, 1.0)"/><circle cx="125.00370" cy="124.04156" r="2.66667" fill="rgba(255, 127, 14, 1.0)"/><circle cx="95.76866" cy="160.99401" r="2.66667" fill="rgba(255, 127, 14, 1.0)"/><circle cx="124.96466" cy="128.29542" r="2.66667" fill="rgba(255, 127, 14, 1.0)"/><circle cx="157.46843" cy="98.08569" r="2.66667" fill="rgba(255, 127, 14, 1.0)"/><circle cx="159.08428" cy="93.51529" r="2.66667" fill="rgba(255, 127, 14, 1.0)"/><circle cx="159.32990" cy="93.00209" r="2.66667" fill="rgba(255, 127, 14, 1.0)"/><circle cx="130.76329" cy="134.57436" r="2.66667" fill="rgba(255, 127, 14, 1.0)"/><circle cx="78.18341" cy="179.79880" r="2.66667" fill="rgba(255, 127, 14, 1.0)"/><circle cx="101.39622" cy="142.69687" r="2.66667" fill="rgba(255, 127, 14, 1.0)"/><circle cx="108.08162" cy="142.80654" r="2.66667" fill="rgba(255, 127, 14, 1.0)"/><circle cx="98.55327" cy="145.80359" r="2.66667" fill="rgba(255, 127, 14, 1.0)"/><circle cx="163.30116" cy="87.16037" r="2.66667" fill="rgba(255, 127, 14, 1.0)"/><circle cx="115.16960" cy="136.21667" r="2.66667" fill="rgba(255, 127, 14, 1.0)"/><circle cx="115.82746" cy="144.03637" r="2.66667" fill="rgba(255, 127, 14, 1.0)"/><circle cx="133.97243" cy="121.71284" r="2.66667" fill="rgba(255, 127, 14, 1.0)"/><circle cx="152.52240" cy="99.63441" r="2.66667" fill="rgba(255, 127, 14, 1.0)"/><circle cx="91.33336" cy="164.33428" r="2.66667" fill="rgba(255, 127, 14, 1.0)"/><circle cx="105.25611" cy="149.23389" r="2.66667" fill="rgba(255, 127, 14, 1.0)"/><circle cx="136.21570" cy="113.58157" r="2.66667" fill="rgba(255, 127, 14, 1.0)"/><circle cx="136.23992" cy="115.53940" r="2.66667" fill="rgba(255, 127, 14, 1.0)"/><circle cx="119.02114" cy="130.23306" r="2.66667" fill="rgba(255, 127, 14, 1.0)"/><circle cx="117.26710" cy="138.43269" r="2.66667" fill="rgba(255, 127, 14, 1.0)"/><circle cx="160.98169" cy="94.49916" r="2.66667" fill="rgba(255, 127, 14, 1.0)"/><circle cx="112.43256" cy="135.65994" r="2.66667" fill="rgba(255, 127, 14, 1.0)"/><circle cx="135.64768" cy="112.06092" r="2.66667" fill="rgba(255, 127, 14, 1.0)"/><circle cx="117.39361" cy="133.65147" r="2.66667" fill="rgba(255, 127, 14, 1.0)"/><circle cx="95.14366" cy="156.43742" r="2.66667" fill="rgba(255, 127, 14, 1.0)"/><circle cx="126.34003" cy="124.18224" r="2.66667" fill="rgba(255, 127, 14, 1.0)"/><circle cx="117.84780" cy="136.09777" r="2.66667" fill="rgba(255, 127, 14, 1.0)"/><circle cx="137.73728" cy="111.10373" r="2.66667" fill="rgba(255, 127, 14, 1.0)"/><circle cx="92.06107" cy="157.70383" r="2.66667" fill="rgba(255, 127, 14, 1.0)"/><circle cx="140.40284" cy="115.17315" r="2.66667" fill="rgba(255, 127, 14, 1.0)"/><circle cx="78.86487" cy="175.00288" r="2.66667" fill="rgba(255, 127, 14, 1.0)"/><circle cx="127.27479" cy="127.97612" r="2.66667" fill="rgba(255, 127, 14, 1.0)"/><circle cx="129.38575" cy="122.46152" r="2.66667" fill="rgba(255, 127, 14, 1.0)"/><circle cx="118.17203" cy="133.39592" r="2.66667" fill="rgba(255, 127, 14, 1.0)"/><circle cx="110.96584" cy="143.14277" r="2.66667" fill="rgba(255, 127, 14, 1.0)"/><circle cx="120.12919" cy="128.17122" r="2.66667" fill="rgba(255, 127, 14, 1.0)"/><circle cx="150.06162" cy="107.52242" r="2.66667" fill="rgba(255, 127, 14, 1.0)"/><circle cx="118.31874" cy="132.90441" r="2.66667" fill="rgba(255, 127, 14, 1.0)"/><circle cx="149.09434" cy="106.26662" r="2.66667" fill="rgba(255, 127, 14, 1.0)"/><circle cx="116.70355" cy="133.80802" r="2.66667" fill="rgba(255, 127, 14, 1.0)"/><circle cx="102.07621" cy="145.77793" r="2.66667" fill="rgba(255, 127, 14, 1.0)"/><circle cx="98.32224" cy="150.32886" r="2.66667" fill="rgba(255, 127, 14, 1.0)"/><text id="132" x="2.25000" y="9.29700" fill="black" font-family="Ubuntu" font-weight="bold" font-size="9" text-anchor="start" alignment-baseline="baseline">A. Scatter plot (1 color per dataset) - linear scale</text><text id="133" x="120.64483" y="224.39400" fill="black" font-family="Ubuntu" font-weight="bold" font-size="9" text-anchor="start" alignment-baseline="baseline">x-axis</text><text id="134" x="2.25000" y="120.35550" fill="black" font-family="Ubuntu" font-weight="bold" font-size="9" text-anchor="start" alignment-baseline="baseline">y-axis</text><text id="135" x="117.99883" y="17.85600" fill="black" font-family="Ubuntu" font-weight="bold" font-size="9" text-anchor="start" alignment-baseline="baseline">x2-axis</text><text id="136" x="234.32367" y="120.35550" fill="black" font-family="Ubuntu" font-weight="bold" font-size="9" text-anchor="start" alignment-baseline="baseline">y2-axis</text><line x1="59.63733" y1="44.49800" x2="59.63733" y2="190.98400" stroke="black" stroke-linecap="square"/><line x1="54.30400" y1="178.94893" x2="59.63733" y2="178.94893" stroke="black" stroke-linecap="square"/><line x1="54.30400" y1="147.53342" x2="59.63733" y2="147.53342" stroke="black" stroke-linecap="square"/><line x1="54.30400" y1="116.11791" x2="59.63733" y2="116.11791" stroke="black" stroke-linecap="square"/><line x1="54.30400" y1="84.70240" x2="59.63733" y2="84.70240" stroke="black" stroke-linecap="square"/><line x1="54.30400" y1="53.28689" x2="59.63733" y2="53.28689" stroke="black" stroke-linecap="square"/><text id="144" x="37.89167" y="182.07193" fill="rgba(31, 119, 180, 1.0)" font-family="Ubuntu" font-weight="regular" font-size="9" text-anchor="start" alignment-baseline="baseline">1.0</text><text id="145" x="38.09867" y="150.58442" fill="rgba(31, 119, 180, 1.0)" font-family="Ubuntu" font-weight="regular" font-size="9" text-anchor="start" alignment-baseline="baseline">1.5</text><text id="146" x="37.55867" y="119.24091" fill="rgba(31, 119, 180, 1.0)" font-family="Ubuntu" font-weight="regular" font-size="9" text-anchor="start" alignment-baseline="baseline">2.0</text><text id="147" x="37.76567" y="87.82540" fill="rgba(31, 119, 180, 1.0)" font-family="Ubuntu" font-weight="regular" font-size="9" text-anchor="start" alignment-baseline="baseline">2.5</text><text id="148" x="37.54967" y="56.40989" fill="rgba(31, 119, 180, 1.0)" font-family="Ubuntu" font-weight="regular" font-size="9" text-anchor="start" alignment-baseline="baseline">3.0</text><line x1="59.63733" y1="44.49800" x2="206.12333" y2="44.49800" stroke="black" stroke-linecap="square"/><line x1="89.79188" y1="39.16467" x2="89.79188" y2="44.49800" stroke="black" stroke-linecap="square"/><text id="152" x="86.35838" y="35.02967" fill="rgba(255, 127, 14, 1.0)" font-family="Ubuntu" font-weight="regular" font-size="9" text-anchor="start" alignment-baseline="baseline">-2</text><line x1="115.99175" y1="39.16467" x2="115.99175" y2="44.49800" stroke="black" stroke-linecap="square"/><text id="154" x="113.90375" y="35.02967" fill="rgba(255, 127, 14, 1.0)" font-family="Ubuntu" font-weight="regular" font-size="9" text-anchor="start" alignment-baseline="baseline">0</text><line x1="142.19162" y1="39.16467" x2="142.19162" y2="44.49800" stroke="black" stroke-linecap="square"/><text id="156" x="140.23862" y="35.02967" fill="rgba(255, 127, 14, 1.0)" font-family="Ubuntu" font-weight="regular" font-size="9" text-anchor="start" alignment-baseline="baseline">2</text><line x1="168.39150" y1="39.16467" x2="168.39150" y2="44.49800" stroke="black" stroke-linecap="square"/><text id="158" x="166.22250" y="35.02967" fill="rgba(255, 127, 14, 1.0)" font-family="Ubuntu" font-weight="regular" font-size="9" text-anchor="start" alignment-baseline="baseline">4</text><line x1="194.59137" y1="39.16467" x2="194.59137" y2="44.49800" stroke="black" stroke-linecap="square"/><text id="160" x="192.56637" y="35.02967" fill="rgba(255, 127, 14, 1.0)" font-family="Ubuntu" font-weight="regular" font-size="9" text-anchor="start" alignment-baseline="baseline">6</text><line x1="206.12333" y1="44.49800" x2="206.12333" y2="190.98400" stroke="black" stroke-linecap="square"/><line x1="206.12333" y1="169.86766" x2="211.45667" y2="169.86766" stroke="black" stroke-linecap="square"/><line x1="206.12333" y1="139.41943" x2="211.45667" y2="139.41943" stroke="black" stroke-linecap="square"/><line x1="206.12333" y1="108.97120" x2="211.45667" y2="108.97120" stroke="black" stroke-linecap="square"/><line x1="206.12333" y1="78.52296" x2="211.45667" y2="78.52296" stroke="black" stroke-linecap="square"/><text id="167" x="216.79000" y="173.05816" fill="rgba(255, 127, 14, 1.0)" font-family="Ubuntu" font-weight="regular" font-size="9" text-anchor="start" alignment-baseline="baseline">-2</text><text id="168" x="216.79000" y="142.54243" fill="rgba(255, 127, 14, 1.0)" font-family="Ubuntu" font-weight="regular" font-size="9" text-anchor="start" alignment-baseline="baseline">0</text><text id="169" x="216.79000" y="112.16170" fill="rgba(255, 127, 14, 1.0)" font-family="Ubuntu" font-weight="regular" font-size="9" text-anchor="start" alignment-baseline="baseline">2</text><text id="170" x="216.79000" y="81.64146" fill="rgba(255, 127, 14, 1.0)" font-family="Ubuntu" font-weight="regular" font-size="9" text-anchor="start" alignment-baseline="baseline">4</text><line x1="59.63733" y1="190.98400" x2="206.12333" y2="190.98400" stroke="black" stroke-linecap="square"/><line x1="75.15779" y1="190.98400" x2="75.15779" y2="196.31733" stroke="black" stroke-linecap="square"/><text id="174" x="68.07479" y="206.69833" fill="rgba(31, 119, 180, 1.0)" font-family="Ubuntu" font-weight="regular" font-size="9" text-anchor="start" alignment-baseline="baseline">-1.5</text><line x1="93.74367" y1="190.98400" x2="93.74367" y2="196.31733" stroke="black" stroke-linecap="square"/><text id="176" x="86.55717" y="206.69833" fill="rgba(31, 119, 180, 1.0)" font-family="Ubuntu" font-weight="regular" font-size="9" text-anchor="start" alignment-baseline="baseline">-1.0</text><line x1="112.32956" y1="190.98400" x2="112.32956" y2="196.31733" stroke="black" stroke-linecap="square"/><text id="178" x="105.24656" y="206.69833" fill="rgba(31, 119, 180, 1.0)" font-family="Ubuntu" font-weight="regular" font-size="9" text-anchor="start" alignment-baseline="baseline">-0.5</text><line x1="130.91544" y1="190.98400" x2="130.91544" y2="196.31733" stroke="black" stroke-linecap="square"/><text id="180" x="125.18244" y="206.69833" fill="rgba(31, 119, 180, 1.0)" font-family="Ubuntu" font-weight="regular" font-size="9" text-anchor="start" alignment-baseline="baseline">0.0</text><line x1="149.50132" y1="190.98400" x2="149.50132" y2="196.31733" stroke="black" stroke-linecap="square"/><text id="182" x="143.87182" y="206.69833" fill="rgba(31, 119, 180, 1.0)" font-family="Ubuntu" font-weight="regular" font-size="9" text-anchor="start" alignment-baseline="baseline">0.5</text><line x1="168.08720" y1="190.98400" x2="168.08720" y2="196.31733" stroke="black" stroke-linecap="square"/><text id="184" x="162.54770" y="206.69833" fill="rgba(31, 119, 180, 1.0)" font-family="Ubuntu" font-weight="regular" font-size="9" text-anchor="start" alignment-baseline="baseline">1.0</text><line x1="186.67308" y1="190.98400" x2="186.67308" y2="196.31733" stroke="black" stroke-linecap="square"/><text id="186" x="181.23708" y="206.69833" fill="rgba(31, 119, 180, 1.0)" font-family="Ubuntu" font-weight="regular" font-size="9" text-anchor="start" alignment-baseline="baseline">1.5</text></svg>