<svg xmlns="http://www.w3.org/2000/svg" width="255.11625pt" height="170.07750pt" viewBox="0 0 340.15500 226.77000"><g id="1"/><g id="2"/><g id="3"/><g id="4"/><g id="5"/><g id="6"/><g id="7"/><g id="8"/><g id="9"/><g id="10"/><g id="11"/><g id="137"/><g id="149"/><g id="161"/><g id="171"/><circle cx="133.75026" cy="106.91696" r="2.66667" fill="rgba(31, 119, 180, 1.0)"/><circle cx="170.50904" cy="149.20473" r="2.66667" fill="rgba(31, 119, 180, 1.0)"/><circle cx="138.31017" cy="127.83670" r="2.66667" fill="rgba(31, 119, 180, 1.0)"/><circle cx="76.76835" cy="71.10337" r="2.66667" fill="rgba(31, 119, 180, 1.0)"/><circle cx="142.63891" cy="137.14960" r="2.66667" fill="rgba(31, 119, 180, 1.0)"/><circle cx="143.22284" cy="127.66645" r="2.66667" fill="rgba(31, 119, 180, 1.0)"/><circle cx="105.10681" cy="90.74097" r="2.66667" fill="rgba(31, 119, 180, 1.0)"/><circle cx="141.12873" cy="125.09569" r="2.66667" fill="rgba(31, 119, 180, 1.0)"/><circle cx="130.78839" cy="101.83389" r="2.66667" fill="rgba(31, 119, 180, 1.0)"/><circle cx="129.43212" cy="106.60910" r="2.66667" fill="rgba(31, 119, 180, 1.0)"/><circle cx="94.70083" cy="76.85700" r="2.66667" fill="rgba(31, 119, 180, 1.0)"/><circle cx="164.48920" cy="123.41219" r="2.66667" fill="rgba(31, 119, 180, 1.0)"/><circle cx="190.61876" cy="183.68600" r="2.66667" fill="rgba(31, 119, 180, 1.0)"/><circle cx="153.91563" cy="147.74018" r="2.66667" fill="rgba(31, 119, 180, 1.0)"/><circle cx="174.50786" cy="170.48035" r="2.66667" fill="rgba(31, 119, 180, 1.0)"/><circle cx="194.06816" cy="165.00230" r="2.66667" fill="rgba(31, 119, 180, 1.0)"/><circle cx="157.92116" cy="131.84033" r="2.66667" fill="rgba(31, 119, 180, 1.0)"/><circle cx="131.52506" cy="107.97485" r="2.66667" fill="rgba(31, 119, 180, 1.0)"/><circle cx="68.56867" cy="50.13100" r="2.66667" fill="rgba(31, 119, 180, 1.0)"/><circle cx="142.37095" cy="123.13284" r="2.66667" fill="rgba(31, 119, 180, 1.0)"/><circle cx="159.71890" cy="139.54007" r="2.66667" fill="rgba(31, 119, 180, 1.0)"/><circle cx="139.51076" cy="135.35278" r="2.66667" fill="rgba(31, 119, 180, 1.0)"/><circle cx="175.18930" cy="167.28225" r="2.66667" fill="rgba(31, 119, 180, 1.0)"/><circle cx="125.63115" cy="99.74370" r="2.66667" fill="rgba(31, 119, 180, 1.0)"/><circle cx="149.78975" cy="124.56993" r="2.66667" fill="rgba(31, 119, 180, 1.0)"/><circle cx="131.59261" cy="116.08407" r="2.66667" fill="rgba(31, 119, 180, 1.0)"/><circle cx="150.49636" cy="148.22627" r="2.66667" fill="rgba(31, 119, 180, 1.0)"/><circle cx="149.98837" cy="131.88658" r="2.66667" fill="rgba(31, 119, 180, 1.0)"/><circle cx="165.65013" cy="127.27946" r="2.66667" fill="rgba(31, 119, 180, 1.0)"/><circle cx="166.16312" cy="178.48348" r="2.66667" fill="rgba(31, 119, 180, 1.0)"/><circle cx="184.91587" cy="147.04423" r="2.66667" fill="rgba(31, 119, 180, 1.0)"/><circle cx="90.09598" cy="56.80613" r="2.66667" fill="rgba(31, 119, 180, 1.0)"/><circle cx="76.47571" cy="61.42684" r="2.66667" fill="rgba(31, 119, 180, 1.0)"/><circle cx="120.02555" cy="121.30875" r="2.66667" fill="rgba(31, 119, 180, 1.0)"/><circle cx="142.05196" cy="123.99679" r="2.66667" fill="rgba(31, 119, 180, 1.0)"/><circle cx="115.05162" cy="129.83158" r="2.66667" fill="rgba(31, 119, 180, 1.0)"/><circle cx="185.48457" cy="155.81984" r="2.66667" fill="rgba(31, 119, 180, 1.0)"/><circle cx="171.00940" cy="163.07023" r="2.66667" fill="rgba(31, 119, 180, 1.0)"/><circle cx="108.93276" cy="97.68436" r="2.66667" fill="rgba(31, 119, 180, 1.0)"/><circle cx="72.32058" cy="70.21421" r="2.66667" fill="rgba(31, 119, 180, 1.0)"/><circle cx="195.60725" cy="153.13495" r="2.66667" fill="rgba(31, 119, 180, 1.0)"/><circle cx="191.97520" cy="180.12273" r="2.66667" fill="rgba(31, 119, 180, 1.0)"/><circle cx="112.33226" cy="102.39502" r="2.66667" fill="rgba(31, 119, 180, 1.0)"/><circle cx="143.98554" cy="120.51825" r="2.66667" fill="rgba(31, 119, 180, 1.0)"/><circle cx="122.07883" cy="95.02594" r="2.66667" fill="rgba(31, 119, 180, 1.0)"/><circle cx="145.50154" cy="112.44481" r="2.66667" fill="rgba(31, 119, 180, 1.0)"/><circle cx="113.51624" cy="104.56186" r="2.66667" fill="rgba(31, 119, 180, 1.0)"/><circle cx="88.77640" cy="78.72920" r="2.66667" fill="rgba(31, 119, 180, 1.0)"/><circle cx="125.02105" cy="121.64778" r="2.66667" fill="rgba(31, 119, 180, 1.0)"/><circle cx="161.38303" cy="115.78879" r="2.66667" fill="rgba(31, 119, 180, 1.0)"/><circle cx="126.82621" cy="112.09023" r="2.66667" fill="rgba(31, 119, 180, 1.0)"/><circle cx="67.19633" cy="64.12793" r="2.66667" fill="rgba(31, 119, 180, 1.0)"/><circle cx="153.30324" cy="136.54213" r="2.66667" fill="rgba(31, 119, 180, 1.0)"/><circle cx="106.64146" cy="94.83730" r="2.66667" fill="rgba(31, 119, 180, 1.0)"/><circle cx="200.75133" cy="168.74972" r="2.66667" fill="rgba(31, 119, 180, 1.0)"/><circle cx="149.12102" cy="143.05625" r="2.66667" fill="rgba(31, 119, 180, 1.0)"/><circle cx="101.88694" cy="78.78603" r="2.66667" fill="rgba(31, 119, 180, 1.0)"/><circle cx="110.41958" cy="67.80032" r="2.66667" fill="rgba(31, 119, 180, 1.0)"/><circle cx="149.69139" cy="148.97915" r="2.66667" fill="rgba(31, 119, 180, 1.0)"/><circle cx="185.80507" cy="154.88718" r="2.66667" fill="rgba(31, 119, 180, 1.0)"/><circle cx="147.61352" cy="105.24247" r="2.66667" fill="rgba(255, 127, 14, 1.0)"/><circle cx="172.61188" cy="76.92050" r="2.66667" fill="rgba(255, 127, 14, 1.0)"/><circle cx="122.81740" cy="129.51797" r="2.66667" fill="rgba(255, 127, 14, 1.0)"/><circle cx="177.03775" cy="76.11734" r="2.66667" fill="rgba(255, 127, 14, 1.0)"/><circle cx="138.18607" cy="113.06487" r="2.66667" fill="rgba(255, 127, 14, 1.0)"/><circle cx="110.50750" cy="142.38250" r="2.66667" fill="rgba(255, 127, 14, 1.0)"/><circle cx="67.19633" cy="183.68600" r="2.66667" fill="rgba(255, 127, 14, 1.0)"/><circle cx="125.69898" cy="127.23611" r="2.66667" fill="rgba(255, 127, 14, 1.0)"/><circle cx="103.71497" cy="149.99892" r="2.66667" fill="rgba(255, 127, 14, 1.0)"/><circle cx="200.75133" cy="50.13100" r="2.66667" fill="rgba(255, 127, 14, 1.0)"/><circle cx="110.57482" cy="142.77614" r="2.66667" fill="rgba(255, 127, 14, 1.0)"/><circle cx="136.20755" cy="117.45082" r="2.66667" fill="rgba(255, 127, 14, 1.0)"/><circle cx="160.60424" cy="93.54800" r="2.66667" fill="rgba(255, 127, 14, 1.0)"/><circle cx="101.41307" cy="147.38739" r="2.66667" fill="rgba(255, 127, 14, 1.0)"/><circle cx="153.74240" cy="98.60847" r="2.66667" fill="rgba(255, 127, 14, 1.0)"/><circle cx="138.38828" cy="113.85698" r="2.66667" fill="rgba(255, 127, 14, 1.0)"/><circle cx="125.96607" cy="123.31396" r="2.66667" fill="rgba(255, 127, 14, 1.0)"/><circle cx="96.24432" cy="160.88159" r="2.66667" fill="rgba(255, 127, 14, 1.0)"/><circle cx="125.92638" cy="127.63863" r="2.66667" fill="rgba(255, 127, 14, 1.0)"/><circle cx="158.97127" cy="96.92597" r="2.66667" fill="rgba(255, 127, 14, 1.0)"/><circle cx="160.61402" cy="92.27948" r="2.66667" fill="rgba(255, 127, 14, 1.0)"/><circle cx="160.86373" cy="91.75774" r="2.66667" fill="rgba(255, 127, 14, 1.0)"/><circle cx="131.82155" cy="134.02210" r="2.66667" fill="rgba(255, 127, 14, 1.0)"/><circle cx="78.36632" cy="179.99943" r="2.66667" fill="rgba(255, 127, 14, 1.0)"/><circle cx="101.96558" cy="142.27983" r="2.66667" fill="rgba(255, 127, 14, 1.0)"/><circle cx="108.76228" cy="142.39133" r="2.66667" fill="rgba(255, 127, 14, 1.0)"/><circle cx="99.07530" cy="145.43827" r="2.66667" fill="rgba(255, 127, 14, 1.0)"/><circle cx="164.90110" cy="85.81877" r="2.66667" fill="rgba(255, 127, 14, 1.0)"/><circle cx="115.96825" cy="135.69175" r="2.66667" fill="rgba(255, 127, 14, 1.0)"/><circle cx="116.63706" cy="143.64163" r="2.66667" fill="rgba(255, 127, 14, 1.0)"/><circle cx="135.08411" cy="120.94647" r="2.66667" fill="rgba(255, 127, 14, 1.0)"/><circle cx="153.94290" cy="98.50047" r="2.66667" fill="rgba(255, 127, 14, 1.0)"/><circle cx="91.73519" cy="164.27746" r="2.66667" fill="rgba(255, 127, 14, 1.0)"/><circle cx="105.88973" cy="148.92568" r="2.66667" fill="rgba(255, 127, 14, 1.0)"/><circle cx="137.36473" cy="112.67982" r="2.66667" fill="rgba(255, 127, 14, 1.0)"/><circle cx="137.38935" cy="114.67025" r="2.66667" fill="rgba(255, 127, 14, 1.0)"/><circle cx="119.88391" cy="129.60853" r="2.66667" fill="rgba(255, 127, 14, 1.0)"/><circle cx="118.10068" cy="137.94466" r="2.66667" fill="rgba(255, 127, 14, 1.0)"/><circle cx="162.54302" cy="93.27973" r="2.66667" fill="rgba(255, 127, 14, 1.0)"/><circle cx="113.18565" cy="135.12575" r="2.66667" fill="rgba(255, 127, 14, 1.0)"/><circle cx="136.78725" cy="111.13386" r="2.66667" fill="rgba(255, 127, 14, 1.0)"/><circle cx="118.22929" cy="133.08385" r="2.66667" fill="rgba(255, 127, 14, 1.0)"/><circle cx="95.60892" cy="156.24914" r="2.66667" fill="rgba(255, 127, 14, 1.0)"/><circle cx="127.32465" cy="123.45697" r="2.66667" fill="rgba(255, 127, 14, 1.0)"/><circle cx="118.69104" cy="135.57087" r="2.66667" fill="rgba(255, 127, 14, 1.0)"/><circle cx="138.91164" cy="110.16073" r="2.66667" fill="rgba(255, 127, 14, 1.0)"/><circle cx="92.47502" cy="157.53663" r="2.66667" fill="rgba(255, 127, 14, 1.0)"/><circle cx="141.62158" cy="114.29790" r="2.66667" fill="rgba(255, 127, 14, 1.0)"/><circle cx="79.05913" cy="175.12367" r="2.66667" fill="rgba(255, 127, 14, 1.0)"/><circle cx="128.27497" cy="127.31402" r="2.66667" fill="rgba(255, 127, 14, 1.0)"/><circle cx="130.42107" cy="121.70761" r="2.66667" fill="rgba(255, 127, 14, 1.0)"/><circle cx="119.02066" cy="132.82404" r="2.66667" fill="rgba(255, 127, 14, 1.0)"/><circle cx="111.69451" cy="142.73315" r="2.66667" fill="rgba(255, 127, 14, 1.0)"/><circle cx="121.01041" cy="127.51236" r="2.66667" fill="rgba(255, 127, 14, 1.0)"/><circle cx="151.44115" cy="106.51980" r="2.66667" fill="rgba(255, 127, 14, 1.0)"/><circle cx="119.16982" cy="132.32435" r="2.66667" fill="rgba(255, 127, 14, 1.0)"/><circle cx="150.45776" cy="105.24310" r="2.66667" fill="rgba(255, 127, 14, 1.0)"/><circle cx="117.52774" cy="133.24300" r="2.66667" fill="rgba(255, 127, 14, 1.0)"/><circle cx="102.65688" cy="145.41219" r="2.66667" fill="rgba(255, 127, 14, 1.0)"/><circle cx="98.84042" cy="150.03888" r="2.66667" fill="rgba(255, 127, 14, 1.0)"/><text id="132" fill="black" font-family="Ubuntu" font-weight="bold" font-size="9" text-anchor="start" alignment-baseline="baseline" x="2.25000" y="9.29700">A. Scatter plot (1 color per dataset) - linear scale</text><text id="133" fill="black" font-family="Ubuntu" font-weight="bold" font-size="9" text-anchor="start" alignment-baseline="baseline" x="121.73833" y="224.52000">x-axis</text><text id="134" fill="black" font-family="Ubuntu" font-weight="bold" font-size="9" text-anchor="start" alignment-baseline="baseline" x="2.25000" y="120.35550">y-axis</text><text id="135" fill="black" font-family="Ubuntu" font-weight="bold" font-size="9" text-anchor="start" alignment-baseline="baseline" x="119.09233" y="16.19100">x2-axis</text><text id="136" fill="black" font-family="Ubuntu" font-weight="bold" font-size="9" text-anchor="start" alignment-baseline="baseline" x="236.51067" y="120.35550">y2-axis</text><line x1="59.63733" y1="42.57200" x2="59.63733" y2="191.24500" stroke="black" stroke-linecap="square"/><line x1="54.30400" y1="179.13541" x2="59.63733" y2="179.13541" stroke="black" stroke-linecap="square"/><line x1="54.30400" y1="147.19690" x2="59.63733" y2="147.19690" stroke="black" stroke-linecap="square"/><line x1="54.30400" y1="115.25839" x2="59.63733" y2="115.25839" stroke="black" stroke-linecap="square"/><line x1="54.30400" y1="83.31988" x2="59.63733" y2="83.31988" stroke="black" stroke-linecap="square"/><line x1="54.30400" y1="51.38136" x2="59.63733" y2="51.38136" stroke="black" stroke-linecap="square"/><text id="144" fill="rgba(31, 119, 180, 1.0)" font-family="Ubuntu" font-weight="normal" font-size="9" text-anchor="start" alignment-baseline="baseline" x="37.89167" y="182.32591">1.0</text><text id="145" fill="rgba(31, 119, 180, 1.0)" font-family="Ubuntu" font-weight="normal" font-size="9" text-anchor="start" alignment-baseline="baseline" x="38.09867" y="150.31540">1.5</text><text id="146" fill="rgba(31, 119, 180, 1.0)" font-family="Ubuntu" font-weight="normal" font-size="9" text-anchor="start" alignment-baseline="baseline" x="37.55867" y="118.44889">2.0</text><text id="147" fill="rgba(31, 119, 180, 1.0)" font-family="Ubuntu" font-weight="normal" font-size="9" text-anchor="start" alignment-baseline="baseline" x="37.76567" y="86.51038">2.5</text><text id="148" fill="rgba(31, 119, 180, 1.0)" font-family="Ubuntu" font-weight="normal" font-size="9" text-anchor="start" alignment-baseline="baseline" x="37.54967" y="54.57186">3.0</text><line x1="59.63733" y1="42.57200" x2="208.31033" y2="42.57200" stroke="black" stroke-linecap="square"/><line x1="90.16804" y1="37.23867" x2="90.16804" y2="42.57200" stroke="black" stroke-linecap="square"/><text id="152" fill="rgba(255, 127, 14, 1.0)" font-family="Ubuntu" font-weight="normal" font-size="9" text-anchor="start" alignment-baseline="baseline" x="86.73454" y="33.23867">-2</text><line x1="116.80409" y1="37.23867" x2="116.80409" y2="42.57200" stroke="black" stroke-linecap="square"/><text id="154" fill="rgba(255, 127, 14, 1.0)" font-family="Ubuntu" font-weight="normal" font-size="9" text-anchor="start" alignment-baseline="baseline" x="114.71609" y="33.23867">0</text><line x1="143.44014" y1="37.23867" x2="143.44014" y2="42.57200" stroke="black" stroke-linecap="square"/><text id="156" fill="rgba(255, 127, 14, 1.0)" font-family="Ubuntu" font-weight="normal" font-size="9" text-anchor="start" alignment-baseline="baseline" x="141.48714" y="33.23867">2</text><line x1="170.07618" y1="37.23867" x2="170.07618" y2="42.57200" stroke="black" stroke-linecap="square"/><text id="158" fill="rgba(255, 127, 14, 1.0)" font-family="Ubuntu" font-weight="normal" font-size="9" text-anchor="start" alignment-baseline="baseline" x="167.90718" y="33.23867">4</text><line x1="196.71223" y1="37.23867" x2="196.71223" y2="42.57200" stroke="black" stroke-linecap="square"/><text id="160" fill="rgba(255, 127, 14, 1.0)" font-family="Ubuntu" font-weight="normal" font-size="9" text-anchor="start" alignment-baseline="baseline" x="194.68723" y="33.23867">6</text><line x1="208.31033" y1="42.57200" x2="208.31033" y2="191.24500" stroke="black" stroke-linecap="square"/><line x1="208.31033" y1="169.90296" x2="213.64367" y2="169.90296" stroke="black" stroke-linecap="square"/><line x1="208.31033" y1="138.94783" x2="213.64367" y2="138.94783" stroke="black" stroke-linecap="square"/><line x1="208.31033" y1="107.99270" x2="213.64367" y2="107.99270" stroke="black" stroke-linecap="square"/><line x1="208.31033" y1="77.03757" x2="213.64367" y2="77.03757" stroke="black" stroke-linecap="square"/><text id="167" fill="rgba(255, 127, 14, 1.0)" font-family="Ubuntu" font-weight="normal" font-size="9" text-anchor="start" alignment-baseline="baseline" x="218.97700" y="173.09346">-2</text><text id="168" fill="rgba(255, 127, 14, 1.0)" font-family="Ubuntu" font-weight="normal" font-size="9" text-anchor="start" alignment-baseline="baseline" x="218.97700" y="142.13833">0</text><text id="169" fill="rgba(255, 127, 14, 1.0)" font-family="Ubuntu" font-weight="normal" font-size="9" text-anchor="start" alignment-baseline="baseline" x="218.97700" y="111.18320">2</text><text id="170" fill="rgba(255, 127, 14, 1.0)" font-family="Ubuntu" font-weight="normal" font-size="9" text-anchor="start" alignment-baseline="baseline" x="218.97700" y="80.15607">4</text><line x1="59.63733" y1="191.24500" x2="208.31033" y2="191.24500" stroke="black" stroke-linecap="square"/><line x1="75.29034" y1="191.24500" x2="75.29034" y2="196.57833" stroke="black" stroke-linecap="square"/><text id="174" fill="rgba(31, 119, 180, 1.0)" font-family="Ubuntu" font-weight="normal" font-size="9" text-anchor="start" alignment-baseline="baseline" x="68.20733" y="206.95933">-1.5</text><line x1="94.18563" y1="191.24500" x2="94.18563" y2="196.57833" stroke="black" stroke-linecap="square"/><text id="176" fill="rgba(31, 119, 180, 1.0)" font-family="Ubuntu" font-weight="normal" font-size="9" text-anchor="start" alignment-baseline="baseline" x="86.99913" y="206.95933">-1.0</text><line x1="113.08093" y1="191.24500" x2="113.08093" y2="196.57833" stroke="black" stroke-linecap="square"/><text id="178" fill="rgba(31, 119, 180, 1.0)" font-family="Ubuntu" font-weight="normal" font-size="9" text-anchor="start" alignment-baseline="baseline" x="105.99793" y="206.95933">-0.5</text><line x1="131.97623" y1="191.24500" x2="131.97623" y2="196.57833" stroke="black" stroke-linecap="square"/><text id="180" fill="rgba(31, 119, 180, 1.0)" font-family="Ubuntu" font-weight="normal" font-size="9" text-anchor="start" alignment-baseline="baseline" x="126.24323" y="206.95933">0.0</text><line x1="150.87152" y1="191.24500" x2="150.87152" y2="196.57833" stroke="black" stroke-linecap="square"/><text id="182" fill="rgba(31, 119, 180, 1.0)" font-family="Ubuntu" font-weight="normal" font-size="9" text-anchor="start" alignment-baseline="baseline" x="145.24202" y="206.95933">0.5</text><line x1="169.76682" y1="191.24500" x2="169.76682" y2="196.57833" stroke="black" stroke-linecap="square"/><text id="184" fill="rgba(31, 119, 180, 1.0)" font-family="Ubuntu" font-weight="normal" font-size="9" text-anchor="start" alignment-baseline="baseline" x="164.22732" y="206.95933">1.0</text><line x1="188.66212" y1="191.24500" x2="188.66212" y2="196.57833" stroke="black" stroke-linecap="square"/><text id="186" fill="rgba(31, 119, 180, 1.0)" font-family="Ubuntu" font-weight="normal" font-size="9" text-anchor="start" alignment-baseline="baseline" x="183.22612" y="206.95933">1.5</text></svg>