<svg xmlns="http://www.w3.org/2000/svg" width="226.77165pt" height="113.38583pt" viewBox="0 0 226.7716535433071 113.3858267716535"><g id="0"/><g id="1"/><g id="2"/><g id="3"/><g id="4"/><g id="5"/><g id="6"/><g id="7"/><g id="8"/><g id="9"/><g id="10"/><g id="18"/><g id="20"/><g id="22"/><g id="24"/><path d="M 42.66459 67.60571L 44.34622 65.68303L 45.18704 64.68496L 46.02785 63.67132L 46.86867 62.64809L 47.70948 61.62032L 48.55030 60.59194L 49.39112 59.56556L 50.23193 58.54239L 51.07275 57.52226L 51.91356 56.50367L 52.75438 55.48396L 53.59519 54.45960L 54.43601 53.42645L 55.27683 52.38013L 56.11764 51.31642L 56.95846 50.23169L 57.79927 49.12325L 58.64009 47.98974L 59.48091 46.83150L 60.32172 45.65074L 61.16254 44.45182L 62.00335 43.24124L 62.84417 42.02764L 63.68498 40.82164L 64.52580 39.63555L 65.36662 38.48297L 66.20743 37.37829L 67.04825 36.33607L 67.88906 35.37042L 68.72988 34.49429L 69.57069 33.71883L 70.41151 33.05284L 71.25233 32.50219L 72.09314 32.06955L 72.93396 31.75416L 73.77477 31.55182L 74.61559 31.45504L 75.45640 31.45340L 76.29722 31.53400L 77.13804 31.68209L 77.97885 31.88170L 78.81967 32.11637L 79.66048 32.36987L 80.50130 32.62687L 81.34211 32.87355L 82.18293 33.09814L 83.02375 33.29130L 83.86456 33.44646L 84.70538 33.55996L 85.54619 33.63109L 86.38701 33.66204L 87.22782 33.65766L 88.06864 33.62514L 88.90946 33.57363L 89.75027 33.51371L 90.59109 33.45685L 91.43190 33.41476L 92.27272 33.39885L 93.11353 33.41954L 93.95435 33.48579L 94.79517 33.60456L 95.63598 33.78048L 96.47680 34.01557L 97.31761 34.30915L 98.15843 34.65790L 98.99924 35.05606L 99.84006 35.49581L 100.68088 35.96775L 101.52169 36.46152L 102.36251 36.96647L 103.20332 37.47234L 104.04414 37.96998L 104.88495 38.45189L 105.72577 38.91273L 106.56659 39.34961L 107.40740 39.76224L 108.24822 40.15277L 109.08903 40.52555L 109.92985 40.88659L 110.77066 41.24294L 111.61148 41.60195L 112.45230 41.97052L 113.29311 42.35435L 114.13393 42.75736L 114.97474 43.18121L 115.81556 43.62509L 116.65637 44.08577L 117.49719 44.55778L 118.33801 45.03399L 119.17882 45.50618L 120.01964 45.96595L 120.86045 46.40544L 121.70127 46.81822L 122.54209 47.19995L 123.38290 47.54889L 124.22372 47.86619L 125.06453 48.15594L 125.90535 48.42491L 126.74616 48.68205L 127.58698 48.93788L 128.42780 49.20360L 129.26861 49.49028L 130.10943 49.80797L 130.95024 50.16492L 131.79106 50.56698L 132.63187 51.01720L 133.47269 51.51560L 134.31351 52.05927L 135.15432 52.64262L 135.99514 53.25786L 136.83595 53.89561L 137.67677 54.54561L 138.51758 55.19748L 139.35840 55.84135L 140.19922 56.46855L 141.04003 57.07207L 141.88085 57.64688L 142.72166 58.19013L 143.56248 58.70110L 144.40329 59.18107L 145.24411 59.63305L 146.08493 60.06136L 146.92574 60.47121L 147.76656 60.86828L 148.60737 61.25828L 149.44819 61.64654L 150.28900 62.03776L 151.12982 62.43575L 151.97064 62.84333L 152.81145 63.26219L 153.65227 63.69300L 154.49308 64.13538L 155.33390 64.58809L 156.17471 65.04911L 157.01553 65.51581L 157.85635 65.98514L 158.69716 66.45378L 159.53798 66.91833L 160.37879 67.37543L 161.21961 67.82195L 162.06042 68.25510L 162.90124 68.67251L 163.74206 69.07231L 164.58287 69.45312L 165.42369 69.81408L 166.26450 70.15478L 167.10532 70.47516L 167.94613 70.77547L 168.78695 71.05617L 169.62777 71.31781L 170.46858 71.56103L 171.30940 71.78652L 172.15021 71.99499L 172.99103 72.18721L 173.83184 72.36407L 174.67266 72.52661L 175.51348 72.67604L 176.35429 72.81380L 177.19511 72.94154L 178.03592 73.06105L 178.87674 73.17426L 179.71755 73.28310L 180.55837 73.38943L 181.39919 73.49492L 182.24000 73.60096L 183.08082 73.70857L 183.92163 73.81840L 184.76245 73.93066L 185.60327 74.04518L 186.44408 74.16143L 187.28490 74.27862L 188.12571 74.39576L 188.96653 74.51176L 189.80734 74.62553L 190.64816 74.73603L 191.48898 74.84236L 192.32979 74.94379L 193.17061 75.03976L 194.01142 75.12990L 194.85224 75.21401L 195.69305 75.29204L 196.53387 75.36405L 197.37469 75.43018L 198.21550 75.49062L 199.05632 75.54559L 199.89713 75.59533L 200.73795 75.64010L 201.57876 75.68015L 202.41958 75.71577L 203.26040 75.74729L 204.10121 75.77506L 204.94203 75.79950L 205.78284 75.82105L 206.62366 75.84022L 207.46447 75.85753L 208.30529 75.87350L 209.14611 75.88864L 209.98692 75.90341L 210.82774 75.91821" stroke="rgba(31, 119, 180, 1.0)" fill="rgba(255, 255, 255, 0.0)" opacity="1" stroke-linecap="round"/><path d="M 40.11477 71.28615L 41.78118 69.36532L 42.61439 68.24130L 43.44759 67.01042L 44.28079 65.67791L 45.11400 64.25192L 45.94720 62.74338L 46.78041 61.16576L 47.61361 59.53458L 48.44682 57.86687L 49.28002 56.18050L 50.11322 54.49343L 50.94643 52.82304L 51.77963 51.18541L 52.61284 49.59485L 53.44604 48.06338L 54.27924 46.60055L 55.11245 45.21333L 55.94565 43.90616L 56.77886 42.68119L 57.61206 41.53857L 58.44527 40.47683L 59.27847 39.49329L 60.11167 38.58443L 60.94488 37.74628L 61.77808 36.97463L 62.61129 36.26533L 63.44449 35.61434L 64.27770 35.01790L 65.11090 34.47252L 65.94410 33.97503L 66.77731 33.52255L 67.61051 33.11255L 68.44372 32.74285L 69.27692 32.41165L 70.11013 32.11754L 70.94333 31.85951L 71.77653 31.63693L 72.60974 31.44943L 73.44294 31.29677L 74.27615 31.17864L 75.10935 31.09443L 75.94255 31.04296L 76.77576 31.02226L 77.60896 31.02939L 78.44217 31.06032L 79.27537 31.10994L 80.10858 31.17220L 80.94178 31.24035L 81.77498 31.30732L 82.60819 31.36612L 83.44139 31.41031L 84.27460 31.43455L 85.10780 31.43492L 85.94101 31.40936L 86.77421 31.35784L 87.60741 31.28254L 88.44062 31.18775L 89.27382 31.07975L 90.10703 30.96658L 90.94023 30.85763L 91.77343 30.76328L 92.60664 30.69441L 93.43984 30.66202L 94.27305 30.67675L 95.10625 30.74857L 95.93946 30.88638L 96.77266 31.09779L 97.60586 31.38893L 98.43907 31.76422L 99.27227 32.22632L 100.10548 32.77597L 100.93868 33.41200L 101.77189 34.13117L 102.60509 34.92824L 103.43829 35.79589L 104.27150 36.72480L 105.10470 37.70376L 105.93791 38.71982L 106.77111 39.75862L 107.60431 40.80479L 108.43752 41.84242L 109.27072 42.85567L 110.10393 43.82942L 110.93713 44.74992L 111.77034 45.60549L 112.60354 46.38701L 113.43674 47.08846L 114.26995 47.70713L 115.10315 48.24378L 115.93636 48.70250L 116.76956 49.09045L 117.60277 49.41738L 118.43597 49.69496L 119.26917 49.93615L 120.10238 50.15436L 120.93558 50.36271L 121.76879 50.57332L 122.60199 50.79669L 123.43520 51.04122L 124.26840 51.31292L 125.10160 51.61522L 125.93481 51.94903L 126.76801 52.31294L 127.60122 52.70351L 128.43442 53.11569L 129.26762 53.54337L 130.10083 53.97982L 130.93403 54.41828L 131.76724 54.85240L 132.60044 55.27664L 133.43365 55.68656L 134.26685 56.07908L 135.10005 56.45254L 135.93326 56.80671L 136.76646 57.14267L 137.59967 57.46266L 138.43287 57.76984L 139.26608 58.06804L 140.09928 58.36145L 140.93248 58.65441L 141.76569 58.95116L 142.59889 59.25565L 143.43210 59.57143L 144.26530 59.90155L 145.09850 60.24851L 145.93171 60.61428L 146.76491 61.00029L 147.59812 61.40745L 148.43132 61.83615L 149.26453 62.28628L 150.09773 62.75720L 150.93093 63.24773L 151.76414 63.75606L 152.59734 64.27978L 153.43055 64.81584L 154.26375 65.36056L 155.09696 65.90969L 155.93016 66.45849L 156.76336 67.00189L 157.59657 67.53468L 158.42977 68.05165L 159.26298 68.54789L 160.09618 69.01895L 160.92938 69.46109L 161.76259 69.87142L 162.59579 70.24807L 163.42900 70.59024L 164.26220 70.89821L 165.09541 71.17333L 165.92861 71.41790L 166.76181 71.63503L 167.59502 71.82847L 168.42822 72.00233L 169.26143 72.16092L 170.09463 72.30851L 170.92784 72.44906L 171.76104 72.58611L 172.59424 72.72259L 173.42745 72.86071L 174.26065 73.00194L 175.09386 73.14701L 175.92706 73.29589L 176.76027 73.44795L 177.59347 73.60203L 178.42667 73.75659L 179.25988 73.90985L 180.09308 74.05993L 180.92629 74.20501L 181.75949 74.34340L 182.59269 74.47370L 183.42590 74.59482L 184.25910 74.70604L 185.09231 74.80706L 185.92551 74.89792L 186.75872 74.97903L 187.59192 75.05111L 188.42512 75.11510L 189.25833 75.17210L 190.09153 75.22330L 190.92474 75.26989L 191.75794 75.31300L 192.59115 75.35361L 193.42435 75.39253L 194.25755 75.43039L 195.09076 75.46756L 195.92396 75.50424L 196.75717 75.54043L 197.59037 75.57601L 198.42357 75.61073L 199.25678 75.64435L 200.08998 75.67661L 200.92319 75.70731L 201.75639 75.73635L 202.58960 75.76371L 203.42280 75.78948L 204.25600 75.81385L 205.08921 75.83706L 205.92241 75.85939L 206.75562 75.88112" stroke="rgba(255, 127, 14, 1.0)" fill="rgba(255, 255, 255, 0.0)" opacity="1" stroke-linecap="round"/><path d="M 37.06464 73.55872L 38.68740 72.75137L 39.49879 72.29605L 40.31017 71.80684L 41.12155 71.28456L 41.93293 70.73034L 42.74431 70.14544L 43.55570 69.53122L 44.36708 68.88895L 45.17846 68.21970L 45.98984 67.52416L 46.80122 66.80260L 47.61261 66.05471L 48.42399 65.27961L 49.23537 64.47585L 50.04675 63.64152L 50.85814 62.77439L 51.66952 61.87215L 52.48090 60.93269L 53.29228 59.95436L 54.10366 58.93633L 54.91505 57.87885L 55.72643 56.78346L 56.53781 55.65312L 57.34919 54.49227L 58.16057 53.30668L 58.97196 52.10323L 59.78334 50.88956L 60.59472 49.67364L 61.40610 48.46325L 62.21748 47.26551L 63.02887 46.08641L 63.84025 44.93046L 64.65163 43.80045L 65.46301 42.69739L 66.27439 41.62059L 67.08578 40.56794L 67.89716 39.53625L 68.70854 38.52176L 69.51992 37.52063L 70.33130 36.52943L 71.14269 35.54559L 71.95407 34.56776L 72.76545 33.59600L 73.57683 32.63191L 74.38822 31.67863L 75.19960 30.74071L 76.01098 29.82396L 76.82236 28.93523L 77.63374 28.08219L 78.44513 27.27309L 79.25651 26.51655L 80.06789 25.82131L 80.87927 25.19606L 81.69065 24.64911L 82.50204 24.18819L 83.31342 23.82010L 84.12480 23.55042L 84.93618 23.38319L 85.74756 23.32061L 86.55895 23.36288L 87.37033 23.50801L 88.18171 23.75190L 88.99309 24.08844L 89.80447 24.50982L 90.61586 25.00690L 91.42724 25.56970L 92.23862 26.18785L 93.05000 26.85108L 93.86138 27.54960L 94.67277 28.27436L 95.48415 29.01720L 96.29553 29.77091L 97.10691 30.52909L 97.91829 31.28603L 98.72968 32.03657L 99.54106 32.77592L 100.35244 33.49960L 101.16382 34.20345L 101.97521 34.88377L 102.78659 35.53745L 103.59797 36.16223L 104.40935 36.75698L 105.22073 37.32183L 106.03212 37.85835L 106.84350 38.36950L 107.65488 38.85955L 108.46626 39.33378L 109.27764 39.79813L 110.08903 40.25871L 110.90041 40.72134L 111.71179 41.19106L 112.52317 41.67170L 113.33455 42.16559L 114.14594 42.67340L 114.95732 43.19404L 115.76870 43.72489L 116.58008 44.26195L 117.39146 44.80030L 118.20285 45.33450L 119.01423 45.85906L 119.82561 46.36893L 120.63699 46.85996L 121.44837 47.32918L 122.25976 47.77509L 123.07114 48.19774L 123.88252 48.59878L 124.69390 48.98128L 125.50528 49.34950L 126.31667 49.70862L 127.12805 50.06429L 127.93943 50.42228L 128.75081 50.78807L 129.56220 51.16650L 130.37358 51.56147L 131.18496 51.97572L 131.99634 52.41076L 132.80772 52.86683L 133.61911 53.34297L 134.43049 53.83722L 135.24187 54.34684L 136.05325 54.86856L 136.86463 55.39886L 137.67602 55.93425L 138.48740 56.47145L 139.29878 57.00761L 140.11016 57.54038L 140.92154 58.06795L 141.73293 58.58906L 142.54431 59.10290L 143.35569 59.60901L 144.16707 60.10717L 144.97845 60.59732L 145.78984 61.07936L 146.60122 61.55318L 147.41260 62.01850L 148.22398 62.47491L 149.03536 62.92181L 149.84675 63.35841L 150.65813 63.78377L 151.46951 64.19678L 152.28089 64.59621L 153.09228 64.98068L 153.90366 65.34878L 154.71504 65.69904L 155.52642 66.03007L 156.33780 66.34063L 157.14919 66.62975L 157.96057 66.89689L 158.77195 67.14205L 159.58333 67.36591L 160.39471 67.56990L 161.20610 67.75630L 162.01748 67.92819L 162.82886 68.08937L 163.64024 68.24423L 164.45162 68.39754L 165.26301 68.55422L 166.07439 68.71902L 166.88577 68.89628L 167.69715 69.08962L 168.50853 69.30174L 169.31992 69.53425L 170.13130 69.78756L 170.94268 70.06085L 171.75406 70.35213L 172.56544 70.65837L 173.37683 70.97567L 174.18821 71.29952L 174.99959 71.62502L 175.81097 71.94719L 176.62235 72.26123L 177.43374 72.56272L 178.24512 72.84790L 179.05650 73.11377L 179.86788 73.35818L 180.67927 73.57992L 181.49065 73.77865L 182.30203 73.95487L 183.11341 74.10977L 183.92479 74.24512L 184.73618 74.36310L 185.54756 74.46611L 186.35894 74.55665L 187.17032 74.63718L 187.98170 74.70996L 188.79309 74.77705L 189.60447 74.84016L 190.41585 74.90074L 191.22723 74.95989L 192.03861 75.01843L 192.85000 75.07691L 193.66138 75.13567L 194.47276 75.19488L 195.28414 75.25455L 196.09552 75.31460L 196.90691 75.37483L 197.71829 75.43501L 198.52967 75.49482L 199.34105 75.55393" stroke="rgba(44, 160, 44, 1.0)" fill="rgba(255, 255, 255, 0.0)" opacity="1" stroke-linecap="round"/><path d="M 36.29461 72.73875L 38.10602 71.48676L 39.01172 70.77387L 39.91742 70.00593L 40.82312 69.18596L 41.72883 68.31731L 42.63453 67.40347L 43.54023 66.44775L 44.44593 65.45306L 45.35164 64.42176L 46.25734 63.35556L 47.16304 62.25552L 48.06874 61.12215L 48.97444 59.95560L 49.88015 58.75590L 50.78585 57.52330L 51.69155 56.25858L 52.59725 54.96340L 53.50295 53.64056L 54.40866 52.29427L 55.31436 50.93025L 56.22006 49.55578L 57.12576 48.17964L 58.03147 46.81189L 58.93717 45.46360L 59.84287 44.14647L 60.74857 42.87241L 61.65427 41.65301L 62.55998 40.49912L 63.46568 39.42033L 64.37138 38.42462L 65.27708 37.51795L 66.18278 36.70411L 67.08849 35.98451L 67.99419 35.35821L 68.89989 34.82210L 69.80559 34.37103L 70.71130 33.99830L 71.61700 33.69598L 72.52270 33.45545L 73.42840 33.26789L 74.33410 33.12473L 75.23981 33.01801L 76.14551 32.94073L 77.05121 32.88693L 77.95691 32.85177L 78.86261 32.83142L 79.76832 32.82290L 80.67402 32.82386L 81.57972 32.83236L 82.48542 32.84670L 83.39112 32.86530L 84.29683 32.88669L 85.20253 32.90960L 86.10823 32.93306L 87.01393 32.95656L 87.91964 32.98018L 88.82534 33.00464L 89.73104 33.03128L 90.63674 33.06190L 91.54244 33.09849L 92.44815 33.14293L 93.35385 33.19660L 94.25955 33.26010L 95.16525 33.33299L 96.07095 33.41375L 96.97666 33.49985L 97.88236 33.58809L 98.78806 33.67505L 99.69376 33.75768L 100.59947 33.83403L 101.50517 33.90381L 102.41087 33.96900L 103.31657 34.03419L 104.22227 34.10668L 105.12798 34.19633L 106.03368 34.31509L 106.93938 34.47630L 107.84508 34.69376L 108.75078 34.98069L 109.65649 35.34866L 110.56219 35.80664L 111.46789 36.36016L 112.37359 37.01075L 113.27929 37.75573L 114.18500 38.58827L 115.09070 39.49779L 115.99640 40.47067L 116.90210 41.49107L 117.80781 42.54199L 118.71351 43.60628L 119.61921 44.66759L 120.52491 45.71124L 121.43061 46.72486L 122.33632 47.69880L 123.24202 48.62633L 124.14772 49.50364L 125.05342 50.32959L 125.95912 51.10538L 126.86483 51.83406L 127.77053 52.52002L 128.67623 53.16848L 129.58193 53.78497L 130.48764 54.37490L 131.39334 54.94325L 132.29904 55.49431L 133.20474 56.03156L 134.11044 56.55766L 135.01615 57.07452L 135.92185 57.58349L 136.82755 58.08546L 137.73325 58.58114L 138.63895 59.07116L 139.54466 59.55622L 140.45036 60.03710L 141.35606 60.51459L 142.26176 60.98944L 143.16747 61.46214L 144.07317 61.93275L 144.97887 62.40072L 145.88457 62.86481L 146.79027 63.32301L 147.69598 63.77260L 148.60168 64.21028L 149.50738 64.63244L 150.41308 65.03543L 151.31878 65.41589L 152.22449 65.77107L 153.13019 66.09915L 154.03589 66.39946L 154.94159 66.67260L 155.84729 66.92049L 156.75300 67.14630L 157.65870 67.35424L 158.56440 67.54936L 159.47010 67.73718L 160.37581 67.92334L 161.28151 68.11328L 162.18721 68.31186L 163.09291 68.52312L 163.99861 68.75001L 164.90432 68.99437L 165.81002 69.25677L 166.71572 69.53663L 167.62142 69.83230L 168.52712 70.14123L 169.43283 70.46016L 170.33853 70.78534L 171.24423 71.11276L 172.14993 71.43832L 173.05564 71.75806L 173.96134 72.06833L 174.86704 72.36588L 175.77274 72.64801L 176.67844 72.91263L 177.58415 73.15830L 178.48985 73.38425L 179.39555 73.59033L 180.30125 73.77693L 181.20695 73.94494L 182.11266 74.09557L 183.01836 74.23024L 183.92406 74.35044L 184.82976 74.45765L 185.73546 74.55317L 186.64117 74.63815L 187.54687 74.71349L 188.45257 74.77992L 189.35827 74.83801L 190.26398 74.88825L 191.16968 74.93117L 192.07538 74.96734L 192.98108 74.99753L 193.88678 75.02266L 194.79249 75.04387L 195.69819 75.06243L 196.60389 75.07974L 197.50959 75.09721L 198.41529 75.11617L 199.32100 75.13782L 200.22670 75.16307L 201.13240 75.19252L 202.03810 75.22645L 202.94381 75.26475L 203.84951 75.30698L 204.75521 75.35242L 205.66091 75.40013L 206.56661 75.44905L 207.47232 75.49809L 208.37802 75.54621L 209.28372 75.59251L 210.18942 75.63628L 211.09512 75.67704L 212.00083 75.71457L 212.90653 75.74888L 213.81223 75.78019L 214.71793 75.80886L 215.62364 75.83538L 216.52934 75.86027L 217.43504 75.88401" stroke="rgba(214, 39, 40, 1.0)" fill="rgba(255, 255, 255, 0.0)" opacity="1" stroke-linecap="round"/><text id="15" x="2.25px" y="9.2340002059937px" fill="black" font-family="Ubuntu" font-weight="bold" font-size="9" text-anchor="start" alignment-baseline="baseline">A. Probability distributions</text><text id="16" x="124.7363268784651px" y="111.1358267716535px" fill="black" font-family="Ubuntu" font-weight="bold" font-size="9" text-anchor="start" alignment-baseline="baseline">ğœƒ</text><text id="17" x="2.25px" y="53.106913420159px" fill="black" font-family="Ubuntu" font-weight="bold" font-size="9" text-anchor="start" alignment-baseline="baseline">P(ğœƒ)</text><line x1="29.2080001831055px" y1="16.2340002059937px" x2="29.2080001831055px" y2="83.0048267296919px" stroke="black" stroke-linecap="square"/><line x1="29.2080001831055px" y1="16.234000205993702px" x2="224.5216535433071px" y2="16.234000205993702px" stroke="black" stroke-linecap="square"/><line x1="224.5216535433071px" y1="16.2340002059937px" x2="224.5216535433071px" y2="83.0048267296919px" stroke="black" stroke-linecap="square"/><line x1="29.2080001831055px" y1="83.0048267296919px" x2="224.5216535433071px" y2="83.0048267296919px" stroke="black" stroke-linecap="square"/><line x1="59.05595711421505px" y1="83.0048267296919px" x2="59.05595711421505px" y2="87.0048267296919px" stroke="black" stroke-linecap="square"/><text id="27" x="53.9754569883301px" y="96.3858267716535px" fill="black" font-family="Ubuntu" font-weight="regular" font-size="9" text-anchor="start" alignment-baseline="baseline">0.1</text><line x1="85.00459729402219px" y1="83.0048267296919px" x2="85.00459729402219px" y2="87.0048267296919px" stroke="black" stroke-linecap="square"/><text id="29" x="79.3795972940222px" y="96.3858267716535px" fill="black" font-family="Ubuntu" font-weight="regular" font-size="9" text-anchor="start" alignment-baseline="baseline">0.2</text><line x1="110.95323747382933px" y1="83.0048267296919px" x2="110.95323747382933px" y2="87.0048267296919px" stroke="black" stroke-linecap="square"/><text id="31" x="105.3327373860913px" y="96.3858267716535px" fill="black" font-family="Ubuntu" font-weight="regular" font-size="9" text-anchor="start" alignment-baseline="baseline">0.3</text><line x1="136.90187765363646px" y1="83.0048267296919px" x2="136.90187765363646px" y2="87.0048267296919px" stroke="black" stroke-linecap="square"/><text id="33" x="131.1328776002307px" y="96.3858267716535px" fill="black" font-family="Ubuntu" font-weight="regular" font-size="9" text-anchor="start" alignment-baseline="baseline">0.4</text><line x1="162.8505178334436px" y1="83.0048267296919px" x2="162.8505178334436px" y2="87.0048267296919px" stroke="black" stroke-linecap="square"/><text id="35" x="157.2210179211817px" y="96.3858267716535px" fill="black" font-family="Ubuntu" font-weight="regular" font-size="9" text-anchor="start" alignment-baseline="baseline">0.5</text><line x1="188.79915801325075px" y1="83.0048267296919px" x2="188.79915801325075px" y2="87.0048267296919px" stroke="black" stroke-linecap="square"/><text id="37" x="183.070658123877px" y="96.3858267716535px" fill="black" font-family="Ubuntu" font-weight="regular" font-size="9" text-anchor="start" alignment-baseline="baseline">0.6</text><line x1="214.7477981930579px" y1="83.0048267296919px" x2="214.7477981930579px" y2="87.0048267296919px" stroke="black" stroke-linecap="square"/><text id="39" x="209.073298204502px" y="96.3858267716535px" fill="black" font-family="Ubuntu" font-weight="regular" font-size="9" text-anchor="start" alignment-baseline="baseline">0.7</text></svg>