<svg xmlns="http://www.w3.org/2000/svg" width="226.77000pt" height="113.38500pt" viewBox="0 0 302.36000 151.18000"><g id="0"/><g id="1"/><g id="2"/><g id="3"/><g id="4"/><g id="5"/><g id="6"/><g id="7"/><g id="8"/><g id="9"/><g id="10"/><g id="18"/><g id="20"/><g id="22"/><g id="24"/><path d="M 43.67579 93.97035L 46.05227 91.10689L 47.24052 89.62045L 48.42876 88.11083L 49.61700 86.58691L 50.80524 85.05624L 51.99348 83.52466L 53.18172 81.99607L 54.36996 80.47226L 55.55820 78.95296L 56.74644 77.43596L 57.93468 75.91730L 59.12292 74.39171L 60.31116 72.85302L 61.49940 71.29473L 62.68764 69.71054L 63.87588 68.09504L 65.06412 66.44422L 66.25236 64.75608L 67.44060 63.03109L 68.62884 61.27258L 69.81708 59.48702L 71.00532 57.68408L 72.19356 55.87665L 73.38180 54.08054L 74.57004 52.31409L 75.75828 50.59754L 76.94652 48.95233L 78.13476 47.40015L 79.32300 45.96199L 80.51124 44.65715L 81.69948 43.50226L 82.88772 42.51038L 84.07596 41.69030L 85.26420 41.04597L 86.45244 40.57626L 87.64068 40.27490L 88.82892 40.13077L 90.01716 40.12832L 91.20540 40.24837L 92.39364 40.46893L 93.58188 40.76620L 94.77012 41.11570L 95.95836 41.49324L 97.14660 41.87599L 98.33484 42.24337L 99.52308 42.57785L 100.71132 42.86553L 101.89956 43.09662L 103.08780 43.26565L 104.27604 43.37159L 105.46428 43.41768L 106.65252 43.41115L 107.84076 43.36272L 109.02900 43.28601L 110.21724 43.19678L 111.40548 43.11209L 112.59372 43.04941L 113.78196 43.02570L 114.97020 43.05652L 116.15844 43.15518L 117.34668 43.33207L 118.53492 43.59407L 119.72316 43.94419L 120.91140 44.38143L 122.09964 44.90082L 123.28788 45.49380L 124.47612 46.14873L 125.66436 46.85159L 126.85260 47.58697L 128.04084 48.33900L 129.22908 49.09241L 130.41732 49.83354L 131.60556 50.55125L 132.79380 51.23758L 133.98204 51.88824L 135.17028 52.50277L 136.35852 53.08440L 137.54676 53.63958L 138.73500 54.17728L 139.92324 54.70800L 141.11148 55.24268L 142.29972 55.79159L 143.48796 56.36323L 144.67620 56.96343L 145.86444 57.59467L 147.05268 58.25576L 148.24092 58.94185L 149.42916 59.64483L 150.61740 60.35404L 151.80564 61.05729L 152.99388 61.74202L 154.18212 62.39656L 155.37036 63.01132L 156.55860 63.57983L 157.74684 64.09951L 158.93508 64.57207L 160.12333 65.00361L 161.31157 65.40418L 162.49981 65.78714L 163.68805 66.16815L 164.87629 66.56389L 166.06453 66.99085L 167.25277 67.46398L 168.44101 67.99559L 169.62925 68.59439L 170.81749 69.26491L 172.00573 70.00718L 173.19397 70.81688L 174.38221 71.68566L 175.57045 72.60194L 176.75869 73.55175L 177.94693 74.51981L 179.13517 75.49064L 180.32341 76.44956L 181.51165 77.38366L 182.69989 78.28249L 183.88813 79.13856L 185.07637 79.94762L 186.26461 80.70861L 187.45285 81.42345L 188.64109 82.09659L 189.82933 82.73447L 191.01757 83.34487L 192.20581 83.93623L 193.39405 84.51705L 194.58229 85.09529L 195.77053 85.67794L 196.95877 86.27068L 198.14701 86.87768L 199.33525 87.50150L 200.52349 88.14311L 201.71173 88.80196L 202.89997 89.47618L 204.08821 90.16278L 205.27645 90.85784L 206.46469 91.55682L 207.65293 92.25477L 208.84117 92.94662L 210.02941 93.62739L 211.21765 94.29240L 212.40589 94.93749L 213.59413 95.55915L 214.78237 96.15457L 215.97061 96.72172L 217.15885 97.25931L 218.34709 97.76671L 219.53533 98.24385L 220.72357 98.69111L 221.91181 99.10915L 223.10005 99.49882L 224.28829 99.86106L 225.47653 100.19688L 226.66477 100.50735L 227.85301 100.79363L 229.04125 101.05703L 230.22949 101.29910L 231.41773 101.52165L 232.60597 101.72682L 233.79421 101.91705L 234.98245 102.09504L 236.17069 102.26365L 237.35893 102.42575L 238.54717 102.58411L 239.73541 102.74122L 240.92365 102.89913L 242.11189 103.05941L 243.30013 103.22298L 244.48837 103.39017L 245.67661 103.56072L 246.86485 103.73386L 248.05309 103.90839L 249.24133 104.08285L 250.42957 104.25560L 251.61781 104.42504L 252.80605 104.58961L 253.99429 104.74797L 255.18253 104.89903L 256.37077 105.04196L 257.55901 105.17620L 258.74725 105.30147L 259.93549 105.41769L 261.12373 105.52494L 262.31197 105.62342L 263.50021 105.71344L 264.68845 105.79530L 265.87669 105.86938L 267.06493 105.93605L 268.25317 105.99570L 269.44141 106.04875L 270.62965 106.09569L 271.81790 106.13705L 273.00614 106.17344L 274.19438 106.20554L 275.38262 106.23409L 276.57086 106.25987L 277.75910 106.28365L 278.94734 106.30620L 280.13558 106.32821L 281.32382 106.35025" stroke="rgba(31, 119, 180, 1.0)" fill="rgba(255, 255, 255, 0.0)" opacity="1" stroke-width="1" stroke-linecap="round"/><path d="M 40.07240 99.45166L 42.42736 96.59096L 43.60485 94.91694L 44.78233 93.08378L 45.95981 91.09926L 47.13730 88.97552L 48.31478 86.72884L 49.49226 84.37926L 50.66975 81.94993L 51.84723 79.46620L 53.02471 76.95467L 54.20220 74.44210L 55.37968 71.95436L 56.55716 69.51543L 57.73465 67.14658L 58.91213 64.86574L 60.08962 62.68714L 61.26710 60.62114L 62.44458 58.67436L 63.62207 56.85000L 64.79955 55.14828L 65.97703 53.56702L 67.15452 52.10222L 68.33200 50.74865L 69.50948 49.50038L 70.68697 48.35116L 71.86445 47.29478L 73.04193 46.32526L 74.21942 45.43698L 75.39690 44.62474L 76.57438 43.88382L 77.75187 43.20994L 78.92935 42.59933L 80.10683 42.04873L 81.28432 41.55546L 82.46180 41.11743L 83.63929 40.73315L 84.81677 40.40166L 85.99425 40.12242L 87.17174 39.89506L 88.34922 39.71913L 89.52670 39.59371L 90.70419 39.51706L 91.88167 39.48623L 93.05915 39.49685L 94.23664 39.54291L 95.41412 39.61680L 96.59160 39.70953L 97.76909 39.81104L 98.94657 39.91077L 100.12405 39.99834L 101.30154 40.06416L 102.47902 40.10025L 103.65651 40.10080L 104.83399 40.06273L 106.01147 39.98601L 107.18896 39.87386L 108.36644 39.73269L 109.54392 39.57185L 110.72141 39.40330L 111.89889 39.24105L 113.07637 39.10052L 114.25386 38.99795L 115.43134 38.94971L 116.60882 38.97166L 117.78631 39.07862L 118.96379 39.28385L 120.14127 39.59872L 121.31876 40.03231L 122.49624 40.59124L 123.67373 41.27944L 124.85121 42.09805L 126.02869 43.04529L 127.20618 44.11636L 128.38366 45.30344L 129.56114 46.59564L 130.73863 47.97908L 131.91611 49.43705L 133.09359 50.95028L 134.27108 52.49739L 135.44856 54.05546L 136.62604 55.60081L 137.80353 57.10985L 138.98101 58.56006L 140.15849 59.93098L 141.33598 61.20518L 142.51346 62.36912L 143.69094 63.41379L 144.86843 64.33518L 146.04591 65.13441L 147.22340 65.81760L 148.40088 66.39538L 149.57836 66.88227L 150.75585 67.29568L 151.93333 67.65489L 153.11081 67.97987L 154.28830 68.29017L 155.46578 68.60383L 156.64326 68.93649L 157.82075 69.30068L 158.99823 69.70532L 160.17571 70.15554L 161.35320 70.65269L 162.53068 71.19467L 163.70816 71.77634L 164.88565 72.39021L 166.06313 73.02715L 167.24062 73.67716L 168.41810 74.33018L 169.59558 74.97672L 170.77307 75.60853L 171.95055 76.21903L 173.12803 76.80362L 174.30552 77.35982L 175.48300 77.88728L 176.66048 78.38763L 177.83797 78.86420L 179.01545 79.32169L 180.19293 79.76580L 181.37042 80.20278L 182.54790 80.63909L 183.72538 81.08104L 184.90287 81.53452L 186.08035 82.00482L 187.25784 82.49646L 188.43532 83.01320L 189.61280 83.55795L 190.79029 84.13283L 191.96777 84.73921L 193.14525 85.37768L 194.32274 86.04806L 195.50022 86.74942L 196.67770 87.47996L 197.85519 88.23702L 199.03267 89.01701L 200.21015 89.81537L 201.38764 90.62663L 202.56512 91.44444L 203.74260 92.26178L 204.92009 93.07108L 206.09757 93.86456L 207.27505 94.63450L 208.45254 95.37355L 209.63002 96.07510L 210.80751 96.73358L 211.98499 97.34470L 213.16247 97.90565L 214.33996 98.41524L 215.51744 98.87390L 216.69492 99.28364L 217.87241 99.64788L 219.04989 99.97127L 220.22737 100.25935L 221.40486 100.51828L 222.58234 100.75448L 223.75982 100.97428L 224.93731 101.18361L 226.11479 101.38772L 227.29227 101.59097L 228.46976 101.79667L 229.64724 102.00702L 230.82473 102.22306L 232.00221 102.44479L 233.17969 102.67126L 234.35718 102.90073L 235.53466 103.13092L 236.71214 103.35917L 237.88963 103.58270L 239.06711 103.79876L 240.24459 104.00487L 241.42208 104.19892L 242.59956 104.37930L 243.77704 104.54495L 244.95453 104.69539L 246.13201 104.83071L 247.30949 104.95152L 248.48698 105.05887L 249.66446 105.15417L 250.84195 105.23906L 252.01943 105.31531L 253.19691 105.38470L 254.37440 105.44890L 255.55188 105.50938L 256.72936 105.56735L 257.90685 105.62373L 259.08433 105.67909L 260.26181 105.73372L 261.43930 105.78762L 262.61678 105.84060L 263.79426 105.89231L 264.97175 105.94238L 266.14923 105.99042L 267.32671 106.03615L 268.50420 106.07940L 269.68168 106.12014L 270.85917 106.15853L 272.03665 106.19482L 273.21413 106.22939L 274.39162 106.26265L 275.56910 106.29501" stroke="rgba(255, 127, 14, 1.0)" fill="rgba(255, 255, 255, 0.0)" opacity="1" stroke-width="1" stroke-linecap="round"/><path d="M 35.76195 102.83624L 38.05524 101.63384L 39.20188 100.95573L 40.34853 100.22714L 41.49517 99.44931L 42.64182 98.62389L 43.78846 97.75280L 44.93511 96.83804L 46.08175 95.88150L 47.22839 94.88477L 48.37504 93.84890L 49.52168 92.77427L 50.66833 91.66044L 51.81497 90.50607L 52.96162 89.30902L 54.10826 88.06644L 55.25491 86.77501L 56.40155 85.43130L 57.54819 84.03215L 58.69484 82.57511L 59.84148 81.05896L 60.98813 79.48404L 62.13477 77.85265L 63.28142 76.16923L 64.42806 74.44037L 65.57471 72.67465L 66.72135 70.88234L 67.86799 69.07481L 69.01464 67.26392L 70.16128 65.46128L 71.30793 63.67747L 72.45457 61.92143L 73.60122 60.19986L 74.74786 58.51692L 75.89451 56.87412L 77.04115 55.27043L 78.18780 53.70270L 79.33444 52.16620L 80.48108 50.65531L 81.62773 49.16431L 82.77437 47.68811L 83.92102 46.22287L 85.06766 44.76658L 86.21431 43.31932L 87.36095 41.88349L 88.50760 40.46376L 89.65424 39.06691L 90.80088 37.70158L 91.94753 36.37799L 93.09417 35.10755L 94.24082 33.90255L 95.38746 32.77582L 96.53411 31.74040L 97.68075 30.80921L 98.82740 29.99463L 99.97404 29.30818L 101.12068 28.75998L 102.26733 28.35834L 103.41397 28.10927L 104.56062 28.01608L 105.70726 28.07903L 106.85391 28.29518L 108.00055 28.65840L 109.14720 29.15962L 110.29384 29.78718L 111.44048 30.52749L 112.58713 31.36567L 113.73377 32.28629L 114.88042 33.27405L 116.02706 34.31436L 117.17371 35.39374L 118.32035 36.50008L 119.46700 37.62258L 120.61364 38.75174L 121.76028 39.87907L 122.90693 40.99685L 124.05357 42.09797L 125.20022 43.17575L 126.34686 44.22401L 127.49351 45.23722L 128.64015 46.21074L 129.78680 47.14125L 130.93344 48.02701L 132.08008 48.86825L 133.22673 49.66728L 134.37337 50.42855L 135.52002 51.15838L 136.66666 51.86466L 137.81331 52.55622L 138.95995 53.24218L 140.10660 53.93118L 141.25324 54.63073L 142.39989 55.34655L 143.54653 56.08211L 144.69317 56.83839L 145.83982 57.61379L 146.98646 58.40438L 148.13311 59.20424L 149.27975 60.00602L 150.42640 60.80160L 151.57304 61.58283L 152.71969 62.34219L 153.86633 63.07349L 155.01297 63.77230L 156.15962 64.43639L 157.30626 65.06586L 158.45291 65.66313L 159.59955 66.23278L 160.74620 66.78119L 161.89284 67.31602L 163.03949 67.84572L 164.18613 68.37888L 165.33277 68.92366L 166.47942 69.48726L 167.62606 70.07549L 168.77271 70.69244L 169.91935 71.34036L 171.06600 72.01958L 172.21264 72.72870L 173.35929 73.46480L 174.50593 74.22378L 175.65257 75.00078L 176.79922 75.79056L 177.94586 76.58791L 179.09251 77.38797L 180.23915 78.18648L 181.38580 78.97994L 182.53244 79.76566L 183.67909 80.54176L 184.82573 81.30702L 185.97237 82.06077L 187.11902 82.80270L 188.26566 83.53267L 189.41231 84.25059L 190.55895 84.95625L 191.70560 85.64926L 192.85224 86.32900L 193.99889 86.99456L 195.14553 87.64480L 196.29217 88.27829L 197.43882 88.89340L 198.58546 89.48826L 199.73211 90.06087L 200.87875 90.60908L 202.02540 91.13072L 203.17204 91.62373L 204.31869 92.08625L 205.46533 92.51685L 206.61198 92.91470L 207.75862 93.27982L 208.90526 93.61321L 210.05191 93.91702L 211.19855 94.19463L 212.34520 94.45063L 213.49184 94.69067L 214.63849 94.92130L 215.78513 95.14964L 216.93178 95.38298L 218.07842 95.62842L 219.22506 95.89241L 220.37171 96.18035L 221.51835 96.49626L 222.66500 96.84255L 223.81164 97.21980L 224.95829 97.62682L 226.10493 98.06062L 227.25158 98.51671L 228.39822 98.98928L 229.54486 99.47158L 230.69151 99.95636L 231.83815 100.43617L 232.98480 100.90386L 234.13144 101.35288L 235.27809 101.77761L 236.42473 102.17356L 237.57138 102.53757L 238.71802 102.86781L 239.86466 103.16378L 241.01131 103.42622L 242.15795 103.65692L 243.30460 103.85850L 244.45124 104.03420L 245.59789 104.18762L 246.74453 104.32247L 247.89118 104.44239L 249.03782 104.55079L 250.18446 104.65070L 251.33111 104.74470L 252.47775 104.83492L 253.62440 104.92301L 254.77104 105.01019L 255.91769 105.09728L 257.06433 105.18480L 258.21098 105.27298L 259.35762 105.36186L 260.50426 105.45128L 261.65091 105.54099L 262.79755 105.63061L 263.94420 105.71969L 265.09084 105.80772" stroke="rgba(44, 160, 44, 1.0)" fill="rgba(255, 255, 255, 0.0)" opacity="1" stroke-width="1" stroke-linecap="round"/><path d="M 34.67375 101.61504L 37.23362 99.75044L 38.51356 98.68872L 39.79350 97.54503L 41.07344 96.32383L 42.35337 95.03015L 43.63331 93.66916L 44.91325 92.24579L 46.19319 90.76438L 47.47312 89.22846L 48.75306 87.64056L 50.03300 86.00226L 51.31294 84.31432L 52.59287 82.57696L 53.87281 80.79023L 55.15275 78.95450L 56.43269 77.07095L 57.71262 75.14202L 58.99256 73.17190L 60.27250 71.16686L 61.55244 69.13541L 62.83237 67.08840L 64.11231 65.03890L 65.39225 63.00189L 66.67219 60.99386L 67.95212 59.03226L 69.23206 57.13478L 70.51200 55.31872L 71.79194 53.60021L 73.07187 51.99356L 74.35181 50.51063L 75.63175 49.16033L 76.91169 47.94827L 78.19162 46.87655L 79.47156 45.94381L 80.75150 45.14536L 82.03144 44.47359L 83.31137 43.91848L 84.59131 43.46822L 85.87125 43.11000L 87.15119 42.83067L 88.43112 42.61745L 89.71106 42.45853L 90.99100 42.34343L 92.27094 42.26330L 93.55087 42.21093L 94.83081 42.18062L 96.11075 42.16793L 97.39069 42.16937L 98.67062 42.18203L 99.95056 42.20339L 101.23050 42.23109L 102.51044 42.26295L 103.79037 42.29707L 105.07031 42.33201L 106.35025 42.36700L 107.63019 42.40218L 108.91012 42.43861L 110.19006 42.47829L 111.47000 42.52389L 112.74994 42.57838L 114.02987 42.64456L 115.30981 42.72450L 116.58975 42.81906L 117.86969 42.92763L 119.14962 43.04790L 120.42956 43.17613L 121.70950 43.30755L 122.98944 43.43705L 124.26937 43.56012L 125.54931 43.67382L 126.82925 43.77774L 128.10919 43.87484L 129.38912 43.97192L 130.66906 44.07989L 131.94900 44.21340L 133.22894 44.39028L 134.50887 44.63037L 135.78881 44.95423L 137.06875 45.38155L 138.34869 45.92958L 139.62862 46.61166L 140.90856 47.43601L 142.18850 48.40495L 143.46844 49.51445L 144.74837 50.75436L 146.02831 52.10893L 147.30825 53.55784L 148.58819 55.07754L 149.86812 56.64269L 151.14806 58.22774L 152.42800 59.80836L 153.70794 61.36269L 154.98787 62.87228L 156.26781 64.32277L 157.54775 65.70415L 158.82769 67.01074L 160.10762 68.24084L 161.38756 69.39623L 162.66750 70.48146L 163.94744 71.50308L 165.22737 72.46883L 166.50731 73.38697L 167.78725 74.26556L 169.06719 75.11201L 170.34712 75.93271L 171.62706 76.73284L 172.90700 77.51636L 174.18694 78.28614L 175.46687 79.04415L 176.74681 79.79174L 178.02675 80.52996L 179.30669 81.25976L 180.58662 81.98216L 181.86656 82.69833L 183.14650 83.40947L 184.42644 84.11667L 185.70637 84.82067L 186.98631 85.52154L 188.26625 86.21850L 189.54619 86.90968L 190.82612 87.59208L 192.10606 88.26166L 193.38600 88.91350L 194.66594 89.54223L 195.94587 90.14241L 197.22581 90.70903L 198.50575 91.23800L 199.78569 91.72662L 201.06562 92.17387L 202.34556 92.58066L 203.62550 92.94985L 204.90544 93.28614L 206.18537 93.59583L 207.46531 93.88643L 208.74525 94.16614L 210.02519 94.44340L 211.30512 94.72629L 212.58506 95.02204L 213.86500 95.33665L 215.14494 95.67457L 216.42487 96.03849L 217.70481 96.42929L 218.98475 96.84608L 220.26469 97.28643L 221.54462 97.74653L 222.82456 98.22151L 224.10450 98.70581L 225.38444 99.19343L 226.66437 99.67829L 227.94431 100.15450L 229.22425 100.61658L 230.50419 101.05972L 231.78412 101.47990L 233.06406 101.87400L 234.34400 102.23989L 235.62394 102.57639L 236.90387 102.88330L 238.18381 103.16122L 239.46375 103.41144L 240.74369 103.63577L 242.02362 103.83633L 243.30356 104.01535L 244.58350 104.17501L 245.86344 104.31728L 247.14337 104.44384L 248.42331 104.55605L 249.70325 104.65498L 250.98319 104.74149L 252.26312 104.81632L 253.54306 104.88023L 254.82300 104.93411L 256.10294 104.97907L 257.38287 105.01650L 258.66281 105.04808L 259.94275 105.07572L 261.22269 105.10150L 262.50262 105.12751L 263.78256 105.15577L 265.06250 105.18800L 266.34244 105.22560L 267.62237 105.26947L 268.90231 105.32000L 270.18225 105.37704L 271.46219 105.43993L 272.74212 105.50760L 274.02206 105.57866L 275.30200 105.65152L 276.58194 105.72456L 277.86187 105.79622L 279.14181 105.86518L 280.42175 105.93036L 281.70169 105.99107L 282.98162 106.04697L 284.26156 106.09806L 285.54150 106.14469L 286.82144 106.18739L 288.10137 106.22689L 289.38131 106.26395L 290.66125 106.29931" stroke="rgba(214, 39, 40, 1.0)" fill="rgba(255, 255, 255, 0.0)" opacity="1" stroke-width="1" stroke-linecap="round"/><text id="15" fill="black" font-family="Ubuntu" font-weight="bold" font-size="9" text-anchor="start" alignment-baseline="baseline" x="2.25000" y="9.23400">A. Probability distributions</text><text id="16" fill="black" font-family="Ubuntu" font-weight="bold" font-size="9" text-anchor="start" alignment-baseline="baseline" x="160.53900" y="148.93000">ğœƒ</text><text id="17" fill="black" font-family="Ubuntu" font-weight="bold" font-size="9" text-anchor="start" alignment-baseline="baseline" x="0" y="0" transform="translate(9.22500, 74.66217) rotate(-90)">P(ğœƒ)</text><line x1="25.22500" y1="18.56733" x2="25.22500" y2="115.79900" stroke="black" stroke-linecap="square"/><line x1="25.22500" y1="18.56733" x2="300.11000" y2="18.56733" stroke="black" stroke-linecap="square"/><line x1="300.11000" y1="18.56733" x2="300.11000" y2="115.79900" stroke="black" stroke-linecap="square"/><line x1="25.22500" y1="115.79900" x2="300.11000" y2="115.79900" stroke="black" stroke-linecap="square"/><line x1="66.84006" y1="115.79900" x2="66.84006" y2="121.13233" stroke="black" stroke-linecap="square"/><text id="27" fill="black" font-family="Ubuntu" font-weight="normal" font-size="9" text-anchor="start" alignment-baseline="baseline" x="61.75956" y="131.51333">0.1</text><line x1="103.51066" y1="115.79900" x2="103.51066" y2="121.13233" stroke="black" stroke-linecap="square"/><text id="29" fill="black" font-family="Ubuntu" font-weight="normal" font-size="9" text-anchor="start" alignment-baseline="baseline" x="97.88566" y="131.51333">0.2</text><line x1="140.18125" y1="115.79900" x2="140.18125" y2="121.13233" stroke="black" stroke-linecap="square"/><text id="31" fill="black" font-family="Ubuntu" font-weight="normal" font-size="9" text-anchor="start" alignment-baseline="baseline" x="134.56075" y="131.51333">0.3</text><line x1="176.85185" y1="115.79900" x2="176.85185" y2="121.13233" stroke="black" stroke-linecap="square"/><text id="33" fill="black" font-family="Ubuntu" font-weight="normal" font-size="9" text-anchor="start" alignment-baseline="baseline" x="171.08285" y="131.51333">0.4</text><line x1="213.52245" y1="115.79900" x2="213.52245" y2="121.13233" stroke="black" stroke-linecap="square"/><text id="35" fill="black" font-family="Ubuntu" font-weight="normal" font-size="9" text-anchor="start" alignment-baseline="baseline" x="207.89295" y="131.51333">0.5</text><line x1="250.19305" y1="115.79900" x2="250.19305" y2="121.13233" stroke="black" stroke-linecap="square"/><text id="37" fill="black" font-family="Ubuntu" font-weight="normal" font-size="9" text-anchor="start" alignment-baseline="baseline" x="244.46455" y="131.51333">0.6</text><line x1="286.86364" y1="115.79900" x2="286.86364" y2="121.13233" stroke="black" stroke-linecap="square"/><text id="39" fill="black" font-family="Ubuntu" font-weight="normal" font-size="9" text-anchor="start" alignment-baseline="baseline" x="281.18914" y="131.51333">0.7</text></svg>