<svg xmlns="http://www.w3.org/2000/svg" width="226.77000pt" height="113.38500pt" viewBox="0 0 302.36000 151.18000"><g id="0"/><g id="1"/><g id="2"/><g id="3"/><g id="4"/><g id="5"/><g id="6"/><g id="7"/><g id="8"/><g id="9"/><g id="10"/><g id="18"/><g id="20"/><g id="22"/><g id="24"/><path d="M 51.37807 94.02889L 53.68043 91.23517L 54.83162 89.78494L 55.98280 88.31209L 57.13399 86.82529L 58.28517 85.33191L 59.43636 83.83763L 60.58754 82.34627L 61.73873 80.85957L 62.88991 79.37729L 64.04110 77.89723L 65.19228 76.41556L 66.34347 74.92713L 67.49465 73.42592L 68.64584 71.90558L 69.79702 70.35998L 70.94821 68.78383L 72.09939 67.17322L 73.25057 65.52620L 74.40176 63.84322L 75.55294 62.12755L 76.70413 60.38547L 77.85531 58.62645L 79.00650 56.86305L 80.15768 55.11069L 81.30887 53.38726L 82.46005 51.71252L 83.61124 50.10738L 84.76242 48.59301L 85.91361 47.18988L 87.06479 45.91682L 88.21598 44.79006L 89.36716 43.82234L 90.51834 43.02223L 91.66953 42.39360L 92.82071 41.93533L 93.97190 41.64131L 95.12308 41.50069L 96.27427 41.49830L 97.42545 41.61543L 98.57664 41.83061L 99.72782 42.12065L 100.87901 42.46163L 102.03019 42.82997L 103.18138 43.20340L 104.33256 43.56184L 105.48375 43.88817L 106.63493 44.16884L 107.78612 44.39430L 108.93730 44.55921L 110.08848 44.66257L 111.23967 44.70754L 112.39085 44.70117L 113.54204 44.65392L 114.69322 44.57908L 115.84441 44.49202L 116.99559 44.40939L 118.14678 44.34824L 119.29796 44.32511L 120.44915 44.35518L 121.60033 44.45144L 122.75152 44.62402L 123.90270 44.87964L 125.05389 45.22123L 126.20507 45.64781L 127.35626 46.15455L 128.50744 46.73310L 129.65862 47.37207L 130.80981 48.05781L 131.96099 48.77528L 133.11218 49.50899L 134.26336 50.24405L 135.41455 50.96713L 136.56573 51.66736L 137.71692 52.33697L 138.86810 52.97178L 140.01929 53.57134L 141.17047 54.13880L 142.32166 54.68047L 143.47284 55.20507L 144.62403 55.72286L 145.77521 56.24451L 146.92640 56.78006L 148.07758 57.33778L 149.22876 57.92336L 150.37995 58.53922L 151.53113 59.18421L 152.68232 59.85359L 153.83350 60.53944L 154.98469 61.23138L 156.13587 61.91750L 157.28706 62.58556L 158.43824 63.22415L 159.58943 63.82394L 160.74061 64.37860L 161.89180 64.88562L 163.04298 65.34667L 164.19417 65.76769L 165.34535 66.15851L 166.49654 66.53215L 167.64772 66.90387L 168.79890 67.28997L 169.95009 67.70653L 171.10127 68.16814L 172.25246 68.68680L 173.40364 69.27102L 174.55483 69.92520L 175.70601 70.64940L 176.85720 71.43937L 178.00838 72.28700L 179.15957 73.18096L 180.31075 74.10763L 181.46194 75.05211L 182.61312 75.99929L 183.76431 76.93486L 184.91549 77.84621L 186.06667 78.72314L 187.21786 79.55836L 188.36904 80.34772L 189.52023 81.09017L 190.67141 81.78760L 191.82260 82.44434L 192.97378 83.06668L 194.12497 83.66221L 195.27615 84.23917L 196.42734 84.80585L 197.57852 85.37000L 198.72971 85.93846L 199.88089 86.51676L 201.03208 87.10898L 202.18326 87.71761L 203.33445 88.34358L 204.48563 88.98638L 205.63681 89.64419L 206.78800 90.31406L 207.93918 90.99219L 209.09037 91.67415L 210.24155 92.35510L 211.39274 93.03010L 212.54392 93.69428L 213.69511 94.34309L 214.84629 94.97248L 215.99748 95.57899L 217.14866 96.15991L 218.29985 96.71324L 219.45103 97.23774L 220.60222 97.73278L 221.75340 98.19830L 222.90459 98.63467L 224.05577 99.04253L 225.20695 99.42270L 226.35814 99.77612L 227.50932 100.10376L 228.66051 100.40667L 229.81169 100.68597L 230.96288 100.94296L 232.11406 101.17913L 233.26525 101.39626L 234.41643 101.59644L 235.56762 101.78203L 236.71880 101.95569L 237.86999 102.12019L 239.02117 102.27834L 240.17236 102.43284L 241.32354 102.58612L 242.47473 102.74019L 243.62591 102.89656L 244.77709 103.05615L 245.92828 103.21927L 247.07946 103.38567L 248.23065 103.55459L 249.38183 103.72487L 250.53302 103.89507L 251.68420 104.06362L 252.83539 104.22893L 253.98657 104.38949L 255.13776 104.54400L 256.28894 104.69138L 257.44013 104.83082L 258.59131 104.96180L 259.74250 105.08402L 260.89368 105.19740L 262.04486 105.30204L 263.19605 105.39813L 264.34723 105.48595L 265.49842 105.56582L 266.64960 105.63810L 267.80079 105.70314L 268.95197 105.76133L 270.10316 105.81309L 271.25434 105.85889L 272.40553 105.89924L 273.55671 105.93475L 274.70790 105.96607L 275.85908 105.99392L 277.01027 106.01907L 278.16145 106.04228L 279.31264 106.06428L 280.46382 106.08574L 281.61500 106.10725" stroke="rgba(31, 119, 180, 1.0)" fill="rgba(255, 255, 255, 0.0)" opacity="1" stroke-width="1" stroke-linecap="round"/><path d="M 47.88704 99.37669L 50.16857 96.58567L 51.30933 94.95242L 52.45009 93.16391L 53.59086 91.22774L 54.73162 89.15572L 55.87238 86.96376L 57.01315 84.67142L 58.15391 82.30125L 59.29467 79.87802L 60.43544 77.42766L 61.57620 74.97629L 62.71696 72.54915L 63.85773 70.16962L 64.99849 67.85847L 66.13926 65.63319L 67.28002 63.50765L 68.42078 61.49197L 69.56155 59.59261L 70.70231 57.81269L 71.84307 56.15242L 72.98384 54.60967L 74.12460 53.18055L 75.26536 51.85995L 76.40613 50.64208L 77.54689 49.52086L 78.68765 48.49021L 79.82842 47.54430L 80.96918 46.67765L 82.10994 45.88520L 83.25071 45.16233L 84.39147 44.50486L 85.53224 43.90912L 86.67300 43.37193L 87.81376 42.89068L 88.95453 42.46332L 90.09529 42.08840L 91.23605 41.76498L 92.37682 41.49254L 93.51758 41.27072L 94.65834 41.09908L 95.79911 40.97671L 96.93987 40.90193L 98.08063 40.87185L 99.22140 40.88221L 100.36216 40.92715L 101.50293 40.99924L 102.64369 41.08971L 103.78445 41.18874L 104.92522 41.28605L 106.06598 41.37148L 107.20674 41.43570L 108.34751 41.47092L 109.48827 41.47145L 110.62903 41.43431L 111.76980 41.35946L 112.91056 41.25004L 114.05132 41.11230L 115.19209 40.95538L 116.33285 40.79094L 117.47362 40.63264L 118.61438 40.49553L 119.75514 40.39547L 120.89591 40.34840L 122.03667 40.36981L 123.17743 40.47416L 124.31820 40.67440L 125.45896 40.98160L 126.59972 41.40463L 127.74049 41.94995L 128.88125 42.62139L 130.02201 43.42006L 131.16278 44.34422L 132.30354 45.38920L 133.44430 46.54737L 134.58507 47.80810L 135.72583 49.15784L 136.86660 50.58030L 138.00736 52.05667L 139.14812 53.56609L 140.28889 55.08621L 141.42965 56.59393L 142.57041 58.06621L 143.71118 59.48110L 144.85194 60.81862L 145.99270 62.06179L 147.13347 63.19737L 148.27423 64.21660L 149.41499 65.11555L 150.55576 65.89532L 151.69652 66.56186L 152.83729 67.12557L 153.97805 67.60060L 155.11881 68.00394L 156.25958 68.35440L 157.40034 68.67146L 158.54110 68.97420L 159.68187 69.28023L 160.82263 69.60479L 161.96339 69.96010L 163.10416 70.35489L 164.24492 70.79414L 165.38568 71.27919L 166.52645 71.80796L 167.66721 72.37547L 168.80798 72.97438L 169.94874 73.59581L 171.08950 74.22999L 172.23027 74.86710L 173.37103 75.49789L 174.51179 76.11431L 175.65256 76.70994L 176.79332 77.28029L 177.93408 77.82294L 179.07485 78.33756L 180.21561 78.82572L 181.35637 79.29068L 182.49714 79.73703L 183.63790 80.17032L 184.77866 80.59666L 185.91943 81.02234L 187.06019 81.45353L 188.20096 81.89596L 189.34172 82.35480L 190.48248 82.83447L 191.62325 83.33862L 192.76401 83.87010L 193.90477 84.43099L 195.04554 85.02260L 196.18630 85.64551L 197.32706 86.29957L 198.46783 86.98384L 199.60859 87.69659L 200.74935 88.43521L 201.89012 89.19620L 203.03088 89.97511L 204.17165 90.76661L 205.31241 91.56451L 206.45317 92.36193L 207.59394 93.15153L 208.73470 93.92568L 209.87546 94.67686L 211.01623 95.39791L 212.15699 96.08238L 213.29775 96.72482L 214.43852 97.32105L 215.57928 97.86834L 216.72004 98.36552L 217.86081 98.81300L 219.00157 99.21276L 220.14234 99.56813L 221.28310 99.88364L 222.42386 100.16470L 223.56463 100.41733L 224.70539 100.64778L 225.84615 100.86222L 226.98692 101.06645L 228.12768 101.26559L 229.26844 101.46389L 230.40921 101.66459L 231.54997 101.86981L 232.69073 102.08059L 233.83150 102.29692L 234.97226 102.51787L 236.11303 102.74175L 237.25379 102.96634L 238.39455 103.18903L 239.53532 103.40711L 240.67608 103.61790L 241.81684 103.81899L 242.95761 104.00832L 244.09837 104.18431L 245.23913 104.34593L 246.37990 104.49270L 247.52066 104.62472L 248.66142 104.74259L 249.80219 104.84732L 250.94295 104.94030L 252.08371 105.02312L 253.22448 105.09752L 254.36524 105.16522L 255.50601 105.22785L 256.64677 105.28686L 257.78753 105.34342L 258.92830 105.39842L 260.06906 105.45244L 261.20982 105.50574L 262.35059 105.55833L 263.49135 105.61001L 264.63211 105.66047L 265.77288 105.70932L 266.91364 105.75619L 268.05440 105.80080L 269.19517 105.84299L 270.33593 105.88275L 271.47670 105.92020L 272.61746 105.95561L 273.75822 105.98933L 274.89899 106.02178L 276.03975 106.05336" stroke="rgba(255, 127, 14, 1.0)" fill="rgba(255, 255, 255, 0.0)" opacity="1" stroke-width="1" stroke-linecap="round"/><path d="M 43.71101 102.67883L 45.93279 101.50572L 47.04367 100.84413L 48.15456 100.13328L 49.26545 99.37440L 50.37633 98.56908L 51.48722 97.71921L 52.59810 96.82673L 53.70899 95.89349L 54.81988 94.92103L 55.93076 93.91040L 57.04165 92.86195L 58.15254 91.77524L 59.26342 90.64899L 60.37431 89.48109L 61.48519 88.26878L 62.59608 87.00881L 63.70697 85.69783L 64.81785 84.33275L 65.92874 82.91121L 67.03963 81.43198L 68.15051 79.89542L 69.26140 78.30377L 70.37228 76.66136L 71.48317 74.97460L 72.59406 73.25189L 73.70494 71.50324L 74.81583 69.73973L 75.92671 67.97296L 77.03760 66.21422L 78.14849 64.47386L 79.25937 62.76059L 80.37026 61.08095L 81.48115 59.43901L 82.59203 57.83622L 83.70292 56.27159L 84.81380 54.74205L 85.92469 53.24297L 87.03558 51.76888L 88.14646 50.31420L 89.25735 48.87395L 90.36824 47.44441L 91.47912 46.02358L 92.59001 44.61158L 93.70089 43.21072L 94.81178 41.82557L 95.92267 40.46274L 97.03355 39.13067L 98.14444 37.83932L 99.25533 36.59982L 100.36621 35.42417L 101.47710 34.32488L 102.58798 33.31469L 103.69887 32.40617L 104.80976 31.61144L 105.92064 30.94170L 107.03153 30.40686L 108.14242 30.01500L 109.25330 29.77200L 110.36419 29.68108L 111.47507 29.74250L 112.58596 29.95338L 113.69685 30.30776L 114.80773 30.79676L 115.91862 31.40904L 117.02951 32.13132L 118.14039 32.94909L 119.25128 33.84728L 120.36216 34.81098L 121.47305 35.82595L 122.58394 36.87905L 123.69482 37.95843L 124.80571 39.05359L 125.91659 40.15525L 127.02748 41.25512L 128.13837 42.34568L 129.24925 43.41998L 130.36014 44.47150L 131.47103 45.49423L 132.58191 46.48276L 133.69280 47.43257L 134.80368 48.34041L 135.91457 49.20460L 137.02546 50.02535L 138.13634 50.80492L 139.24723 51.54764L 140.35812 52.25970L 141.46900 52.94878L 142.57989 53.62350L 143.69077 54.29274L 144.80166 54.96496L 145.91255 55.64747L 147.02343 56.34586L 148.13432 57.06350L 149.24521 57.80136L 150.35609 58.55788L 151.46698 59.32921L 152.57786 60.10959L 153.68875 60.89183L 154.79964 61.66803L 155.91052 62.43023L 157.02141 63.17111L 158.13230 63.88459L 159.24318 64.56638L 160.35407 65.21430L 161.46495 65.82843L 162.57584 66.41115L 163.68673 66.96693L 164.79761 67.50198L 165.90850 68.02379L 167.01939 68.54058L 168.13027 69.06076L 169.24116 69.59227L 170.35204 70.14214L 171.46293 70.71604L 172.57382 71.31797L 173.68470 71.95010L 174.79559 72.61278L 175.90647 73.30463L 177.01736 74.02279L 178.12825 74.76329L 179.23913 75.52136L 180.35002 76.29191L 181.46091 77.06984L 182.57179 77.85041L 183.68268 78.62947L 184.79356 79.40360L 185.90445 80.17019L 187.01534 80.92738L 188.12622 81.67400L 189.23711 82.40940L 190.34800 83.13325L 191.45888 83.84545L 192.56977 84.54588L 193.68065 85.23435L 194.79154 85.91048L 195.90243 86.57366L 197.01331 87.22301L 198.12420 87.85741L 199.23509 88.47547L 200.34597 89.07560L 201.45686 89.65597L 202.56774 90.21463L 203.67863 90.74949L 204.78952 91.25843L 205.90040 91.73943L 207.01129 92.19068L 208.12218 92.61079L 209.23306 92.99896L 210.34395 93.35518L 211.45483 93.68045L 212.56572 93.97686L 213.67661 94.24771L 214.78749 94.49747L 215.89838 94.73167L 217.00927 94.95668L 218.12015 95.17945L 219.23104 95.40711L 220.34192 95.64658L 221.45281 95.90413L 222.56370 96.18506L 223.67458 96.49328L 224.78547 96.83113L 225.89635 97.19920L 227.00724 97.59629L 228.11813 98.01954L 229.22901 98.46451L 230.33990 98.92557L 231.45079 99.39613L 232.56167 99.86909L 233.67256 100.33722L 234.78344 100.79352L 235.89433 101.23160L 237.00522 101.64598L 238.11610 102.03230L 239.22699 102.38744L 240.33788 102.70963L 241.44876 102.99840L 242.55965 103.25445L 243.67053 103.47952L 244.78142 103.67619L 245.89231 103.84761L 247.00319 103.99729L 248.11408 104.12886L 249.22497 104.24586L 250.33585 104.35162L 251.44674 104.44909L 252.55762 104.54081L 253.66851 104.62883L 254.77940 104.71478L 255.89028 104.79983L 257.00117 104.88480L 258.11206 104.97019L 259.22294 105.05622L 260.33383 105.14293L 261.44471 105.23018L 262.55560 105.31770L 263.66649 105.40513L 264.77737 105.49205L 265.88826 105.57793" stroke="rgba(44, 160, 44, 1.0)" fill="rgba(255, 255, 255, 0.0)" opacity="1" stroke-width="1" stroke-linecap="round"/><path d="M 42.65675 101.48737L 45.13680 99.66820L 46.37682 98.63234L 47.61684 97.51650L 48.85686 96.32505L 50.09689 95.06288L 51.33691 93.73503L 52.57693 92.34633L 53.81695 90.90101L 55.05698 89.40250L 56.29700 87.85327L 57.53702 86.25488L 58.77704 84.60805L 60.01707 82.91301L 61.25709 81.16980L 62.49711 79.37879L 63.73713 77.54111L 64.97716 75.65916L 66.21718 73.73704L 67.45720 71.78083L 68.69722 69.79886L 69.93725 67.80171L 71.17727 65.80212L 72.41729 63.81473L 73.65731 61.85562L 74.89734 59.94179L 76.13736 58.09053L 77.37738 56.31870L 78.61740 54.64205L 79.85743 53.07454L 81.09745 51.62773L 82.33747 50.31032L 83.57749 49.12778L 84.81752 48.08216L 86.05754 47.17214L 87.29756 46.39314L 88.53758 45.73773L 89.77761 45.19614L 91.01763 44.75685L 92.25765 44.40736L 93.49767 44.13483L 94.73770 43.92681L 95.97772 43.77175L 97.21774 43.65945L 98.45776 43.58128L 99.69779 43.53019L 100.93781 43.50061L 102.17783 43.48824L 103.41785 43.48963L 104.65788 43.50199L 105.89790 43.52283L 107.13792 43.54985L 108.37794 43.58093L 109.61797 43.61422L 110.85799 43.64831L 112.09801 43.68246L 113.33803 43.71677L 114.57806 43.75232L 115.81808 43.79103L 117.05810 43.83552L 118.29812 43.88869L 119.53815 43.95325L 120.77817 44.03124L 122.01819 44.12351L 123.25821 44.22942L 124.49824 44.34677L 125.73826 44.47188L 126.97828 44.60009L 128.21830 44.72644L 129.45833 44.84651L 130.69835 44.95744L 131.93837 45.05883L 133.17839 45.15356L 134.41842 45.24828L 135.65844 45.35362L 136.89846 45.48388L 138.13848 45.65645L 139.37851 45.89069L 140.61853 46.20667L 141.85855 46.62358L 143.09857 47.15826L 144.33860 47.82372L 145.57862 48.62800L 146.81864 49.57333L 148.05866 50.65581L 149.29869 51.86552L 150.53871 53.18709L 151.77873 54.60072L 153.01875 56.08340L 154.25878 57.61043L 155.49880 59.15687L 156.73882 60.69899L 157.97884 62.21546L 159.21887 63.68828L 160.45889 65.10344L 161.69891 66.45118L 162.93893 67.72594L 164.17896 68.92608L 165.41898 70.05333L 166.65900 71.11213L 167.89902 72.10885L 169.13905 73.05109L 170.37907 73.94686L 171.61909 74.80405L 172.85911 75.62989L 174.09914 76.43060L 175.33916 77.21124L 176.57918 77.97568L 177.81920 78.72671L 179.05923 79.46625L 180.29925 80.19563L 181.53927 80.91587L 182.77929 81.62789L 184.01932 82.33270L 185.25934 83.03143L 186.49936 83.72525L 187.73938 84.41522L 188.97941 85.10207L 190.21943 85.78587L 191.45945 86.46586L 192.69947 87.14020L 193.93950 87.80598L 195.17952 88.45924L 196.41954 89.09521L 197.65956 89.70863L 198.89959 90.29419L 200.13961 90.84700L 201.37963 91.36309L 202.61965 91.83981L 203.85968 92.27617L 205.09970 92.67305L 206.33972 93.03325L 207.57974 93.36135L 208.81977 93.66350L 210.05979 93.94701L 211.29981 94.21992L 212.53983 94.49042L 213.77986 94.76641L 215.01988 95.05496L 216.25990 95.36191L 217.49992 95.69160L 218.73995 96.04666L 219.97997 96.42793L 221.21999 96.83458L 222.46001 97.26420L 223.70004 97.71309L 224.94006 98.17651L 226.18008 98.64901L 227.42010 99.12475L 228.66013 99.59780L 229.90015 100.06241L 231.14017 100.51324L 232.38019 100.94559L 233.62022 101.35553L 234.86024 101.74003L 236.10026 102.09700L 237.34028 102.42532L 238.58031 102.72475L 239.82033 102.99590L 241.06035 103.24002L 242.30037 103.45889L 243.54040 103.65456L 244.78042 103.82923L 246.02044 103.98500L 247.26046 104.12380L 248.50049 104.24727L 249.74051 104.35675L 250.98053 104.45327L 252.22055 104.53767L 253.46058 104.61068L 254.70060 104.67304L 255.94062 104.72560L 257.18064 104.76947L 258.42067 104.80599L 259.66069 104.83680L 260.90071 104.86377L 262.14073 104.88892L 263.38076 104.91430L 264.62078 104.94186L 265.86080 104.97331L 267.10082 105.01000L 268.34085 105.05280L 269.58087 105.10210L 270.82089 105.15775L 272.06091 105.21911L 273.30094 105.28513L 274.54096 105.35445L 275.78098 105.42554L 277.02100 105.49680L 278.26103 105.56672L 279.50105 105.63399L 280.74107 105.69759L 281.98109 105.75682L 283.22112 105.81135L 284.46114 105.86121L 285.70116 105.90669L 286.94118 105.94836L 288.18121 105.98689L 289.42123 106.02305L 290.66125 106.05755" stroke="rgba(214, 39, 40, 1.0)" fill="rgba(255, 255, 255, 0.0)" opacity="1" stroke-width="1" stroke-linecap="round"/><text id="15" x="2.25000" y="9.23400" fill="black" font-family="Ubuntu" font-weight="bold" font-size="9" text-anchor="start" alignment-baseline="baseline">A. Probability distributions</text><text id="16" x="164.53050" y="148.82200" fill="black" font-family="Ubuntu" font-weight="bold" font-size="9" text-anchor="start" alignment-baseline="baseline">ğœƒ</text><text id="17" x="2.25000" y="70.41417" fill="black" font-family="Ubuntu" font-weight="bold" font-size="9" text-anchor="start" alignment-baseline="baseline">P(ğœƒ)</text><line x1="33.20800" y1="20.23233" x2="33.20800" y2="115.55600" stroke="black" stroke-linecap="square"/><line x1="33.20800" y1="20.23233" x2="300.11000" y2="20.23233" stroke="black" stroke-linecap="square"/><line x1="300.11000" y1="20.23233" x2="300.11000" y2="115.55600" stroke="black" stroke-linecap="square"/><line x1="33.20800" y1="115.55600" x2="300.11000" y2="115.55600" stroke="black" stroke-linecap="square"/><line x1="73.81995" y1="115.55600" x2="73.81995" y2="120.88933" stroke="black" stroke-linecap="square"/><text id="27" x="68.73945" y="131.27033" fill="black" font-family="Ubuntu" font-weight="regular" font-size="9" text-anchor="start" alignment-baseline="baseline">0.1</text><line x1="109.34697" y1="115.55600" x2="109.34697" y2="120.88933" stroke="black" stroke-linecap="square"/><text id="29" x="103.72197" y="131.27033" fill="black" font-family="Ubuntu" font-weight="regular" font-size="9" text-anchor="start" alignment-baseline="baseline">0.2</text><line x1="144.87399" y1="115.55600" x2="144.87399" y2="120.88933" stroke="black" stroke-linecap="square"/><text id="31" x="139.25349" y="131.27033" fill="black" font-family="Ubuntu" font-weight="regular" font-size="9" text-anchor="start" alignment-baseline="baseline">0.3</text><line x1="180.40101" y1="115.55600" x2="180.40101" y2="120.88933" stroke="black" stroke-linecap="square"/><text id="33" x="174.63201" y="131.27033" fill="black" font-family="Ubuntu" font-weight="regular" font-size="9" text-anchor="start" alignment-baseline="baseline">0.4</text><line x1="215.92803" y1="115.55600" x2="215.92803" y2="120.88933" stroke="black" stroke-linecap="square"/><text id="35" x="210.29853" y="131.27033" fill="black" font-family="Ubuntu" font-weight="regular" font-size="9" text-anchor="start" alignment-baseline="baseline">0.5</text><line x1="251.45505" y1="115.55600" x2="251.45505" y2="120.88933" stroke="black" stroke-linecap="square"/><text id="37" x="245.72655" y="131.27033" fill="black" font-family="Ubuntu" font-weight="regular" font-size="9" text-anchor="start" alignment-baseline="baseline">0.6</text><line x1="286.98207" y1="115.55600" x2="286.98207" y2="120.88933" stroke="black" stroke-linecap="square"/><text id="39" x="281.30757" y="131.27033" fill="black" font-family="Ubuntu" font-weight="regular" font-size="9" text-anchor="start" alignment-baseline="baseline">0.7</text></svg>