<svg xmlns="http://www.w3.org/2000/svg" width="226.77000pt" height="113.38500pt" viewBox="0 0 302.36000 151.18000"><g id="0"/><g id="1"/><g id="2"/><g id="3"/><g id="4"/><g id="5"/><g id="6"/><g id="7"/><g id="8"/><g id="9"/><g id="10"/><g id="18"/><g id="20"/><g id="22"/><g id="24"/><path d="M 44.65596 92.69359L 47.02060 89.93010L 48.20292 88.49557L 49.38525 87.03865L 50.56757 85.56794L 51.74989 84.09071L 52.93221 82.61261L 54.11453 81.13738L 55.29685 79.66677L 56.47918 78.20053L 57.66150 76.73649L 58.84382 75.27085L 60.02614 73.79853L 61.20846 72.31356L 62.39079 70.80967L 63.57311 69.28080L 64.75543 67.72170L 65.93775 66.12852L 67.12007 64.49932L 68.30239 62.83456L 69.48472 61.13745L 70.66704 59.41422L 71.84936 57.67424L 73.03168 55.92991L 74.21400 54.19651L 75.39633 52.49173L 76.57865 50.83512L 77.76097 49.24735L 78.94329 47.74936L 80.12561 46.36141L 81.30793 45.10214L 82.49026 43.98757L 83.67258 43.03032L 84.85490 42.23887L 86.03722 41.61704L 87.21954 41.16372L 88.40187 40.87289L 89.58419 40.73379L 90.76651 40.73143L 91.94883 40.84729L 93.13115 41.06014L 94.31347 41.34704L 95.49580 41.68433L 96.67812 42.04869L 97.86044 42.41808L 99.04276 42.77263L 100.22508 43.09544L 101.40741 43.37307L 102.58973 43.59609L 103.77205 43.75922L 104.95437 43.86146L 106.13669 43.90594L 107.31901 43.89964L 108.50134 43.85290L 109.68366 43.77887L 110.86598 43.69275L 112.04830 43.61102L 113.23062 43.55053L 114.41295 43.52765L 115.59527 43.55739L 116.77759 43.65261L 117.95991 43.82332L 119.14223 44.07618L 120.32455 44.41407L 121.50688 44.83604L 122.68920 45.33730L 123.87152 45.90958L 125.05384 46.54163L 126.23616 47.21996L 127.41849 47.92966L 128.60081 48.65543L 129.78313 49.38254L 130.96545 50.09780L 132.14777 50.79045L 133.33010 51.45281L 134.51242 52.08075L 135.69474 52.67383L 136.87706 53.23515L 138.05938 53.77095L 139.24170 54.28988L 140.42403 54.80206L 141.60635 55.31807L 142.78867 55.84782L 143.97099 56.39951L 145.15331 56.97875L 146.33564 57.58795L 147.51796 58.22596L 148.70028 58.88809L 149.88260 59.56653L 151.06492 60.25098L 152.24724 60.92967L 153.42957 61.59050L 154.61189 62.22219L 155.79421 62.81548L 156.97653 63.36414L 158.15885 63.86567L 159.34118 64.32174L 160.52350 64.73820L 161.70582 65.12479L 162.88814 65.49439L 164.07046 65.86209L 165.25278 66.24401L 166.43511 66.65606L 167.61743 67.11268L 168.79975 67.62572L 169.98207 68.20362L 171.16439 68.85072L 172.34672 69.56709L 173.52904 70.34851L 174.71136 71.18696L 175.89368 72.07125L 177.07600 72.98789L 178.25832 73.92216L 179.44065 74.85909L 180.62297 75.78453L 181.80529 76.68602L 182.98761 77.55346L 184.16993 78.37965L 185.35226 79.16046L 186.53458 79.89488L 187.71690 80.58476L 188.89922 81.23439L 190.08154 81.85000L 191.26386 82.43909L 192.44619 83.00981L 193.62851 83.57035L 194.81083 84.12840L 195.99315 84.69070L 197.17547 85.26275L 198.35780 85.84856L 199.54012 86.45060L 200.72244 87.06980L 201.90476 87.70565L 203.08708 88.35633L 204.26940 89.01895L 205.45173 89.68975L 206.63405 90.36433L 207.81637 91.03791L 208.99869 91.70561L 210.18101 92.36260L 211.36334 93.00439L 212.54566 93.62696L 213.72798 94.22691L 214.91030 94.80154L 216.09262 95.34889L 217.27494 95.86771L 218.45727 96.35740L 219.63959 96.81788L 220.82191 97.24953L 222.00423 97.65297L 223.18655 98.02903L 224.36888 98.37862L 225.55120 98.70272L 226.73352 99.00235L 227.91584 99.27864L 229.09816 99.53284L 230.28048 99.76646L 231.46281 99.98124L 232.64513 100.17925L 233.82745 100.36284L 235.00977 100.53461L 236.19209 100.69733L 237.37442 100.85377L 238.55674 101.00660L 239.73906 101.15822L 240.92138 101.31063L 242.10370 101.46530L 243.28602 101.62316L 244.46835 101.78452L 245.65067 101.94912L 246.83299 102.11621L 248.01531 102.28465L 249.19763 102.45301L 250.37996 102.61974L 251.56228 102.78325L 252.74460 102.94208L 253.92692 103.09491L 255.10924 103.24070L 256.29156 103.37863L 257.47389 103.50819L 258.65621 103.62909L 259.83853 103.74125L 261.02085 103.84475L 262.20317 103.93980L 263.38550 104.02667L 264.56782 104.10568L 265.75014 104.17717L 266.93246 104.24151L 268.11478 104.29907L 269.29710 104.35028L 270.47943 104.39558L 271.66175 104.43549L 272.84407 104.47062L 274.02639 104.50160L 275.20871 104.52915L 276.39104 104.55402L 277.57336 104.57698L 278.75568 104.59874L 279.93800 104.61997L 281.12032 104.64125" stroke="rgba(31, 119, 180, 1.0)" fill="rgba(255, 255, 255, 0.0)" opacity="1" stroke-width="1" stroke-linecap="round"/><path d="M 41.07051 97.98352L 43.41374 95.22270L 44.58536 93.60713L 45.75698 91.83797L 46.92860 89.92275L 48.10022 87.87315L 49.27184 85.70491L 50.44346 83.43737L 51.61508 81.09286L 52.78669 78.69584L 53.95831 76.27200L 55.12993 73.84716L 56.30155 71.44627L 57.47317 69.09250L 58.64479 66.80636L 59.81641 64.60515L 60.98803 62.50262L 62.15964 60.50875L 63.33126 58.62994L 64.50288 56.86928L 65.67450 55.22697L 66.84612 53.70092L 68.01774 52.28726L 69.18936 50.98096L 70.36098 49.77627L 71.53260 48.66717L 72.70421 47.64767L 73.87583 46.71200L 75.04745 45.85473L 76.21907 45.07086L 77.39069 44.35581L 78.56231 43.70545L 79.73393 43.11616L 80.90555 42.58478L 82.07716 42.10874L 83.24878 41.68600L 84.42040 41.31514L 85.59202 40.99523L 86.76364 40.72573L 87.93526 40.50631L 89.10688 40.33652L 90.27850 40.21548L 91.45012 40.14151L 92.62173 40.11176L 93.79335 40.12201L 94.96497 40.16646L 96.13659 40.23777L 97.30821 40.32726L 98.47983 40.42522L 99.65145 40.52148L 100.82307 40.60598L 101.99468 40.66951L 103.16630 40.70434L 104.33792 40.70487L 105.50954 40.66813L 106.68116 40.59409L 107.85278 40.48586L 109.02440 40.34961L 110.19602 40.19439L 111.36763 40.03172L 112.53925 39.87513L 113.71087 39.73951L 114.88249 39.64053L 116.05411 39.59397L 117.22573 39.61515L 118.39735 39.71837L 119.56897 39.91645L 120.74059 40.22032L 121.91220 40.63877L 123.08382 41.17819L 124.25544 41.84236L 125.42706 42.63239L 126.59868 43.54655L 127.77030 44.58023L 128.94192 45.72586L 130.11354 46.97295L 131.28515 48.30809L 132.45677 49.71515L 133.62839 51.17554L 134.80001 52.66863L 135.97163 54.17231L 137.14325 55.66370L 138.31487 57.12006L 139.48649 58.51963L 140.65811 59.84269L 141.82972 61.07240L 143.00134 62.19570L 144.17296 63.20389L 145.34458 64.09312L 146.51620 64.86445L 147.68782 65.52377L 148.85944 66.08139L 150.03106 66.55128L 151.20267 66.95025L 152.37429 67.29692L 153.54591 67.61055L 154.71753 67.91002L 155.88915 68.21273L 157.06077 68.53378L 158.23239 68.88525L 159.40401 69.27576L 160.57563 69.71026L 161.74724 70.19006L 162.91886 70.71311L 164.09048 71.27447L 165.26210 71.86691L 166.43372 72.48161L 167.60534 73.10893L 168.77696 73.73914L 169.94858 74.36311L 171.12019 74.97286L 172.29181 75.56205L 173.46343 76.12622L 174.63505 76.66301L 175.80667 77.17205L 176.97829 77.65493L 178.14991 78.11486L 179.32153 78.55638L 180.49314 78.98498L 181.66476 79.40671L 182.83638 79.82778L 184.00800 80.25430L 185.17962 80.69195L 186.35124 81.14583L 187.52286 81.62031L 188.69448 82.11900L 189.86610 82.64473L 191.03771 83.19954L 192.20933 83.78475L 193.38095 84.40093L 194.55257 85.04790L 195.72419 85.72477L 196.89581 86.42981L 198.06743 87.16044L 199.23905 87.91319L 200.41066 88.68368L 201.58228 89.46661L 202.75390 90.25587L 203.92552 91.04467L 205.09714 91.82572L 206.26876 92.59150L 207.44038 93.33455L 208.61200 94.04779L 209.78362 94.72485L 210.95523 95.36034L 212.12685 95.95012L 213.29847 96.49149L 214.47009 96.98329L 215.64171 97.42593L 216.81333 97.82137L 217.98495 98.17289L 219.15657 98.48499L 220.32818 98.76301L 221.49980 99.01290L 222.67142 99.24085L 223.84304 99.45298L 225.01466 99.65500L 226.18628 99.85198L 227.35790 100.04814L 228.52952 100.24666L 229.70114 100.44966L 230.87275 100.65816L 232.04437 100.87215L 233.21599 101.09071L 234.38761 101.31217L 235.55923 101.53432L 236.73085 101.75461L 237.90247 101.97032L 239.07409 102.17884L 240.24570 102.37775L 241.41732 102.56503L 242.58894 102.73912L 243.76056 102.89898L 244.93218 103.04417L 246.10380 103.17477L 247.27542 103.29135L 248.44704 103.39495L 249.61865 103.48693L 250.79027 103.56885L 251.96189 103.64245L 253.13351 103.70941L 254.30513 103.77137L 255.47675 103.82974L 256.64837 103.88569L 257.81999 103.94009L 258.99161 103.99352L 260.16322 104.04625L 261.33484 104.09827L 262.50646 104.14939L 263.67808 104.19930L 264.84970 104.24762L 266.02132 104.29399L 267.19294 104.33812L 268.36456 104.37985L 269.53617 104.41918L 270.70779 104.45622L 271.87941 104.49125L 273.05103 104.52461L 274.22265 104.55670L 275.39427 104.58794" stroke="rgba(255, 127, 14, 1.0)" fill="rgba(255, 255, 255, 0.0)" opacity="1" stroke-width="1" stroke-linecap="round"/><path d="M 36.78153 101.24993L 39.06340 100.08952L 40.20433 99.43508L 41.34526 98.73192L 42.48620 97.98125L 43.62713 97.18465L 44.76806 96.34398L 45.90900 95.46115L 47.04993 94.53801L 48.19086 93.57608L 49.33180 92.57638L 50.47273 91.53927L 51.61366 90.46432L 52.75460 89.35026L 53.89553 88.19500L 55.03646 86.99581L 56.17740 85.74947L 57.31833 84.45268L 58.45926 83.10237L 59.60020 81.69621L 60.74113 80.23299L 61.88206 78.71306L 63.02300 77.13863L 64.16393 75.51399L 65.30486 73.84548L 66.44580 72.14142L 67.58673 70.41168L 68.72766 68.66726L 69.86860 66.91960L 71.00953 65.17990L 72.15046 63.45837L 73.29140 61.76364L 74.43233 60.10218L 75.57326 58.47800L 76.71420 56.89255L 77.85513 55.34486L 78.99606 53.83187L 80.13700 52.34901L 81.27793 50.89087L 82.41886 49.45193L 83.55980 48.02727L 84.70073 46.61319L 85.84166 45.20774L 86.98260 43.81102L 88.12353 42.42532L 89.26446 41.05516L 90.40540 39.70707L 91.54633 38.38942L 92.68726 37.11204L 93.82820 35.88595L 94.96913 34.72302L 96.11006 33.63563L 97.25100 32.63637L 98.39193 31.73769L 99.53286 30.95155L 100.67380 30.28906L 101.81473 29.76000L 102.95566 29.37239L 104.09660 29.13202L 105.23753 29.04208L 106.37846 29.10283L 107.51940 29.31143L 108.66033 29.66198L 109.80126 30.14569L 110.94220 30.75134L 112.08313 31.46581L 113.22406 32.27472L 114.36500 33.16320L 115.50593 34.11647L 116.64687 35.12045L 117.78780 36.16216L 118.92873 37.22986L 120.06967 38.31317L 121.21060 39.40291L 122.35153 40.49088L 123.49247 41.56964L 124.63340 42.63231L 125.77433 43.67246L 126.91527 44.68412L 128.05620 45.66195L 129.19713 46.60148L 130.33807 47.49950L 131.47900 48.35434L 132.61993 49.16621L 133.76087 49.93734L 134.90180 50.67202L 136.04273 51.37638L 137.18367 52.05800L 138.32460 52.72542L 139.46553 53.38742L 140.60647 54.05236L 141.74740 54.72749L 142.88833 55.41832L 144.02927 56.12820L 145.17020 56.85807L 146.31113 57.60640L 147.45207 58.36939L 148.59300 59.14132L 149.73393 59.91510L 150.87487 60.68291L 152.01580 61.43686L 153.15673 62.16971L 154.29767 62.87548L 155.43860 63.54989L 156.57953 64.19080L 157.72047 64.79828L 158.86140 65.37470L 160.00233 65.92447L 161.14327 66.45372L 162.28420 66.96988L 163.42513 67.48109L 164.56607 67.99563L 165.70700 68.52139L 166.84793 69.06531L 167.98887 69.63300L 169.12980 70.22842L 170.27073 70.85371L 171.41167 71.50922L 172.55260 72.19358L 173.69353 72.90398L 174.83447 73.63646L 175.97540 74.38633L 177.11633 75.14854L 178.25727 75.91805L 179.39820 76.69018L 180.53913 77.46081L 181.68007 78.22656L 182.82100 78.98485L 183.96193 79.73385L 185.10287 80.47239L 186.24380 81.19983L 187.38473 81.91585L 188.52567 82.62034L 189.66660 83.31319L 190.80753 83.99421L 191.94847 84.66303L 193.08940 85.31903L 194.23033 85.96136L 195.37127 86.58889L 196.51220 87.20027L 197.65313 87.79390L 198.79407 88.36799L 199.93500 88.92060L 201.07593 89.44967L 202.21687 89.95311L 203.35780 90.42890L 204.49873 90.87527L 205.63967 91.29084L 206.78060 91.67480L 207.92153 92.02717L 209.06247 92.34891L 210.20340 92.64212L 211.34433 92.91004L 212.48527 93.15710L 213.62620 93.38876L 214.76713 93.61134L 215.90807 93.83170L 217.04900 94.05690L 218.18993 94.29377L 219.33087 94.54854L 220.47180 94.82643L 221.61273 95.13131L 222.75367 95.46550L 223.89460 95.82959L 225.03553 96.22239L 226.17647 96.64105L 227.31740 97.08121L 228.45833 97.53728L 229.59927 98.00275L 230.74020 98.47059L 231.88113 98.93366L 233.02207 99.38502L 234.16300 99.81836L 235.30393 100.22826L 236.44487 100.61039L 237.58580 100.96169L 238.72673 101.28040L 239.86767 101.56604L 241.00860 101.81932L 242.14953 102.04196L 243.29047 102.23650L 244.43140 102.40607L 245.57233 102.55412L 246.71327 102.68426L 247.85420 102.80000L 248.99513 102.90462L 250.13607 103.00104L 251.27700 103.09176L 252.41793 103.17883L 253.55887 103.26384L 254.69980 103.34798L 255.84073 103.43203L 256.98167 103.51649L 258.12260 103.60160L 259.26353 103.68736L 260.40447 103.77367L 261.54540 103.86024L 262.68633 103.94673L 263.82727 104.03270L 264.96820 104.11766" stroke="rgba(44, 160, 44, 1.0)" fill="rgba(255, 255, 255, 0.0)" opacity="1" stroke-width="1" stroke-linecap="round"/><path d="M 35.69875 100.07136L 38.24588 98.27187L 39.51944 97.24722L 40.79300 96.14346L 42.06656 94.96490L 43.34013 93.71638L 44.61369 92.40291L 45.88725 91.02924L 47.16081 89.59956L 48.43437 88.11726L 49.70794 86.58480L 50.98150 85.00370L 52.25506 83.37469L 53.52863 81.69799L 54.80219 79.97365L 56.07575 78.20201L 57.34931 76.38422L 58.62288 74.52264L 59.89644 72.62131L 61.17000 70.68627L 62.44356 68.72575L 63.71712 66.75021L 64.99069 64.77226L 66.26425 62.80637L 67.53781 60.86846L 68.81137 58.97534L 70.08494 57.14411L 71.35850 55.39146L 72.63206 53.73295L 73.90563 52.18240L 75.17919 50.75125L 76.45275 49.44809L 77.72631 48.27835L 78.99987 47.24405L 80.27344 46.34387L 81.54700 45.57330L 82.82056 44.92499L 84.09413 44.38925L 85.36769 43.95472L 86.64125 43.60901L 87.91481 43.33943L 89.18838 43.13365L 90.46194 42.98027L 91.73550 42.86920L 93.00906 42.79187L 94.28262 42.74133L 95.55619 42.71207L 96.82975 42.69983L 98.10331 42.70121L 99.37688 42.71344L 100.65044 42.73405L 101.92400 42.76078L 103.19756 42.79153L 104.47113 42.82446L 105.74469 42.85817L 107.01825 42.89195L 108.29181 42.92589L 109.56538 42.96105L 110.83894 42.99935L 112.11250 43.04336L 113.38606 43.09595L 114.65963 43.15982L 115.93319 43.23696L 117.20675 43.32823L 118.48031 43.43300L 119.75388 43.54907L 121.02744 43.67283L 122.30100 43.79966L 123.57456 43.92464L 124.84812 44.04341L 126.12169 44.15314L 127.39525 44.25343L 128.66881 44.34714L 129.94238 44.44083L 131.21594 44.54503L 132.48950 44.67388L 133.76306 44.84458L 135.03663 45.07629L 136.31019 45.38884L 137.58375 45.80125L 138.85731 46.33014L 140.13088 46.98840L 141.40444 47.78398L 142.67800 48.71908L 143.95156 49.78985L 145.22513 50.98646L 146.49869 52.29374L 147.77225 53.69206L 149.04581 55.15870L 150.31938 56.66921L 151.59294 58.19892L 152.86650 59.72435L 154.14006 61.22440L 155.41362 62.68129L 156.68719 64.08114L 157.96075 65.41429L 159.23431 66.67526L 160.50788 67.86241L 161.78144 68.97747L 163.05500 70.02480L 164.32856 71.01075L 165.60213 71.94279L 166.87569 72.82887L 168.14925 73.67678L 169.42281 74.49368L 170.69637 75.28572L 171.96994 76.05792L 173.24350 76.81409L 174.51706 77.55699L 175.79062 78.28853L 177.06419 79.01002L 178.33775 79.72246L 179.61131 80.42678L 180.88488 81.12396L 182.15844 81.81513L 183.43200 82.50144L 184.70556 83.18395L 185.97912 83.86336L 187.25269 84.53977L 188.52625 85.21239L 189.79981 85.87944L 191.07337 86.53802L 192.34694 87.18421L 193.62050 87.81330L 194.89406 88.42008L 196.16762 88.99930L 197.44119 89.54613L 198.71475 90.05664L 199.98831 90.52819L 201.26188 90.95983L 202.53544 91.35242L 203.80900 91.70872L 205.08256 92.03327L 206.35612 92.33215L 207.62969 92.61260L 208.90325 92.88255L 210.17681 93.15013L 211.45037 93.42313L 212.72394 93.70855L 213.99750 94.01219L 215.27106 94.33831L 216.54462 94.68952L 217.81819 95.06667L 219.09175 95.46892L 220.36531 95.89389L 221.63888 96.33792L 222.91244 96.79632L 224.18600 97.26371L 225.45956 97.73431L 226.73313 98.20224L 228.00669 98.66182L 229.28025 99.10777L 230.55381 99.53544L 231.82737 99.94095L 233.10094 100.32129L 234.37450 100.67440L 235.64806 100.99916L 236.92162 101.29535L 238.19519 101.56356L 239.46875 101.80505L 240.74231 102.02155L 242.01587 102.21510L 243.28944 102.38788L 244.56300 102.54196L 245.83656 102.67926L 247.11013 102.80140L 248.38369 102.90969L 249.65725 103.00517L 250.93081 103.08866L 252.20438 103.16088L 253.47794 103.22256L 254.75150 103.27455L 256.02506 103.31794L 257.29863 103.35407L 258.57219 103.38454L 259.84575 103.41122L 261.11931 103.43610L 262.39288 103.46121L 263.66644 103.48847L 264.94000 103.51958L 266.21356 103.55587L 267.48712 103.59821L 268.76069 103.64697L 270.03425 103.70202L 271.30781 103.76272L 272.58137 103.82802L 273.85494 103.89660L 275.12850 103.96691L 276.40206 104.03740L 277.67563 104.10657L 278.94919 104.17311L 280.22275 104.23602L 281.49631 104.29461L 282.76988 104.34856L 284.04344 104.39787L 285.31700 104.44286L 286.59056 104.48408L 287.86413 104.52220L 289.13769 104.55796L 290.41125 104.59209" stroke="rgba(214, 39, 40, 1.0)" fill="rgba(255, 255, 255, 0.0)" opacity="1" stroke-width="1" stroke-linecap="round"/><text id="15" fill="black" font-family="Ubuntu" font-weight="bold" font-size="10" text-anchor="start" alignment-baseline="baseline" x="2.50000" y="10.26000">A. Probability distributions</text><text id="16" fill="black" font-family="Ubuntu" font-weight="bold" font-size="10" text-anchor="start" alignment-baseline="baseline" x="160.69000" y="148.68000">ğœƒ</text><text id="17" fill="black" font-family="Ubuntu" font-weight="bold" font-size="10" text-anchor="start" alignment-baseline="baseline" x="0" y="0" transform="translate(10.25000, 75.15167) rotate(-90)">P(ğœƒ)</text><line x1="26.25000" y1="19.59333" x2="26.25000" y2="114.09000" stroke="black" stroke-linecap="square"/><line x1="26.25000" y1="19.59333" x2="299.86000" y2="19.59333" stroke="black" stroke-linecap="square"/><line x1="299.86000" y1="19.59333" x2="299.86000" y2="114.09000" stroke="black" stroke-linecap="square"/><line x1="26.25000" y1="114.09000" x2="299.86000" y2="114.09000" stroke="black" stroke-linecap="square"/><line x1="67.70485" y1="114.09000" x2="67.70485" y2="119.42333" stroke="black" stroke-linecap="square"/><text id="27" fill="black" font-family="Ubuntu" font-weight="normal" font-size="10" text-anchor="start" alignment-baseline="baseline" x="62.05985" y="130.51333">0.1</text><line x1="104.19280" y1="114.09000" x2="104.19280" y2="119.42333" stroke="black" stroke-linecap="square"/><text id="29" fill="black" font-family="Ubuntu" font-weight="normal" font-size="10" text-anchor="start" alignment-baseline="baseline" x="97.94280" y="130.51333">0.2</text><line x1="140.68075" y1="114.09000" x2="140.68075" y2="119.42333" stroke="black" stroke-linecap="square"/><text id="31" fill="black" font-family="Ubuntu" font-weight="normal" font-size="10" text-anchor="start" alignment-baseline="baseline" x="134.43575" y="130.51333">0.3</text><line x1="177.16870" y1="114.09000" x2="177.16870" y2="119.42333" stroke="black" stroke-linecap="square"/><text id="33" fill="black" font-family="Ubuntu" font-weight="normal" font-size="10" text-anchor="start" alignment-baseline="baseline" x="170.75870" y="130.51333">0.4</text><line x1="213.65666" y1="114.09000" x2="213.65666" y2="119.42333" stroke="black" stroke-linecap="square"/><text id="35" fill="black" font-family="Ubuntu" font-weight="normal" font-size="10" text-anchor="start" alignment-baseline="baseline" x="207.40165" y="130.51333">0.5</text><line x1="250.14461" y1="114.09000" x2="250.14461" y2="119.42333" stroke="black" stroke-linecap="square"/><text id="37" fill="black" font-family="Ubuntu" font-weight="normal" font-size="10" text-anchor="start" alignment-baseline="baseline" x="243.77961" y="130.51333">0.6</text><line x1="286.63256" y1="114.09000" x2="286.63256" y2="119.42333" stroke="black" stroke-linecap="square"/><text id="39" fill="black" font-family="Ubuntu" font-weight="normal" font-size="10" text-anchor="start" alignment-baseline="baseline" x="280.32756" y="130.51333">0.7</text></svg>