<svg xmlns="http://www.w3.org/2000/svg" width="226.77165pt" height="141.73228pt" viewBox="0 0 226.77165 141.73228"><g id="0"/><g id="1"/><g id="2"/><g id="3"/><g id="4"/><g id="5"/><g id="6"/><g id="7"/><g id="8"/><g id="9"/><g id="10"/><g id="50"/><g id="64"/><g id="66"/><g id="68"/><path d="M 68.88150 62.69977L 68.88150 34.21549L 84.94134 34.21549L 84.94134 62.69977z" stroke="none" fill="rgba(255, 192, 203, 0.99609375)" opacity="1" stroke-width="1" stroke-linecap="square"/><path d="M 68.88150 62.69977L 68.88150 86.72103L 84.94134 86.72103L 84.94134 62.69977z" stroke="none" fill="rgba(255, 192, 203, 0.99609375)" opacity="1" stroke-width="1" stroke-linecap="square"/><path d="M 68.88150 62.69977L 68.88150 34.21549L 84.94134 34.21549L 84.94134 62.69977" stroke="black" fill="none" opacity="1" stroke-width="1" stroke-linecap="square"/><path d="M 68.88150 62.69977L 68.88150 86.72103L 84.94134 86.72103L 84.94134 62.69977" stroke="black" fill="none" opacity="1" stroke-width="1" stroke-linecap="square"/><line x1="68.88149606299208px" y1="62.69977027630209px" x2="84.94133858267712px" y2="62.69977027630209px" stroke="black" stroke-linecap="square"/><line x1="76.91141732283461px" y1="34.21548734201728px" x2="76.91141732283461px" y2="23.320614379222px" stroke="black" stroke-linecap="square"/><line x1="76.91141732283461px" y1="86.72102853812407px" x2="76.91141732283461px" y2="102.07892617338219px" stroke="black" stroke-linecap="square"/><line x1="72.89645669291335px" y1="102.07892617338219px" x2="80.92637795275586px" y2="102.07892617338219px" stroke="black" stroke-linecap="square"/><line x1="72.89645669291335px" y1="23.320614379222px" x2="80.92637795275586px" y2="23.320614379222px" stroke="black" stroke-linecap="square"/><path d="M 109.03110 65.48707L 109.03110 38.10692L 125.09094 38.10692L 125.09094 65.48707z" stroke="none" fill="rgba(255, 192, 203, 0.99609375)" opacity="1" stroke-width="1" stroke-linecap="square"/><path d="M 109.03110 65.48707L 109.03110 89.81038L 125.09094 89.81038L 125.09094 65.48707z" stroke="none" fill="rgba(255, 192, 203, 0.99609375)" opacity="1" stroke-width="1" stroke-linecap="square"/><path d="M 109.03110 65.48707L 109.03110 38.10692L 125.09094 38.10692L 125.09094 65.48707" stroke="black" fill="none" opacity="1" stroke-width="1" stroke-linecap="square"/><path d="M 109.03110 65.48707L 109.03110 89.81038L 125.09094 89.81038L 125.09094 65.48707" stroke="black" fill="none" opacity="1" stroke-width="1" stroke-linecap="square"/><line x1="109.03110236220468px" y1="65.48707349905615px" x2="125.09094488188971px" y2="65.48707349905615px" stroke="black" stroke-linecap="square"/><line x1="117.0610236220472px" y1="38.10691806090509px" x2="117.0610236220472px" y2="26.709477748735395px" stroke="black" stroke-linecap="square"/><line x1="117.0610236220472px" y1="89.81037906133275px" x2="117.0610236220472px" y2="104.2646692493769px" stroke="black" stroke-linecap="square"/><line x1="113.04606299212594px" y1="104.2646692493769px" x2="121.07598425196846px" y2="104.2646692493769px" stroke="black" stroke-linecap="square"/><line x1="113.04606299212594px" y1="26.709477748735395px" x2="121.07598425196846px" y2="26.709477748735395px" stroke="black" stroke-linecap="square"/><path d="M 149.18071 61.98893L 149.18071 34.89949L 165.24055 34.89949L 165.24055 61.98893z" stroke="none" fill="rgba(255, 192, 203, 0.99609375)" opacity="1" stroke-width="1" stroke-linecap="square"/><path d="M 149.18071 61.98893L 149.18071 82.60835L 165.24055 82.60835L 165.24055 61.98893z" stroke="none" fill="rgba(255, 192, 203, 0.99609375)" opacity="1" stroke-width="1" stroke-linecap="square"/><path d="M 149.18071 61.98893L 149.18071 34.89949L 165.24055 34.89949L 165.24055 61.98893" stroke="black" fill="none" opacity="1" stroke-width="1" stroke-linecap="square"/><path d="M 149.18071 61.98893L 149.18071 82.60835L 165.24055 82.60835L 165.24055 61.98893" stroke="black" fill="none" opacity="1" stroke-width="1" stroke-linecap="square"/><line x1="149.18070866141727px" y1="61.988930430019934px" x2="165.24055118110232px" y2="61.988930430019934px" stroke="black" stroke-linecap="square"/><line x1="157.2106299212598px" y1="34.89949179141799px" x2="157.2106299212598px" y2="26.207283113206547px" stroke="black" stroke-linecap="square"/><line x1="157.2106299212598px" y1="82.60835488050249px" x2="157.2106299212598px" y2="97.7705777468333px" stroke="black" stroke-linecap="square"/><line x1="153.19566929133853px" y1="97.7705777468333px" x2="161.22559055118106px" y2="97.7705777468333px" stroke="black" stroke-linecap="square"/><line x1="153.19566929133853px" y1="26.207283113206547px" x2="161.22559055118106px" y2="26.207283113206547px" stroke="black" stroke-linecap="square"/><path d="M 189.33031 62.65862L 189.33031 38.46383L 205.39016 38.46383L 205.39016 62.65862z" stroke="none" fill="rgba(255, 192, 203, 0.99609375)" opacity="1" stroke-width="1" stroke-linecap="square"/><path d="M 189.33031 62.65862L 189.33031 87.22255L 205.39016 87.22255L 205.39016 62.65862z" stroke="none" fill="rgba(255, 192, 203, 0.99609375)" opacity="1" stroke-width="1" stroke-linecap="square"/><path d="M 189.33031 62.65862L 189.33031 38.46383L 205.39016 38.46383L 205.39016 62.65862" stroke="black" fill="none" opacity="1" stroke-width="1" stroke-linecap="square"/><path d="M 189.33031 62.65862L 189.33031 87.22255L 205.39016 87.22255L 205.39016 62.65862" stroke="black" fill="none" opacity="1" stroke-width="1" stroke-linecap="square"/><line x1="189.33031496062986px" y1="62.65862266775052px" x2="205.3901574803149px" y2="62.65862266775052px" stroke="black" stroke-linecap="square"/><line x1="197.3602362204724px" y1="38.46382883942846px" x2="197.3602362204724px" y2="26.089580080773715px" stroke="black" stroke-linecap="square"/><line x1="197.3602362204724px" y1="87.22255228873087px" x2="197.3602362204724px" y2="99.22766525472733px" stroke="black" stroke-linecap="square"/><line x1="193.34527559055113px" y1="99.22766525472733px" x2="201.37519685039365px" y2="99.22766525472733px" stroke="black" stroke-linecap="square"/><line x1="193.34527559055113px" y1="26.089580080773715px" x2="201.37519685039365px" y2="26.089580080773715px" stroke="black" stroke-linecap="square"/><text id="47" x="2.25px" y="9.2340002059937px" fill="black" font-family="Ubuntu" font-weight="bold" font-size="9" text-anchor="start" alignment-baseline="baseline">A. Probability distribution</text><text id="48" x="135.0073267869123px" y="139.4822834645669px" fill="black" font-family="Ubuntu" font-weight="bold" font-size="9" text-anchor="start" alignment-baseline="baseline">ğœƒ</text><text id="49" x="2.25px" y="67.2801417666157px" fill="black" font-family="Ubuntu" font-weight="bold" font-size="9" text-anchor="start" alignment-baseline="baseline">P(ğœƒ)</text><line x1="49.75px" y1="16.2340002059937px" x2="49.75px" y2="111.35128342260529px" stroke="black" stroke-linecap="square"/><line x1="45.75px" y1="103.69441706564594px" x2="49.75px" y2="103.69441706564594px" stroke="black" stroke-linecap="square"/><line x1="45.75px" y1="88.78586324261398px" x2="49.75px" y2="88.78586324261398px" stroke="black" stroke-linecap="square"/><line x1="45.75px" y1="73.87730941958206px" x2="49.75px" y2="73.87730941958206px" stroke="black" stroke-linecap="square"/><line x1="45.75px" y1="58.968755596550125px" x2="49.75px" y2="58.968755596550125px" stroke="black" stroke-linecap="square"/><line x1="45.75px" y1="44.06020177351819px" x2="49.75px" y2="44.06020177351819px" stroke="black" stroke-linecap="square"/><line x1="45.75px" y1="29.151647950486257px" x2="49.75px" y2="29.151647950486257px" stroke="black" stroke-linecap="square"/><text id="58" x="25.2080001831055px" y="106.8849170866268px" fill="black" font-family="Ubuntu" font-weight="regular" font-size="9" text-anchor="start" alignment-baseline="baseline">0.10</text><text id="59" x="25.4150009155273px" y="91.9763632635949px" fill="black" font-family="Ubuntu" font-weight="regular" font-size="9" text-anchor="start" alignment-baseline="baseline">0.15</text><text id="60" x="25.2080001831055px" y="77.0678094405629px" fill="black" font-family="Ubuntu" font-weight="regular" font-size="9" text-anchor="start" alignment-baseline="baseline">0.20</text><text id="61" x="25.4150009155273px" y="62.159255617531px" fill="black" font-family="Ubuntu" font-weight="regular" font-size="9" text-anchor="start" alignment-baseline="baseline">0.25</text><text id="62" x="25.2080001831055px" y="47.250701794499px" fill="black" font-family="Ubuntu" font-weight="regular" font-size="9" text-anchor="start" alignment-baseline="baseline">0.30</text><text id="63" x="25.4150009155273px" y="32.3421479714671px" fill="black" font-family="Ubuntu" font-weight="regular" font-size="9" text-anchor="start" alignment-baseline="baseline">0.35</text><line x1="49.75px" y1="16.234000205993702px" x2="224.5216535433071px" y2="16.234000205993702px" stroke="black" stroke-linecap="square"/><line x1="224.5216535433071px" y1="16.2340002059937px" x2="224.5216535433071px" y2="111.35128342260529px" stroke="black" stroke-linecap="square"/><line x1="49.75px" y1="111.3512834226053px" x2="224.5216535433071px" y2="111.3512834226053px" stroke="black" stroke-linecap="square"/><line x1="76.91141732283461px" y1="111.3512834226053px" x2="76.91141732283461px" y2="115.3512834226053px" stroke="black" stroke-linecap="square"/><text id="71" x="72.7219174677931px" y="124.7322834645669px" fill="black" font-family="Ubuntu" font-weight="regular" font-size="9" text-anchor="start" alignment-baseline="baseline">C1</text><line x1="117.0610236220472px" y1="111.3512834226053px" x2="117.0610236220472px" y2="115.3512834226053px" stroke="black" stroke-linecap="square"/><text id="73" x="112.3270234160536px" y="124.7322834645669px" fill="black" font-family="Ubuntu" font-weight="regular" font-size="9" text-anchor="start" alignment-baseline="baseline">C2</text><line x1="157.2106299212598px" y1="111.3512834226053px" x2="157.2106299212598px" y2="115.3512834226053px" stroke="black" stroke-linecap="square"/><text id="75" x="152.4811301043653px" y="124.7322834645669px" fill="black" font-family="Ubuntu" font-weight="regular" font-size="9" text-anchor="start" alignment-baseline="baseline">C3</text><line x1="197.3602362204724px" y1="111.3512834226053px" x2="197.3602362204724px" y2="115.3512834226053px" stroke="black" stroke-linecap="square"/><text id="77" x="192.4822364379102px" y="124.7322834645669px" fill="black" font-family="Ubuntu" font-weight="regular" font-size="9" text-anchor="start" alignment-baseline="baseline">C4</text></svg>