<svg xmlns="http://www.w3.org/2000/svg" width="226.77165354330708pt" height="170.0787401574803pt" viewBox="0 0 226.77165354330708 170.0787401574803"><g id="0"/><g id="1"/><g id="2"/><g id="3"/><g id="4"/><g id="5"/><g id="6"/><g id="7"/><g id="8"/><g id="9"/><g id="10"/><g id="214"/><g id="216"/><g id="218"/><g id="220"/><circle cx="65.7789331244096px" cy="70.37861027539077px" r="2px" fill="rgba(0, 128, 128, 0.5)" stroke-width="1"/><circle cx="95.89054213141941px" cy="116.6979712974755px" r="2px" fill="rgba(0, 128, 128, 0.5)" stroke-width="1"/><circle cx="188.45960364268268px" cy="73.34072109731807px" r="2px" fill="rgba(0, 128, 128, 0.5)" stroke-width="1"/><circle cx="126.03838732252638px" cy="38.90540186525901px" r="2px" fill="rgba(0, 128, 128, 0.5)" stroke-width="1"/><circle cx="93.87515285434495px" cy="43.164007343320776px" r="2px" fill="rgba(0, 128, 128, 0.5)" stroke-width="1"/><circle cx="173.84378811737605px" cy="71.8256894494466px" r="2px" fill="rgba(0, 128, 128, 0.5)" stroke-width="1"/><circle cx="43.391356709058726px" cy="140.8821258507375px" r="2px" fill="rgba(0, 128, 128, 0.5)" stroke-width="1"/><circle cx="210.57583959266026px" cy="42.46457657664804px" r="2px" fill="rgba(0, 128, 128, 0.5)" stroke-width="1"/><circle cx="139.72201583080448px" cy="48.678900215812526px" r="2px" fill="rgba(0, 128, 128, 0.5)" stroke-width="1"/><circle cx="155.00501916688202px" cy="52.98895808824862px" r="2px" fill="rgba(0, 128, 128, 0.5)" stroke-width="1"/><circle cx="60.8080028922775px" cy="86.47003769702798px" r="2px" fill="rgba(0, 128, 128, 0.5)" stroke-width="1"/><circle cx="157.69395181362188px" cy="67.6033656452875px" r="2px" fill="rgba(0, 128, 128, 0.5)" stroke-width="1"/><circle cx="191.8812141004159px" cy="85.8176190246414px" r="2px" fill="rgba(0, 128, 128, 0.5)" stroke-width="1"/><circle cx="186.40057247570053px" cy="123.02244710766186px" r="2px" fill="rgba(0, 128, 128, 0.5)" stroke-width="1"/><circle cx="200.37062409400994px" cy="80.05774781297251px" r="2px" fill="rgba(0, 128, 128, 0.5)" stroke-width="1"/><circle cx="45.80275271752006px" cy="136.07296626021483px" r="2px" fill="rgba(0, 128, 128, 0.5)" stroke-width="1"/><circle cx="156.46903153606183px" cy="30.230422053678502px" r="2px" fill="rgba(0, 128, 128, 0.5)" stroke-width="1"/><circle cx="178.17577103934622px" cy="83.48999102754416px" r="2px" fill="rgba(0, 128, 128, 0.5)" stroke-width="1"/><circle cx="150.13283904662865px" cy="29.084840909279176px" r="2px" fill="rgba(0, 128, 128, 0.5)" stroke-width="1"/><circle cx="159.9014621462411px" cy="82.2624652773558px" r="2px" fill="rgba(0, 128, 128, 0.5)" stroke-width="1"/><circle cx="219.6850393700787px" cy="106.11784172384682px" r="2px" fill="rgba(0, 128, 128, 0.5)" stroke-width="1"/><circle cx="180.30974206826454px" cy="137.2099311823301px" r="2px" fill="rgba(0, 128, 128, 0.5)" stroke-width="1"/><circle cx="165.59526239550615px" cy="76.18761209685732px" r="2px" fill="rgba(0, 128, 128, 0.5)" stroke-width="1"/><circle cx="213.87874920457074px" cy="47.968777618128485px" r="2px" fill="rgba(0, 128, 128, 0.5)" stroke-width="1"/><circle cx="114.4822659978206px" cy="85.5011702335776px" r="2px" fill="rgba(0, 128, 128, 0.5)" stroke-width="1"/><circle cx="213.95304041486776px" cy="105.74263968189129px" r="2px" fill="rgba(0, 128, 128, 0.5)" stroke-width="1"/><circle cx="172.92305791320985px" cy="76.90769380265795px" r="2px" fill="rgba(0, 128, 128, 0.5)" stroke-width="1"/><circle cx="168.46354725610013px" cy="110.40335511591263px" r="2px" fill="rgba(0, 128, 128, 0.5)" stroke-width="1"/><circle cx="83.27020490162847px" cy="116.23169402998738px" r="2px" fill="rgba(0, 128, 128, 0.5)" stroke-width="1"/><circle cx="92.17811758687841px" cy="84.76930087271865px" r="2px" fill="rgba(0, 128, 128, 0.5)" stroke-width="1"/><circle cx="164.92688002384733px" cy="55.06388271290877px" r="2px" fill="rgba(0, 128, 128, 0.5)" stroke-width="1"/><circle cx="137.71027194261976px" cy="81.11056596529369px" r="2px" fill="rgba(0, 128, 128, 0.5)" stroke-width="1"/><circle cx="147.6173630997004px" cy="98.69465791989697px" r="2px" fill="rgba(0, 128, 128, 0.5)" stroke-width="1"/><circle cx="64.14988328478007px" cy="82.99791842559426px" r="2px" fill="rgba(0, 128, 128, 0.5)" stroke-width="1"/><circle cx="127.54338739151531px" cy="52.375720695579886px" r="2px" fill="rgba(0, 128, 128, 0.5)" stroke-width="1"/><circle cx="66.55984328833915px" cy="77.5727174014784px" r="2px" fill="rgba(0, 128, 128, 0.5)" stroke-width="1"/><circle cx="170.70197560242195px" cy="99.30934857548226px" r="2px" fill="rgba(0, 128, 128, 0.5)" stroke-width="1"/><circle cx="136.63630080666883px" cy="132.58101953696038px" r="2px" fill="rgba(0, 128, 128, 0.5)" stroke-width="1"/><circle cx="144.83342956578088px" cy="91.12132160790495px" r="2px" fill="rgba(0, 128, 128, 0.5)" stroke-width="1"/><circle cx="163.97178234256512px" cy="87.54296522446384px" r="2px" fill="rgba(0, 128, 128, 0.5)" stroke-width="1"/><circle cx="171.3804491686135px" cy="30.671839073963504px" r="2px" fill="rgba(0, 128, 128, 0.5)" stroke-width="1"/><circle cx="185.66427033075166px" cy="41.26494622607px" r="2px" fill="rgba(0, 128, 128, 0.5)" stroke-width="1"/><circle cx="148.91726745315935px" cy="128.51662319192758px" r="2px" fill="rgba(0, 128, 128, 0.5)" stroke-width="1"/><circle cx="186.73508283069822px" cy="63.893198485221255px" r="2px" fill="rgba(0, 128, 128, 0.5)" stroke-width="1"/><circle cx="205.24002112292982px" cy="104.99319422485286px" r="2px" fill="rgba(0, 128, 128, 0.5)" stroke-width="1"/><circle cx="139.1244992017298px" cy="81.16422146228592px" r="2px" fill="rgba(0, 128, 128, 0.5)" stroke-width="1"/><circle cx="126.77798143724117px" cy="69.09298433983234px" r="2px" fill="rgba(0, 128, 128, 0.5)" stroke-width="1"/><circle cx="169.5712852429932px" cy="120.02728314083987px" r="2px" fill="rgba(0, 128, 128, 0.5)" stroke-width="1"/><circle cx="153.9825944851466px" cy="41.263790102134905px" r="2px" fill="rgba(0, 128, 128, 0.5)" stroke-width="1"/><circle cx="193.91614446714533px" cy="47.25026054941568px" r="2px" fill="rgba(0, 128, 128, 0.5)" stroke-width="1"/><circle cx="112.38755708401813px" cy="111.83777615820318px" r="2px" fill="rgba(0, 128, 128, 0.5)" stroke-width="1"/><circle cx="136.82425366295138px" cy="83.55037366561263px" r="2px" fill="rgba(0, 128, 128, 0.5)" stroke-width="1"/><circle cx="147.57654226097026px" cy="103.77702626152583px" r="2px" fill="rgba(0, 128, 128, 0.5)" stroke-width="1"/><circle cx="202.55349039691868px" cy="94.46976743980318px" r="2px" fill="rgba(0, 128, 128, 0.5)" stroke-width="1"/><circle cx="116.08311260053827px" cy="83.1462193318402px" r="2px" fill="rgba(0, 128, 128, 0.5)" stroke-width="1"/><circle cx="209.64236378170176px" cy="94.01207066804241px" r="2px" fill="rgba(0, 128, 128, 0.5)" stroke-width="1"/><circle cx="146.96398514135012px" cy="95.7121630468892px" r="2px" fill="rgba(0, 128, 128, 0.5)" stroke-width="1"/><circle cx="174.29568752073953px" cy="38.18531642650184px" r="2px" fill="rgba(0, 128, 128, 0.5)" stroke-width="1"/><circle cx="44.39206439204371px" cy="111.5014039262455px" r="2px" fill="rgba(0, 128, 128, 0.5)" stroke-width="1"/><circle cx="73.2153641075314px" cy="33.45839445542924px" r="2px" fill="rgba(0, 128, 128, 0.5)" stroke-width="1"/><circle cx="192.05597969990117px" cy="68.61177940426649px" r="2px" fill="rgba(0, 128, 128, 0.5)" stroke-width="1"/><circle cx="42.478810488304404px" cy="104.31334426437519px" r="2px" fill="rgba(0, 128, 128, 0.5)" stroke-width="1"/><circle cx="92.24417450964717px" cy="62.49623902956539px" r="2px" fill="rgba(0, 128, 128, 0.5)" stroke-width="1"/><circle cx="116.32228793217185px" cy="57.88462982226056px" r="2px" fill="rgba(0, 128, 128, 0.5)" stroke-width="1"/><circle cx="86.1517220982399px" cy="66.1355386599233px" r="2px" fill="rgba(0, 128, 128, 0.5)" stroke-width="1"/><circle cx="36.0186143334456px" cy="30.10584304607357px" r="2px" fill="rgba(0, 128, 128, 0.5)" stroke-width="1"/><circle cx="70.48559578512248px" cy="53.166137010548205px" r="2px" fill="rgba(0, 128, 128, 0.5)" stroke-width="1"/><circle cx="91.50814971230926px" cy="82.0315846981058px" r="2px" fill="rgba(0, 128, 128, 0.5)" stroke-width="1"/><circle cx="127.43456613096774px" cy="116.0791353587087px" r="2px" fill="rgba(0, 128, 128, 0.5)" stroke-width="1"/><circle cx="140.56951301868804px" cy="33.94116686248146px" r="2px" fill="rgba(0, 128, 128, 0.5)" stroke-width="1"/><circle cx="101.675281264596px" cy="137.8222982145715px" r="2px" fill="rgba(0, 128, 128, 0.5)" stroke-width="1"/><circle cx="218.46114434399277px" cy="33.866672257464884px" r="2px" fill="rgba(0, 128, 128, 0.5)" stroke-width="1"/><circle cx="148.13966604756087px" cy="95.94368804107205px" r="2px" fill="rgba(0, 128, 128, 0.5)" stroke-width="1"/><circle cx="161.97430666885816px" cy="112.00722304010728px" r="2px" fill="rgba(0, 128, 128, 0.5)" stroke-width="1"/><circle cx="142.89881135139973px" cy="106.09515371272909px" r="2px" fill="rgba(0, 128, 128, 0.5)" stroke-width="1"/><circle cx="58.07482997866012px" cy="126.2559641272141px" r="2px" fill="rgba(0, 128, 128, 0.5)" stroke-width="1"/><circle cx="151.80278929160653px" cy="102.08952803322964px" r="2px" fill="rgba(0, 128, 128, 0.5)" stroke-width="1"/><circle cx="181.17345103962487px" cy="117.38433413442536px" r="2px" fill="rgba(0, 128, 128, 0.5)" stroke-width="1"/><circle cx="118.52010529877207px" cy="67.23396211247349px" r="2px" fill="rgba(0, 128, 128, 0.5)" stroke-width="1"/><circle cx="74.0743203234154px" cy="117.8219101523857px" r="2px" fill="rgba(0, 128, 128, 0.5)" stroke-width="1"/><circle cx="126.42405230704294px" cy="118.94770938138876px" r="2px" fill="rgba(0, 128, 128, 0.5)" stroke-width="1"/><circle cx="104.20741188133324px" cy="79.20809395247544px" r="2px" fill="rgba(0, 128, 128, 0.5)" stroke-width="1"/><circle cx="57.79502891214452px" cy="81.8170440811219px" r="2px" fill="rgba(0, 128, 128, 0.5)" stroke-width="1"/><circle cx="217.10557787155852px" cy="49.28959683281891px" r="2px" fill="rgba(0, 128, 128, 0.5)" stroke-width="1"/><circle cx="194.1603455648833px" cy="114.59959639034565px" r="2px" fill="rgba(0, 128, 128, 0.5)" stroke-width="1"/><circle cx="207.28935679944465px" cy="82.82368807961637px" r="2px" fill="rgba(0, 128, 128, 0.5)" stroke-width="1"/><circle cx="181.31046240566928px" cy="114.93637382322237px" r="2px" fill="rgba(0, 128, 128, 0.5)" stroke-width="1"/><circle cx="146.13808827790234px" cy="29.69417851307689px" r="2px" fill="rgba(0, 128, 128, 0.5)" stroke-width="1"/><circle cx="45.00352229859033px" cy="55.73450849097092px" r="2px" fill="rgba(0, 128, 128, 0.5)" stroke-width="1"/><circle cx="210.26183151334362px" cy="80.36436073937435px" r="2px" fill="rgba(0, 128, 128, 0.5)" stroke-width="1"/><circle cx="38.1603192760971px" cy="102.22985853028993px" r="2px" fill="rgba(0, 128, 128, 0.5)" stroke-width="1"/><circle cx="208.24671311252052px" cy="130.621169236217px" r="2px" fill="rgba(0, 128, 128, 0.5)" stroke-width="1"/><circle cx="184.10085542949975px" cy="86.38036683961172px" r="2px" fill="rgba(0, 128, 128, 0.5)" stroke-width="1"/><circle cx="116.69335719175585px" cy="58.09541552881582px" r="2px" fill="rgba(0, 128, 128, 0.5)" stroke-width="1"/><circle cx="78.80159529342029px" cy="120.46884514787885px" r="2px" fill="rgba(0, 128, 128, 0.5)" stroke-width="1"/><circle cx="78.70108311944323px" cy="80.50307341345761px" r="2px" fill="rgba(0, 128, 128, 0.5)" stroke-width="1"/><circle cx="141.72652125024604px" cy="94.05113666921747px" r="2px" fill="rgba(0, 128, 128, 0.5)" stroke-width="1"/><circle cx="160.18506622166643px" cy="30.45526972541337px" r="2px" fill="rgba(0, 128, 128, 0.5)" stroke-width="1"/><circle cx="60.75953286966956px" cy="88.1619574085677px" r="2px" fill="rgba(0, 128, 128, 0.5)" stroke-width="1"/><circle cx="155.71038813011086px" cy="90.19082710596709px" r="2px" fill="rgba(0, 128, 128, 0.5)" stroke-width="1"/><circle cx="206.6580250440469px" cy="28.78803805561442px" r="2px" fill="rgba(0, 128, 128, 0.5)" stroke-width="1"/><circle cx="44.22916680074362px" cy="133.84640176171692px" r="2px" fill="rgba(0, 128, 128, 0.5)" stroke-width="1"/><circle cx="199.17841881186473px" cy="70.5051536373096px" r="2px" fill="rgba(0, 128, 128, 0.5)" stroke-width="1"/><circle cx="150.39683330985764px" cy="129.06443551597536px" r="2px" fill="rgba(0, 128, 128, 0.5)" stroke-width="1"/><circle cx="48.54583955181121px" cy="59.2500049522918px" r="2px" fill="rgba(0, 128, 128, 0.5)" stroke-width="1"/><circle cx="203.6436732215651px" cy="39.90787223251832px" r="2px" fill="rgba(0, 128, 128, 0.5)" stroke-width="1"/><circle cx="155.08433924544514px" cy="124.62771887905092px" r="2px" fill="rgba(0, 128, 128, 0.5)" stroke-width="1"/><circle cx="36.67811985252802px" cy="33.96467481733215px" r="2px" fill="rgba(0, 128, 128, 0.5)" stroke-width="1"/><circle cx="121.39553782028447px" cy="45.87672455668033px" r="2px" fill="rgba(0, 128, 128, 0.5)" stroke-width="1"/><circle cx="184.20508248699213px" cy="91.19944788651824px" r="2px" fill="rgba(0, 128, 128, 0.5)" stroke-width="1"/><circle cx="116.47251887560014px" cy="40.199227029293716px" r="2px" fill="rgba(0, 128, 128, 0.5)" stroke-width="1"/><circle cx="190.35834931686082px" cy="43.99553572402747px" r="2px" fill="rgba(0, 128, 128, 0.5)" stroke-width="1"/><circle cx="89.95028871118791px" cy="37.28509319307803px" r="2px" fill="rgba(0, 128, 128, 0.5)" stroke-width="1"/><circle cx="80.05445907725735px" cy="118.1035748851136px" r="2px" fill="rgba(0, 128, 128, 0.5)" stroke-width="1"/><circle cx="178.387010752663px" cy="42.463186588895724px" r="2px" fill="rgba(0, 128, 128, 0.5)" stroke-width="1"/><circle cx="56.07723298000915px" cy="73.4893616878216px" r="2px" fill="rgba(0, 128, 128, 0.5)" stroke-width="1"/><circle cx="166.2798676137648px" cy="83.93859874936008px" r="2px" fill="rgba(0, 128, 128, 0.5)" stroke-width="1"/><circle cx="205.5883578491227px" cy="122.03508519051147px" r="2px" fill="rgba(0, 128, 128, 0.5)" stroke-width="1"/><circle cx="194.81642347653457px" cy="70.25310915551356px" r="2px" fill="rgba(0, 128, 128, 0.5)" stroke-width="1"/><circle cx="207.95712259879576px" cy="110.00449262092027px" r="2px" fill="rgba(0, 128, 128, 0.5)" stroke-width="1"/><circle cx="98.71591403351522px" cy="107.8242006639984px" r="2px" fill="rgba(0, 128, 128, 0.5)" stroke-width="1"/><circle cx="171.47896684505184px" cy="137.1090247772384px" r="2px" fill="rgba(0, 128, 128, 0.5)" stroke-width="1"/><circle cx="87.12921200218301px" cy="48.49536621751617px" r="2px" fill="rgba(0, 128, 128, 0.5)" stroke-width="1"/><circle cx="131.66912494093697px" cy="33.282610839253095px" r="2px" fill="rgba(0, 128, 128, 0.5)" stroke-width="1"/><circle cx="153.41951393865008px" cy="83.73364620004197px" r="2px" fill="rgba(0, 128, 128, 0.5)" stroke-width="1"/><circle cx="113.57196003787033px" cy="96.83329160020449px" r="2px" fill="rgba(0, 128, 128, 0.5)" stroke-width="1"/><circle cx="108.13356650952477px" cy="131.2453048363947px" r="2px" fill="rgba(0, 128, 128, 0.5)" stroke-width="1"/><circle cx="210.80233755565075px" cy="73.1185505967949px" r="2px" fill="rgba(0, 128, 128, 0.5)" stroke-width="1"/><circle cx="209.26645869215804px" cy="30.324146941081878px" r="2px" fill="rgba(0, 128, 128, 0.5)" stroke-width="1"/><circle cx="210.61950629852493px" cy="45.98882611850279px" r="2px" fill="rgba(0, 128, 128, 0.5)" stroke-width="1"/><circle cx="38.0521514663605px" cy="100.31883101672273px" r="2px" fill="rgba(0, 128, 128, 0.5)" stroke-width="1"/><circle cx="36.35080443102723px" cy="87.68688743583195px" r="2px" fill="rgba(0, 128, 128, 0.5)" stroke-width="1"/><circle cx="183.86706419187902px" cy="77.68890182386033px" r="2px" fill="rgba(0, 128, 128, 0.5)" stroke-width="1"/><circle cx="175.08907212955233px" cy="107.6446018359672px" r="2px" fill="rgba(0, 128, 128, 0.5)" stroke-width="1"/><circle cx="48.38735564034052px" cy="62.176492676385706px" r="2px" fill="rgba(0, 128, 128, 0.5)" stroke-width="1"/><circle cx="105.71431860791871px" cy="95.24447744002447px" r="2px" fill="rgba(0, 128, 128, 0.5)" stroke-width="1"/><circle cx="60.21847370670456px" cy="139.463925875384px" r="2px" fill="rgba(0, 128, 128, 0.5)" stroke-width="1"/><circle cx="58.45181163988122px" cy="62.150652493297116px" r="2px" fill="rgba(0, 128, 128, 0.5)" stroke-width="1"/><circle cx="55.23301202503022px" cy="133.4730565712932px" r="2px" fill="rgba(0, 128, 128, 0.5)" stroke-width="1"/><circle cx="118.24240918213974px" cy="85.95820591611667px" r="2px" fill="rgba(0, 128, 128, 0.5)" stroke-width="1"/><circle cx="99.69588489735554px" cy="45.02390311581123px" r="2px" fill="rgba(0, 128, 128, 0.5)" stroke-width="1"/><circle cx="213.26638180101355px" cy="36.608311128191005px" r="2px" fill="rgba(0, 128, 128, 0.5)" stroke-width="1"/><circle cx="141.5308980397446px" cy="69.6746472814929px" r="2px" fill="rgba(0, 128, 128, 0.5)" stroke-width="1"/><circle cx="53.13797756529037px" cy="70.89875292671087px" r="2px" fill="rgba(0, 128, 128, 0.5)" stroke-width="1"/><circle cx="198.04037821498554px" cy="115.86670889148931px" r="2px" fill="rgba(0, 128, 128, 0.5)" stroke-width="1"/><circle cx="48.61228673965395px" cy="115.97340732196335px" r="2px" fill="rgba(0, 128, 128, 0.5)" stroke-width="1"/><circle cx="103.6701069711943px" cy="53.404282919247926px" r="2px" fill="rgba(0, 128, 128, 0.5)" stroke-width="1"/><circle cx="42.338836240592585px" cy="48.46975884306272px" r="2px" fill="rgba(0, 128, 128, 0.5)" stroke-width="1"/><circle cx="55.66888534690914px" cy="133.83840271292132px" r="2px" fill="rgba(0, 128, 128, 0.5)" stroke-width="1"/><circle cx="165.2178588960116px" cy="60.47252363441286px" r="2px" fill="rgba(0, 128, 128, 0.5)" stroke-width="1"/><circle cx="182.99742392572625px" cy="45.305487105817924px" r="2px" fill="rgba(0, 128, 128, 0.5)" stroke-width="1"/><circle cx="85.79778057213233px" cy="69.46895631676627px" r="2px" fill="rgba(0, 128, 128, 0.5)" stroke-width="1"/><circle cx="173.37534425594754px" cy="131.02312356836333px" r="2px" fill="rgba(0, 128, 128, 0.5)" stroke-width="1"/><circle cx="183.79088706176827px" cy="102.8544996754745px" r="2px" fill="rgba(0, 128, 128, 0.5)" stroke-width="1"/><circle cx="49.658923856392114px" cy="97.2941853310725px" r="2px" fill="rgba(0, 128, 128, 0.5)" stroke-width="1"/><circle cx="195.51951039868868px" cy="100.07574946244517px" r="2px" fill="rgba(0, 128, 128, 0.5)" stroke-width="1"/><circle cx="121.72386836187158px" cy="121.82754481380547px" r="2px" fill="rgba(0, 128, 128, 0.5)" stroke-width="1"/><circle cx="194.2787820722515px" cy="121.43949405718277px" r="2px" fill="rgba(0, 128, 128, 0.5)" stroke-width="1"/><circle cx="122.64104402691129px" cy="42.43027309101613px" r="2px" fill="rgba(0, 128, 128, 0.5)" stroke-width="1"/><circle cx="114.41407402109049px" cy="139.99199160190915px" r="2px" fill="rgba(0, 128, 128, 0.5)" stroke-width="1"/><circle cx="100.55981234879404px" cy="39.88076681949369px" r="2px" fill="rgba(0, 128, 128, 0.5)" stroke-width="1"/><circle cx="90.69258002231676px" cy="33.12470136871779px" r="2px" fill="rgba(0, 128, 128, 0.5)" stroke-width="1"/><circle cx="125.39408155109739px" cy="79.99844674613573px" r="2px" fill="rgba(0, 128, 128, 0.5)" stroke-width="1"/><circle cx="211.67614983293964px" cy="54.66226167979938px" r="2px" fill="rgba(0, 128, 128, 0.5)" stroke-width="1"/><circle cx="101.34255554736836px" cy="57.1336601606866px" r="2px" fill="rgba(0, 128, 128, 0.5)" stroke-width="1"/><circle cx="58.88367578964343px" cy="108.53119448034752px" r="2px" fill="rgba(0, 128, 128, 0.5)" stroke-width="1"/><circle cx="139.17730759474853px" cy="85.49336474547556px" r="2px" fill="rgba(0, 128, 128, 0.5)" stroke-width="1"/><circle cx="159.18025838249395px" cy="84.33998325220762px" r="2px" fill="rgba(0, 128, 128, 0.5)" stroke-width="1"/><circle cx="37.819832166037386px" cy="30.447208856209905px" r="2px" fill="rgba(0, 128, 128, 0.5)" stroke-width="1"/><circle cx="213.52294060626684px" cy="63.9395635483206px" r="2px" fill="rgba(0, 128, 128, 0.5)" stroke-width="1"/><circle cx="140.1063061038558px" cy="68.87964668003524px" r="2px" fill="rgba(0, 128, 128, 0.5)" stroke-width="1"/><circle cx="146.88734095832504px" cy="70.84700683898545px" r="2px" fill="rgba(0, 128, 128, 0.5)" stroke-width="1"/><circle cx="212.4512999984962px" cy="129.76886225089422px" r="2px" fill="rgba(0, 128, 128, 0.5)" stroke-width="1"/><circle cx="82.12208996390427px" cy="91.3124645688768px" r="2px" fill="rgba(0, 128, 128, 0.5)" stroke-width="1"/><circle cx="124.72812711187689px" cy="105.60653443053707px" r="2px" fill="rgba(0, 128, 128, 0.5)" stroke-width="1"/><circle cx="108.94093937826635px" cy="129.20864417131637px" r="2px" fill="rgba(0, 128, 128, 0.5)" stroke-width="1"/><circle cx="177.8660947335744px" cy="27.735614341075px" r="2px" fill="rgba(0, 128, 128, 0.5)" stroke-width="1"/><circle cx="159.79590034941225px" cy="57.9043858559566px" r="2px" fill="rgba(0, 128, 128, 0.5)" stroke-width="1"/><circle cx="85.7952981959744px" cy="88.36727172415675px" r="2px" fill="rgba(0, 128, 128, 0.5)" stroke-width="1"/><circle cx="63.15819369699603px" cy="64.67885626539433px" r="2px" fill="rgba(0, 128, 128, 0.5)" stroke-width="1"/><circle cx="86.3363995002063px" cy="78.48525839637267px" r="2px" fill="rgba(0, 128, 128, 0.5)" stroke-width="1"/><circle cx="143.94120877853658px" cy="134.36714241115163px" r="2px" fill="rgba(0, 128, 128, 0.5)" stroke-width="1"/><circle cx="207.19153650337933px" cy="121.61646103671728px" r="2px" fill="rgba(0, 128, 128, 0.5)" stroke-width="1"/><circle cx="182.88718600046792px" cy="133.86317931052008px" r="2px" fill="rgba(0, 128, 128, 0.5)" stroke-width="1"/><circle cx="143.18850540175896px" cy="97.5929517912183px" r="2px" fill="rgba(0, 128, 128, 0.5)" stroke-width="1"/><circle cx="81.0383690445999px" cy="127.31720451993613px" r="2px" fill="rgba(0, 128, 128, 0.5)" stroke-width="1"/><circle cx="37.80473529926837px" cy="119.8820690899604px" r="2px" fill="rgba(0, 128, 128, 0.5)" stroke-width="1"/><circle cx="63.09650915354274px" cy="114.67334225703041px" r="2px" fill="rgba(0, 128, 128, 0.5)" stroke-width="1"/><circle cx="125.36146499874881px" cy="57.11324920110079px" r="2px" fill="rgba(0, 128, 128, 0.5)" stroke-width="1"/><circle cx="37.17008034181302px" cy="138.37143739830086px" r="2px" fill="rgba(0, 128, 128, 0.5)" stroke-width="1"/><circle cx="202.78155246509607px" cy="101.85894811102105px" r="2px" fill="rgba(0, 128, 128, 0.5)" stroke-width="1"/><circle cx="197.7739053527875px" cy="69.21434488144695px" r="2px" fill="rgba(0, 128, 128, 0.5)" stroke-width="1"/><circle cx="62.434530397194955px" cy="68.67585407159451px" r="2px" fill="rgba(0, 128, 128, 0.5)" stroke-width="1"/><circle cx="88.19285773460349px" cy="83.97587103684046px" r="2px" fill="rgba(0, 128, 128, 0.5)" stroke-width="1"/><circle cx="156.22475620113738px" cy="117.62072980373941px" r="2px" fill="rgba(0, 128, 128, 0.5)" stroke-width="1"/><circle cx="183.85691335460314px" cy="31.13020770056474px" r="2px" fill="rgba(0, 128, 128, 0.5)" stroke-width="1"/><circle cx="218.80864734621764px" cy="115.81195960945453px" r="2px" fill="rgba(0, 128, 128, 0.5)" stroke-width="1"/><circle cx="194.78769083349198px" cy="130.29899937174412px" r="2px" fill="rgba(0, 128, 128, 0.5)" stroke-width="1"/><circle cx="49.620770284346165px" cy="71.26308218251606px" r="2px" fill="rgba(0, 128, 128, 0.5)" stroke-width="1"/><circle cx="140.5274036608968px" cy="64.69359642110263px" r="2px" fill="rgba(0, 128, 128, 0.5)" stroke-width="1"/><text id="211" x="0.0px" y="8.6490001678467px" text-anchor="start" alignment-baselines="baseline" font-family="Ubuntu" font-weight="bold" font-size="9">A. Line plot</text><text id="212" x="0.0px" y="88.6648700425005px" text-anchor="start" alignment-baselines="baseline" font-family="Ubuntu" font-weight="bold" font-size="9">f(x)</text><text id="213" x="103.3088275841841px" y="170.0787401574803px" text-anchor="start" alignment-baselines="baseline" font-family="Ubuntu" font-weight="bold" font-size="9">Predictor: x</text><line x1="28.9320001602173px" y1="20.6490001678467px" x2="28.9320001602173px" y2="147.9687400239659px" stroke="black" stroke-linecap="square"/><line x1="28.9320001602173px" y1="20.6490001678467px" x2="226.77165354330708px" y2="20.6490001678467px" stroke="black" stroke-linecap="square"/><line x1="226.7716535433071px" y1="20.6490001678467px" x2="226.7716535433071px" y2="147.9687400239659px" stroke="black" stroke-linecap="square"/><line x1="28.9320001602173px" y1="147.9687400239659px" x2="226.77165354330708px" y2="147.9687400239659px" stroke="black" stroke-linecap="square"/></svg>